<svg width="70" height="60" viewBox="0 0 70 60" fill="none" xmlns="http://www.w3.org/2000/svg">
<path d="M69.8279 49.9278C69.8279 49.8195 69.7196 49.4946 69.503 49.278C69.1781 48.9531 68.7449 48.4116 68.0951 47.87C67.5535 47.4368 66.9037 47.1119 66.1456 46.787C65.1709 46.3538 64.1961 46.0289 62.8965 45.704C62.8965 45.5957 62.8965 45.5957 62.8965 45.4874C63.0048 44.4043 63.0048 43.4296 62.7882 42.4549C62.5716 41.4801 62.0301 40.6137 61.3803 39.9639C61.2719 39.8556 61.2719 39.8556 61.1636 39.8556C60.5138 39.4224 59.9723 39.0975 59.4308 38.8809C59.3225 38.8809 59.2142 38.7726 59.1059 38.7726H58.9976C58.6727 38.6643 58.3478 38.556 58.0229 38.4477C57.5896 38.3394 57.1564 38.1227 56.7232 38.0144C54.9904 37.3646 53.1492 36.8231 51.3081 36.3899C50.3333 36.1733 49.3586 35.9567 48.3839 35.8484L45.0265 30C45.3514 29.7834 45.568 29.5668 45.7846 29.2419C46.1095 28.7004 46.1095 27.9422 45.7846 27.4007L42.1023 21.1191C42.3189 21.0108 42.5355 20.7942 42.6438 20.4693C42.9687 19.9278 42.9687 19.1697 42.6438 18.6282L38.5283 11.5884C38.9615 11.5884 39.2864 11.3718 39.6113 11.1552C40.2611 10.5054 40.3694 9.53068 39.9362 8.77256L38.2034 6.17328L40.0445 3.79061C40.586 3.03249 40.586 2.05776 39.9362 1.29964C39.6113 0.866425 39.0698 0.649818 38.5283 0.649818C38.2034 0.649818 37.7701 0.758122 37.5535 0.974729L35.1709 2.27437L32.7882 0.433213C32.4633 0.216606 32.0301 0 31.5969 0C31.1636 0 30.7304 0.216606 30.2972 0.541516C29.6474 1.19134 29.4308 2.16606 29.9723 2.92419L31.5969 5.52346L29.7557 7.90614C29.2142 8.66426 29.2142 9.63899 29.864 10.2888C30.1889 10.722 30.7304 10.9386 31.272 10.9386C31.3803 10.9386 31.4886 10.9386 31.5969 10.9386L27.373 18.3032C27.0481 18.8448 27.0481 19.6029 27.373 20.1444C27.4813 20.361 27.6979 20.5776 27.9145 20.7942L24.2322 27.0758C23.9073 27.6173 23.9073 28.3755 24.2322 28.917C24.4488 29.2419 21.633 35.4152 21.633 35.4152C20.7665 35.5235 19.9001 35.7401 19.142 35.8484C18.4922 36.065 17.734 36.1733 16.8676 36.3899C14.8099 36.9314 12.7521 37.6895 10.9109 38.4477C10.2611 38.6643 9.503 38.9892 8.74487 39.5307C8.74487 39.5307 8.74487 39.5307 8.63657 39.639C8.09505 40.0722 7.77014 40.722 7.44523 41.3718C7.12032 42.0217 7.01202 42.7798 7.01202 43.6462C7.01202 44.296 7.01202 44.8375 7.12033 45.4874C6.68711 45.5957 6.1456 45.704 5.71238 45.9206C4.52105 46.2455 3.54632 46.6787 2.57159 47.2202C1.81347 47.6534 1.16365 48.195 0.62213 48.8448L0.513827 48.9531C0.513827 48.9531 0.405524 49.0614 0.405524 49.1697C-0.0276893 49.7112 -0.135993 50.4693 0.188917 51.1191C0.513827 51.769 1.16365 52.2022 1.92177 52.2022H2.13838C2.13838 52.2022 2.13838 52.2022 2.24668 52.2022C2.35498 52.2022 2.57159 52.2022 2.67989 52.2022C3.1131 52.2022 3.65462 52.2022 4.08783 52.3105C4.84596 52.4188 5.38747 52.5271 5.82069 52.7437C5.49578 54.0433 5.06256 55.2347 4.52105 56.426C4.41274 56.6426 4.30444 56.8592 4.30444 57.0758L4.19614 57.1841C3.87123 58.0505 4.19614 59.1336 5.06256 59.5668C5.17087 59.5668 5.27917 59.6751 5.27917 59.6751C5.38747 59.6751 5.38747 59.7834 5.49578 59.7834C5.82069 59.8917 6.03729 60 6.3622 60C6.90372 60 7.55354 59.7834 7.87845 59.2419C7.98675 59.1336 8.09505 59.0253 8.31166 58.917C8.74487 58.7004 9.17809 58.4838 9.93621 58.1588C11.4525 57.6173 12.9687 57.0758 14.5932 56.6426L14.8099 56.5343C16.2178 56.1011 18.1673 55.5596 20.1167 54.9097C20.8748 54.6931 21.633 54.3682 22.3911 53.935C22.9326 53.6101 23.4741 53.2852 23.799 52.7437C24.3405 52.0939 24.5571 51.444 24.5571 50.7942C24.8821 50.6859 25.3153 50.6859 25.6402 50.6859C25.7485 51.2274 26.0734 51.6606 26.5066 51.9856V53.0686C26.5066 53.7184 26.8315 54.1516 27.0481 54.4765C27.1564 54.5848 27.1564 54.5848 27.2647 54.6931C27.5896 55.018 28.0229 55.1264 28.3478 55.1264C28.4561 55.1264 28.4561 55.1264 28.5644 55.1264C28.6727 55.1264 28.6727 55.1264 28.781 55.1264L41.0192 55.2347H41.1275C41.1275 55.2347 41.1275 55.2347 41.2358 55.2347C41.8857 55.2347 42.5355 55.018 43.077 54.6931C43.9434 54.1516 44.3766 53.0686 44.3766 52.0939C44.3766 51.769 44.2683 51.444 44.16 51.2274C44.16 51.1191 44.16 51.1191 44.2683 51.0108C44.2683 50.9025 44.2683 50.9025 44.2683 50.7942C44.7016 50.7942 45.0265 50.9025 45.4597 50.9025C45.4597 51.5523 45.7846 52.2022 46.2178 52.852C46.5427 53.2852 46.9759 53.7184 47.5174 53.935H47.6257C47.9506 54.0433 48.2756 54.2599 48.6005 54.3682L48.8171 54.4765C49.5752 54.8014 50.4416 55.0181 51.3081 55.343C52.3911 55.6679 53.5824 55.9928 54.6655 56.3177C55.5319 56.6426 56.5066 56.8592 57.373 57.1841C58.4561 57.509 59.7557 57.9422 61.0553 58.4837C61.5969 58.7004 61.9218 58.917 62.1384 59.1336C62.4633 59.5668 63.0048 59.7834 63.5463 59.7834C63.8712 59.7834 64.1961 59.6751 64.4127 59.5668L64.7377 59.3502L64.846 59.2419C65.7124 58.8087 66.0373 57.8339 65.7124 56.8592C65.6041 56.7509 65.6041 56.5343 65.4958 56.426C64.9543 55.0181 64.521 53.935 64.1961 52.852C64.1961 52.6354 64.0878 52.5271 64.0878 52.3105C64.3044 52.2022 64.521 52.0939 64.7377 52.0939C65.4958 51.8773 66.3622 51.769 67.2286 51.769C67.3369 51.769 67.4452 51.769 67.4452 51.769C67.5535 51.769 67.5535 51.769 67.6618 51.769H67.7701H67.8784C68.5283 51.769 69.0698 51.444 69.503 50.9025C69.9362 51.0108 70.0445 50.4693 69.8279 49.9278ZM67.7701 50.4693C67.7701 50.4693 67.8784 50.4693 67.9868 50.4693C67.9868 50.4693 67.8784 50.4693 67.7701 50.4693Z" fill="white"/>
<path fill-rule="evenodd" clip-rule="evenodd" d="M41.1279 53.6098C40.6946 53.6098 40.2614 53.3932 39.9365 52.9599C39.9365 52.8516 39.9365 52.8516 39.9365 52.7433C40.0448 52.7433 40.1531 52.635 40.2614 52.5267C40.3697 52.4184 40.478 52.5267 40.478 52.635C40.478 52.7433 40.5863 52.7433 40.5863 52.8516C40.6946 52.9599 40.8029 52.9599 40.9113 53.0682C41.0196 53.0682 41.2362 53.0682 41.3445 52.8516C41.4528 52.7433 41.3445 52.5267 41.2362 52.4184C41.1279 52.3101 41.1279 52.3101 41.0196 52.2018C40.9113 52.0935 40.6946 52.0935 40.5863 51.9852C40.1531 51.7686 39.9365 51.4437 40.0448 50.9022C40.1531 50.469 40.3697 50.1441 40.8029 50.0358C41.3445 49.9275 41.7777 49.9274 42.1026 50.3607C42.2109 50.469 42.2109 50.5773 42.3192 50.5773C42.3192 50.6856 42.3192 50.6856 42.3192 50.7939C42.2109 50.7939 42.1026 50.9022 42.1026 51.0105C41.9943 51.1188 41.9943 51.1188 41.886 50.9022C41.6694 50.9022 41.5611 50.6856 41.4528 50.6856C41.3445 50.6856 41.2362 50.6856 41.2362 50.6856C41.0196 50.7939 40.9113 51.0105 41.1279 51.2271C41.2362 51.3354 41.3445 51.3354 41.3445 51.4437C41.5611 51.552 41.6694 51.6603 41.886 51.7686C42.6441 52.2018 42.5358 53.1765 41.9943 53.5015C41.6694 53.6098 41.4528 53.6098 41.1279 53.6098Z" fill="#008653"/>
<path fill-rule="evenodd" clip-rule="evenodd" d="M34.3051 51.8765C34.3051 51.335 34.3051 50.9018 34.3051 50.4686C34.3051 50.252 34.3051 50.252 34.5217 50.252C35.0632 50.252 35.713 50.252 36.2545 50.252C36.4711 50.252 36.4711 50.252 36.4711 50.4686C36.4711 50.9018 36.4711 50.7935 36.1462 50.7935C35.9296 50.7935 35.713 50.7935 35.4964 50.7935C35.3881 50.7935 35.3881 50.7935 35.3881 50.9018C35.3881 51.1184 35.3881 51.2267 35.3881 51.4433C35.3881 51.5516 35.3881 51.5516 35.4964 51.5516C35.713 51.5516 35.9296 51.5516 36.1462 51.5516C36.3628 51.5516 36.3628 51.5516 36.3628 51.7682C36.3628 52.0931 36.3628 52.0931 36.0379 52.0931C35.8213 52.0931 35.6047 52.0931 35.3881 52.0931C35.2798 52.0931 35.2798 52.0931 35.2798 52.2014C35.2798 52.418 35.2798 52.6346 35.2798 52.8512C35.2798 52.9595 35.2798 52.9595 35.3881 52.9595C35.713 52.9595 35.9296 52.9595 36.2545 52.9595C36.4711 52.9595 36.4711 52.9595 36.4711 53.1761C36.4711 53.6094 36.4711 53.5011 36.1462 53.5011C35.6047 53.5011 35.0632 53.5011 34.5217 53.5011C34.1968 53.5011 34.1968 53.5011 34.1968 53.1761C34.3051 52.8512 34.3051 52.3097 34.3051 51.8765Z" fill="#008653"/>
<path fill-rule="evenodd" clip-rule="evenodd" d="M37.2295 51.8774C37.2295 51.3359 37.2295 50.9027 37.2295 50.3611C37.2295 50.1445 37.2295 50.1445 37.4461 50.1445C37.9876 50.1445 38.6374 50.1445 39.1789 50.1445C39.3956 50.1445 39.3956 50.1445 39.3956 50.3611C39.3956 50.7943 39.3956 50.686 39.0706 50.686C38.854 50.686 38.6374 50.686 38.4208 50.686C38.3125 50.686 38.3125 50.686 38.3125 50.7943C38.3125 51.011 38.3125 51.1193 38.3125 51.3359C38.3125 51.4442 38.3125 51.4442 38.4208 51.4442C38.6374 51.4442 38.854 51.4442 39.1789 51.4442C39.3956 51.4442 39.3956 51.4442 39.3956 51.6608C39.3956 52.094 39.3956 52.094 39.0706 52.094C38.854 52.094 38.7457 52.094 38.5291 52.094C38.4208 52.094 38.4208 52.094 38.4208 52.2023C38.4208 52.4189 38.4208 52.5272 38.4208 52.7438C38.4208 52.9604 38.4208 52.9604 38.6374 52.9604C38.854 52.9604 39.179 52.9604 39.3956 52.9604C39.6122 52.9604 39.6122 52.9604 39.6122 53.177C39.6122 53.5019 39.6122 53.5019 39.2873 53.5019C38.7457 53.5019 38.2042 53.5019 37.6627 53.5019C37.4461 53.5019 37.4461 53.5019 37.4461 53.2853C37.2295 52.8521 37.2295 52.4189 37.2295 51.8774Z" fill="#008653"/>
<path fill-rule="evenodd" clip-rule="evenodd" d="M29.5397 51.3349V51.2266C29.5397 51.1183 29.5397 50.9017 29.5397 50.7934V50.1436C28.9982 50.1436 28.4567 50.1436 28.0235 50.1436C27.5903 50.1436 27.6986 50.0353 27.6986 50.5768C27.6986 50.6851 27.6986 50.7934 27.9152 50.7934C28.1318 50.7934 28.2401 50.7934 28.4567 50.7934C28.6733 50.7934 28.6733 50.7934 28.6733 51.01C28.6733 51.4432 28.6733 51.8765 28.6733 52.2014V52.3097C28.6733 52.6346 28.6733 53.0678 28.6733 53.3927C28.6733 53.501 28.6733 53.6093 28.7816 53.6093C28.9982 53.6093 29.3231 53.6093 29.5397 53.6093C29.648 53.6093 29.648 53.6093 29.648 53.501C29.648 53.3927 29.648 53.3927 29.648 53.2844C29.5397 52.6346 29.5397 51.9848 29.5397 51.3349Z" fill="#008653"/>
<path fill-rule="evenodd" clip-rule="evenodd" d="M28.4569 51.3349V51.2266C28.4569 51.1183 28.4569 50.9017 28.4569 50.7934V50.1436C28.9985 50.1436 29.54 50.1436 29.9732 50.1436C30.4064 50.1436 30.2981 50.0353 30.2981 50.5768C30.2981 50.6851 30.2981 50.7934 30.0815 50.7934C29.8649 50.7934 29.7566 50.7934 29.54 50.7934C29.3234 50.7934 29.3234 50.7934 29.3234 51.01C29.3234 51.4432 29.3234 51.8765 29.3234 52.2014V52.3097C29.3234 52.6346 29.3234 53.0678 29.3234 53.3927C29.3234 53.501 29.3234 53.6093 29.2151 53.6093C28.9985 53.6093 28.6735 53.6093 28.4569 53.6093C28.3486 53.6093 28.3486 53.6093 28.3486 53.501C28.3486 53.3927 28.3486 53.3927 28.3486 53.2844C28.4569 52.6346 28.4569 51.9848 28.4569 51.3349Z" fill="#008653"/>
<path fill-rule="evenodd" clip-rule="evenodd" d="M33.547 53.2844C33.3304 52.9595 33.2221 52.6346 33.0055 52.3097C33.0055 52.2014 33.0055 52.2014 33.1138 52.0931C33.3304 51.9848 33.547 51.8765 33.6553 51.6599C33.8719 51.2267 33.6553 50.6852 33.3304 50.4686C33.1138 50.3603 32.7889 50.252 32.5723 50.252C32.1391 50.252 31.5976 50.252 31.1644 50.252C30.9478 50.252 30.9478 50.252 30.9478 50.4686C30.9478 50.7935 30.9478 51.2267 30.9478 51.5516C30.9478 52.2014 30.9478 52.7429 30.9478 53.3927C30.9478 53.6094 30.9478 53.6094 31.1644 53.6094C31.381 53.6094 31.5976 53.6094 31.8142 53.6094C31.9225 53.6094 32.0308 53.6094 32.0308 53.3927C32.0308 53.0678 32.0308 52.8512 32.0308 52.5263C32.0308 52.418 32.0308 52.2014 32.0308 52.0931C32.1391 52.0931 32.1391 52.2014 32.1391 52.2014C32.3557 52.6346 32.464 52.9595 32.6806 53.3927C32.6806 53.5011 32.7889 53.6094 32.8972 53.5011C33.0055 53.5011 33.2221 53.5011 33.3304 53.5011C33.4387 53.5011 33.547 53.5011 33.6553 53.5011C33.7636 53.5011 33.7636 53.3927 33.7636 53.3927C33.6553 53.3927 33.6553 53.2844 33.547 53.2844ZM32.5723 51.335C32.5723 51.5516 32.464 51.6599 32.2474 51.6599H32.1391H32.0308H31.9225V51.335C31.9225 51.2267 31.9225 51.2267 31.9225 51.1184C31.9225 51.0101 31.9225 50.7935 31.9225 50.6852C31.9225 50.5769 31.9225 50.5769 32.0308 50.5769H32.2474C32.3557 50.5769 32.3557 50.5769 32.464 50.5769C32.5723 50.5769 32.6806 50.7935 32.7889 50.9018C32.5723 51.2267 32.6806 51.335 32.5723 51.335Z" fill="#008653"/>
<path d="M36.255 51.5527H35.2803V52.0943H36.255V51.5527Z" fill="#008653"/>
<path fill-rule="evenodd" clip-rule="evenodd" d="M40.0442 21.0107H29.972L25.8564 28.0505H44.1597L40.0442 21.0107Z" fill="url(#paint0_linear_1258_3656)"/>
<path fill-rule="evenodd" clip-rule="evenodd" d="M42.9687 29.8916H27.0481L20.6582 41.0468H49.3586L42.9687 29.8916Z" fill="url(#paint1_linear_1258_3656)"/>
<path fill-rule="evenodd" clip-rule="evenodd" d="M28.8896 19.2779L34.9546 8.77246L41.1279 19.2779H28.8896Z" fill="url(#paint2_linear_1258_3656)"/>
<path fill-rule="evenodd" clip-rule="evenodd" d="M33.9791 5.52313L31.5964 1.84082L35.0621 4.5484L38.7444 2.16573L36.0368 5.63143L38.4195 9.42205L34.9538 6.71447L31.2715 9.09714L33.9791 5.52313Z" fill="#F1D348"/>
<path fill-rule="evenodd" clip-rule="evenodd" d="M67.9873 50.3608C67.6623 50.0359 67.3374 49.711 67.0125 49.386C66.471 49.0611 65.9295 48.7362 65.388 48.5196C64.0883 47.9781 62.6804 47.5449 61.2724 47.22C61.1641 47.22 60.9475 47.1117 60.8392 47.1117C60.8392 47.0034 60.8392 47.0034 60.8392 47.0034C60.9475 46.4619 61.0558 45.812 61.1641 45.2705C61.2724 44.5124 61.2724 43.7543 61.0558 42.9961C60.9475 42.3463 60.6226 41.8048 60.1894 41.3716C59.6479 41.0467 59.1064 40.7218 58.4566 40.5052C57.6984 40.1803 56.9403 39.9637 56.1822 39.6387C54.4493 38.9889 52.7165 38.4474 50.9836 38.0142C46.4349 36.9312 40.9114 36.3896 35.0631 36.3896C29.4313 36.3896 24.1244 36.9312 19.5757 37.9059C18.8176 38.1225 18.1678 38.2308 17.4096 38.4474C15.4602 38.9889 13.5107 39.7471 11.5613 40.3969C11.0197 40.6135 10.4782 40.9384 10.045 41.155C9.7201 41.4799 9.5035 41.8048 9.28689 42.238C9.07028 42.7795 8.96198 43.3211 8.96198 43.8626C8.96198 44.729 8.96198 45.4871 9.17859 46.3535C9.17859 46.5702 9.28689 46.7868 9.28689 47.0034C9.17859 47.0034 9.07028 47.0034 9.07028 47.1117C8.20386 47.3283 7.22913 47.6532 6.2544 47.8698C5.27967 48.1947 4.41324 48.5196 3.43851 49.0611C2.897 49.386 2.46378 49.7109 2.03057 50.2525C1.92227 50.3608 1.92227 50.3608 1.81396 50.4691C1.92227 50.4691 2.03057 50.4691 2.03057 50.4691C2.78869 50.4691 3.43851 50.4691 4.19664 50.5774C4.95476 50.6857 5.71288 50.794 6.3627 51.1189C6.68761 51.3355 7.12082 51.5521 7.33743 51.7687C7.55404 51.9853 7.66234 52.2019 7.55404 52.5268C7.55404 52.7434 7.44573 53.0684 7.44573 53.285C7.12082 54.6929 6.57931 55.9925 6.03779 57.2922C5.92949 57.5088 5.82119 57.8337 5.71288 58.0503C5.92949 58.1586 6.03779 58.1586 6.14609 58.2669C6.471 57.942 6.79592 57.6171 7.12082 57.4005C7.66234 57.0756 8.31216 56.7507 8.96198 56.5341C10.5865 55.8842 12.3194 55.3427 13.9439 54.9095C15.6768 54.368 17.4096 53.8265 19.2508 53.285C19.9006 53.0684 20.5504 52.8517 21.2002 52.5268C21.5252 52.3102 21.8501 52.0936 22.0667 51.877C22.6082 51.1189 22.6082 50.4691 21.8501 49.8192C21.7418 49.7109 21.7418 49.7109 21.6335 49.6026C25.9656 48.7362 30.2977 48.4113 34.7382 48.4113C39.0703 48.4113 43.5107 48.7362 47.8428 49.6026C47.7345 49.7109 47.6262 49.7109 47.6262 49.8192C46.9764 50.3608 46.8681 51.1189 47.4096 51.877C47.6262 52.0936 47.8428 52.3102 48.0595 52.4185C48.3844 52.5268 48.601 52.7434 48.9259 52.8517C49.7923 53.1767 50.6587 53.5016 51.5252 53.7182C53.5829 54.368 55.6407 54.9095 57.6984 55.5593C58.9981 55.9925 60.406 56.4258 61.5974 56.9673C62.2472 57.2922 62.897 57.6171 63.3302 58.1586C63.4385 58.0503 63.6551 58.0503 63.7634 57.942C63.7634 57.8337 63.6551 57.7254 63.6551 57.6171C63.1136 56.4258 62.6804 55.1261 62.2472 53.8265C62.1389 53.285 61.9223 52.8517 61.9223 52.3102C61.9223 52.0936 61.9223 51.877 62.1389 51.7687C62.3555 51.5521 62.5721 51.3355 62.897 51.2272C63.3302 51.0106 63.7634 50.794 64.1966 50.6857C65.2797 50.4691 66.3627 50.3608 67.4457 50.3608C67.7706 50.4691 67.879 50.4691 67.9873 50.3608C67.9873 50.4691 67.9873 50.4691 67.9873 50.3608Z" fill="white"/>
<path fill-rule="evenodd" clip-rule="evenodd" d="M26.2913 46.5704C25.858 46.6787 25.5331 46.6787 25.2082 46.787C25.2082 46.787 25.0999 46.787 24.9916 46.6787L24.8833 46.5704C24.1252 45.8122 23.3671 44.9458 22.5006 44.1877C22.3923 44.0794 22.284 43.9711 22.284 43.7545C22.284 43.6462 22.284 43.5379 22.284 43.4296C22.3923 43.4296 22.3923 43.3213 22.5006 43.3213C22.9339 43.213 23.2588 42.9964 23.5837 42.6714C23.9086 42.3465 24.0169 41.9133 24.0169 41.4801C23.9086 40.9386 23.5837 40.722 23.1505 40.722C22.9339 40.722 22.6089 40.722 22.3923 40.8303C21.9591 40.9386 21.4176 40.9386 20.9844 41.0469H20.8761C21.201 43.1047 21.5259 45.1624 21.8508 47.2202C21.5259 47.2202 21.3093 47.3285 20.9844 47.3285C20.6595 45.0541 20.2263 42.6714 19.9014 40.3971C20.118 40.3971 20.3346 40.2888 20.5512 40.2888C21.3093 40.1805 22.0674 40.0722 22.8256 39.9639C23.1505 39.9639 23.4754 39.9639 23.692 39.9639C24.3418 40.0722 24.8833 40.5054 24.9916 41.2635C25.0999 41.805 24.9916 42.3465 24.5584 42.7798C24.3418 43.1047 24.0169 43.3213 23.692 43.5379C23.5837 43.5379 23.4754 43.6462 23.3671 43.7545C23.8003 44.296 24.3418 44.7292 24.775 45.1624C25.3165 45.5956 25.858 46.1372 26.2913 46.5704Z" fill="#B54238"/>
<path fill-rule="evenodd" clip-rule="evenodd" d="M33.4392 45.9205C33.4392 45.5956 33.4392 45.379 33.4392 45.1623C33.5475 45.1623 33.5475 45.1623 33.6558 45.2707C34.5222 45.4873 35.3886 45.7039 36.2551 45.5956C36.3634 45.5956 36.58 45.5956 36.6883 45.4873C37.3381 45.2706 37.5547 44.9457 37.5547 44.2959C37.5547 43.6461 37.2298 43.3212 36.58 43.2129C36.2551 43.2129 35.9301 43.2129 35.6052 43.2129C35.2803 43.2129 35.0637 43.2129 34.7388 43.2129C33.7641 43.1046 33.1143 42.4548 33.1143 41.48C33.1143 41.2634 33.1143 41.0468 33.2226 40.8302C33.3309 40.2887 33.6558 39.9638 34.089 39.6389C34.4139 39.4223 34.8471 39.314 35.172 39.314C36.1468 39.2057 37.1215 39.314 38.0962 39.5306H38.2045C38.2045 39.7472 38.2045 40.0721 38.2045 40.2887C38.0962 40.2887 37.9879 40.2887 37.9879 40.1804C37.3381 39.9638 36.4717 39.8555 35.7135 39.8555C35.4969 39.8555 35.172 39.9638 34.9554 39.9638C34.1973 40.1804 33.8724 40.9385 34.1973 41.5883C34.3056 41.8049 34.5222 42.0216 34.7388 42.1299C34.9554 42.2382 35.172 42.2382 35.3886 42.2382C35.8218 42.2382 36.2551 42.2382 36.6883 42.2382C37.0132 42.2382 37.2298 42.3465 37.5547 42.4548C38.0962 42.6714 38.4211 42.9963 38.5294 43.5378C38.6377 43.971 38.6377 44.4042 38.5294 44.8374C38.4211 45.379 38.0962 45.7039 37.5547 45.9205C37.2298 46.0288 36.7966 46.1371 36.4717 46.2454C35.3886 46.3537 34.4139 46.2454 33.4392 45.9205Z" fill="#B54238"/>
<path fill-rule="evenodd" clip-rule="evenodd" d="M44.9187 46.7873C44.5938 46.7873 44.3772 46.679 44.0522 46.679C45.4602 44.5129 46.7598 42.3468 48.1678 40.2891C48.4927 40.3974 48.8176 40.3974 49.1425 40.5057C49.684 42.9966 50.3338 45.4876 50.8754 47.8703C50.6587 47.8703 50.2255 47.8703 49.9006 47.762C49.684 47.0039 49.5757 46.2457 49.3591 45.4876C48.601 45.3793 47.8429 45.271 47.0847 45.0544C47.193 44.8378 47.3013 44.6212 47.4096 44.4046C47.9512 44.5129 48.601 44.6212 49.1425 44.7295C49.1425 44.5129 48.601 41.8053 48.3844 41.3721C47.193 42.9966 46.0017 44.8378 44.9187 46.7873Z" fill="#B54238"/>
<path fill-rule="evenodd" clip-rule="evenodd" d="M17.5184 41.2637C17.6267 41.4803 17.6267 41.6969 17.735 41.9135C17.4101 41.9135 17.1935 41.9135 16.9769 42.0218C16.2187 42.1301 15.5689 42.3467 14.9191 42.7799C14.3776 43.1048 13.9444 43.6463 13.8361 44.2962C13.8361 44.6211 13.8361 44.946 13.8361 45.2709C13.9444 45.9207 14.161 46.5705 14.5942 47.112C15.0274 47.6536 15.6772 47.9785 16.4353 47.9785C16.7602 47.9785 17.0852 47.9785 17.4101 47.8702C18.0599 47.6536 18.7097 47.437 19.1429 47.0037L19.2512 46.8954C19.2512 46.8954 19.2512 46.8954 19.3595 46.8954C19.4678 47.112 19.4678 47.3287 19.5761 47.5453L19.4678 47.6536C18.6014 48.1951 17.6267 48.6283 16.6519 48.7366C15.3523 48.8449 14.3776 48.4117 13.7278 47.3287C13.2945 46.5705 12.9696 45.7041 12.8613 44.8377C12.8613 43.9713 13.0779 43.3214 13.7278 42.6716C13.9444 42.455 14.161 42.2384 14.4859 42.1301C15.3523 41.5886 16.327 41.372 17.3018 41.2637C17.4101 41.2637 17.4101 41.2637 17.5184 41.2637Z" fill="#B54238"/>
<path fill-rule="evenodd" clip-rule="evenodd" d="M31.1653 39.3144C31.4902 39.3144 31.8151 39.3144 32.2483 39.2061C32.2483 39.3144 32.14 39.4227 32.14 39.531C31.3819 40.9389 30.732 42.3468 29.9739 43.7548C29.7573 43.8631 29.7573 44.0797 29.7573 44.2963C29.7573 44.9461 29.8656 45.5959 29.8656 46.2458C29.8656 46.3541 29.8656 46.3541 29.8656 46.4624C29.5407 46.4624 29.3241 46.4624 28.9992 46.5707C28.9992 46.3541 28.9992 46.1375 28.8909 45.8126C28.8909 45.271 28.7826 44.7295 28.7826 44.188C28.7826 44.0797 28.6743 43.9714 28.6743 43.8631C27.8079 42.5635 26.9414 41.2638 26.075 39.9642C26.075 39.8559 25.9667 39.8559 25.8584 39.6393C26.1833 39.6393 26.5082 39.6393 26.8331 39.531C27.5913 40.7223 28.3494 41.9136 29.1075 43.105C29.8656 41.8053 30.5154 40.5057 31.1653 39.3144Z" fill="#B54238"/>
<path fill-rule="evenodd" clip-rule="evenodd" d="M41.8858 40.1808C41.1277 40.0725 40.3695 40.0725 39.7197 39.9642C39.7197 39.7476 39.7197 39.531 39.7197 39.2061C41.4526 39.3144 43.2937 39.531 45.0266 39.6393C45.0266 39.8559 45.0266 40.0725 44.9183 40.3974C44.1602 40.2891 43.5103 40.2891 42.7522 40.1808C42.7522 40.2891 42.7522 40.2891 42.7522 40.3974C42.6439 41.1555 42.6439 42.0219 42.5356 42.7801C42.4273 43.9714 42.319 45.1627 42.2107 46.3541C42.2107 46.3541 42.2107 46.3541 42.2107 46.4624C41.8858 46.4624 41.6692 46.4624 41.3443 46.3541C41.5609 44.4046 41.6692 42.3468 41.8858 40.1808Z" fill="#B54238"/>
<path fill-rule="evenodd" clip-rule="evenodd" d="M56.0746 48.9533C55.9663 49.1699 55.858 49.3865 55.858 49.6031C54.4501 49.0616 53.0421 48.5201 51.5259 47.9786C52.284 45.8125 53.1504 43.5381 53.9086 41.3721C54.2335 41.4804 54.4501 41.5887 54.775 41.697C54.0169 43.6464 53.367 45.5959 52.6089 47.6537C53.8002 48.0869 54.8833 48.5201 56.0746 48.9533Z" fill="#B54238"/>
<path fill-rule="evenodd" clip-rule="evenodd" d="M67.0125 49.386C66.471 49.0611 65.9295 48.7362 65.388 48.5196C64.0883 47.9781 62.6804 47.5449 61.2725 47.22C61.1642 47.22 60.9475 47.1117 60.8392 47.1117C60.8392 47.0034 60.8392 47.0034 60.8392 47.0034C60.9475 46.4619 61.0558 45.812 61.1642 45.2705C61.2725 44.5124 61.2725 43.7543 61.0559 42.9961C60.9475 42.3463 60.6226 41.8048 60.1894 41.3716C59.6479 40.9384 59.1064 40.7218 58.4566 40.5052C57.6984 40.1803 56.9403 39.9637 56.1822 39.6387C54.4494 38.9889 52.7165 38.4474 50.9836 38.0142C46.4349 36.9312 40.9114 36.3896 35.0631 36.3896C29.4313 36.3896 24.1244 36.9312 19.5757 37.9059C18.8176 38.1225 18.1678 38.2308 17.4096 38.4474C15.4602 38.9889 13.5107 39.7471 11.5613 40.3969C10.9114 40.6135 10.3699 40.8301 10.045 41.155C9.7201 41.4799 9.5035 41.8048 9.28689 42.238C9.07028 42.7795 8.96198 43.3211 8.96198 43.8626C8.96198 44.729 8.96198 45.4871 9.17859 46.3535C9.17859 46.5702 9.28689 46.7868 9.28689 47.0034C9.17859 47.0034 9.07028 47.0034 9.07028 47.1117C8.20386 47.3283 7.22913 47.6532 6.2544 47.8698C5.27967 48.1947 4.41324 48.5196 3.43851 49.0611C2.897 49.386 2.46378 49.7109 2.03057 50.2525C1.92227 50.3608 1.92227 50.3608 1.81396 50.4691C1.92227 50.4691 2.03057 50.4691 2.03057 50.4691C2.78869 50.4691 3.43851 50.4691 4.19664 50.5774C4.95476 50.6857 5.71288 50.794 6.3627 51.1189C6.68761 51.3355 7.12082 51.5521 7.33743 51.7687C7.55404 51.9853 7.66234 52.2019 7.55404 52.5268C7.55404 52.7434 7.44573 53.0684 7.44573 53.285C7.12082 54.6929 6.57931 55.9925 6.03779 57.2922C5.92949 57.5088 5.82119 57.8337 5.71288 58.0503C5.92949 58.1586 6.03779 58.1586 6.1461 58.2669C6.471 57.942 6.79592 57.6171 7.12083 57.4005C7.66234 57.0756 8.31216 56.7507 8.96198 56.5341C10.5865 55.8842 12.3194 55.3427 13.9439 54.9095C15.6768 54.368 17.4096 53.8265 19.2508 53.285C19.9006 53.0684 20.5504 52.8517 21.2003 52.5268C21.5252 52.3102 21.8501 52.0936 22.0667 51.877C22.6082 51.1189 22.6082 50.4691 21.8501 49.8192C21.7418 49.7109 21.7418 49.7109 21.6335 49.6026C25.9656 48.7362 30.2977 48.4113 34.7382 48.4113C39.0703 48.4113 43.5107 48.7362 47.8428 49.6026C47.7345 49.7109 47.6262 49.7109 47.6262 49.8192C46.9764 50.3608 46.8681 51.1189 47.4096 51.877C47.6262 52.0936 47.8428 52.3102 48.0595 52.4185C48.3844 52.5268 48.601 52.7434 48.9259 52.8517C49.7923 53.1767 50.6587 53.5016 51.5252 53.7182C53.5829 54.368 55.6407 54.9095 57.6984 55.5593C58.9981 55.9925 60.406 56.4258 61.5974 56.9673C62.2472 57.2922 62.897 57.6171 63.3302 58.1586C63.4385 58.0503 63.6551 58.0503 63.7634 57.942C63.7634 57.8337 63.6551 57.7254 63.6551 57.6171C63.1136 56.4258 62.6804 55.1261 62.2472 53.8265C62.1389 53.285 61.9223 52.8517 61.9223 52.3102C61.9223 52.0936 61.9223 51.877 62.1389 51.7687C62.3555 51.5521 62.5721 51.3355 62.897 51.2272C63.3302 51.0106 63.7634 50.794 64.1966 50.6857C65.2797 50.4691 66.3627 50.3608 67.4457 50.3608C67.554 50.3608 67.6623 50.3608 67.7706 50.3608V50.2525C67.7706 50.0359 67.4457 49.711 67.0125 49.386ZM66.1461 50.0359C65.2797 50.1442 64.3049 50.2525 63.5468 50.5774C63.2219 50.6857 62.897 50.9023 62.5721 51.1189C62.3555 51.2272 62.1389 51.4438 61.9223 51.6604C61.7057 51.877 61.7057 52.0936 61.7057 52.3102C61.7057 52.7434 61.814 53.285 61.9223 53.7182C62.2472 54.8012 62.5721 55.8842 63.0053 56.859C63.0053 56.9673 63.1136 56.9673 63.1136 57.0756H63.0053C62.0306 56.5341 60.9475 56.1008 59.7562 55.6676C57.9151 55.0178 55.9656 54.4763 54.1244 53.9348C52.7165 53.5016 51.3086 53.0684 49.9006 52.6351C49.4674 52.5268 49.0342 52.3102 48.601 52.0936C48.2761 51.9853 48.0595 51.7687 47.8428 51.4438C47.6262 51.0106 47.6262 50.6857 47.9512 50.3608C48.1678 50.1442 48.4927 49.9276 48.7093 49.8192C48.8176 49.8192 48.9259 49.8192 48.9259 49.8192C50.4421 50.1442 51.9584 50.5774 53.3663 51.0106H53.4746C53.5829 50.794 53.5829 50.6857 53.6912 50.4691C53.5829 50.4691 53.4746 50.3608 53.3663 50.3608C51.9584 49.8192 50.4421 49.4943 48.9259 49.1694C47.3013 48.8445 45.6768 48.5196 43.9439 48.303C42.536 48.0864 41.2364 47.9781 39.8284 47.8698C37.6623 47.7615 35.6046 47.6532 33.4385 47.7615C32.0306 47.7615 30.6226 47.8698 29.2147 47.9781C27.0486 48.0864 24.8826 48.4113 22.7165 48.7362C20.5504 49.1694 18.3844 49.6026 16.2183 50.3608C16.11 50.3608 16.0017 50.4691 15.7851 50.4691C15.8934 50.6857 15.8934 50.794 16.0017 51.0106C16.11 51.0106 16.11 51.0106 16.11 51.0106C17.5179 50.4691 19.0342 50.1442 20.5504 49.8192C20.6587 49.8192 20.6587 49.8192 20.767 49.8192C21.0919 49.9276 21.3086 50.1442 21.5252 50.3608C21.8501 50.6857 21.8501 51.0106 21.6335 51.3355C21.4169 51.6604 21.2002 51.877 20.8753 51.9853C20.3338 52.2019 19.9006 52.4185 19.3591 52.6351C17.9512 53.0684 16.4349 53.6099 15.027 54.0431C13.2941 54.5846 11.5613 55.0178 9.82841 55.6676C8.74537 56.1008 7.66234 56.4258 6.68761 57.0756C6.68761 57.0756 6.68761 57.0756 6.57931 57.0756C6.57931 56.9673 6.57931 56.859 6.68761 56.859C7.12082 55.7759 7.44573 54.8012 7.77064 53.7182C7.87895 53.285 7.98725 52.7434 7.98725 52.3102C7.98725 52.0936 7.87895 51.7687 7.77064 51.6604C7.44573 51.3355 7.22913 51.1189 6.79592 50.9023C6.1461 50.5774 5.38797 50.3608 4.62985 50.1442C4.08833 50.0359 3.65512 50.0359 3.1136 49.9276C3.1136 49.9276 3.0053 49.9276 2.897 49.9276C3.0053 49.8193 3.1136 49.8193 3.22191 49.7109C3.87173 49.2777 4.62985 48.9528 5.38797 48.7362C6.57931 48.303 7.66234 47.9781 8.85368 47.7615C8.96198 47.7615 8.96198 47.7615 9.07028 47.7615C9.07028 47.8698 9.07028 47.8698 9.17859 47.9781C9.6118 49.2777 10.045 50.5774 10.8031 51.7687C11.0197 52.0936 11.2363 52.3102 11.3447 52.6351C11.6696 53.0684 12.1028 53.285 12.6443 53.285C13.0775 53.285 13.619 53.1767 14.0522 53.1767C15.7851 52.8517 17.5179 52.3102 19.2508 51.6604C19.2508 51.6604 19.3591 51.6604 19.3591 51.5521C19.2508 51.3355 19.2508 51.2272 19.1425 51.0106C19.0342 51.0106 18.9259 51.1189 18.8176 51.1189C17.4096 51.6604 16.0017 52.0936 14.4854 52.4185C14.0522 52.5268 13.5107 52.6351 13.0775 52.6351C12.8609 52.6351 12.6443 52.6351 12.4277 52.6351C12.2111 52.6351 11.9945 52.5268 11.7779 52.3102C11.5613 52.0936 11.453 51.877 11.2363 51.6604C10.3699 50.2525 9.82841 48.8445 9.39519 47.3283C9.07028 46.2452 8.96198 45.1622 8.96198 43.9709C8.96198 43.4294 9.07028 42.8878 9.28689 42.4546C9.5035 41.9131 9.93671 41.4799 10.5865 41.2633C12.8609 40.3969 15.2436 39.5304 17.6262 38.8806C19.4674 38.3391 21.4169 38.0142 23.258 37.6893C24.666 37.4727 26.0739 37.2561 27.5901 37.1478C28.8898 37.0395 30.1894 36.9312 31.4891 36.9312C33.2219 36.8229 34.8465 36.8229 36.5793 36.9312C38.2039 36.9312 39.9367 37.0395 41.5613 37.2561C42.7526 37.3644 43.8356 37.4727 45.027 37.6893C47.193 38.0142 49.2508 38.4474 51.3086 38.9889C53.4746 39.5304 55.5324 40.2886 57.6984 41.155C57.9151 41.2633 58.1317 41.3716 58.3483 41.3716C59.2147 41.6965 59.7562 42.3463 59.9728 43.2128C60.0811 43.7543 60.1894 44.4041 60.0811 44.9456C59.9728 46.6785 59.4313 48.4113 58.7815 50.0359C58.5649 50.5774 58.24 51.2272 57.9151 51.7687C57.8068 51.9853 57.5901 52.2019 57.4818 52.5268C57.2652 52.8517 57.0486 52.96 56.6154 52.96C56.1822 52.96 55.749 52.96 55.4241 52.8517C53.6912 52.5268 51.9584 51.9853 50.3338 51.4438C50.2255 51.4438 50.1172 51.3355 50.0089 51.3355C50.0089 51.4438 49.9006 51.5521 49.9006 51.5521C49.9006 51.6604 49.9006 51.6604 49.7923 51.7687C49.9006 51.7687 49.9006 51.877 50.0089 51.877C51.5252 52.4185 53.0414 52.9601 54.666 53.1767C55.2075 53.285 55.749 53.3933 56.3988 53.3933C56.6154 53.3933 56.832 53.3933 57.1569 53.3933C57.3735 53.3933 57.5901 53.285 57.6984 53.0683C57.9151 52.8517 58.1317 52.6351 58.3483 52.3102C58.8898 51.4438 59.323 50.5774 59.7562 49.6026C59.9728 49.0611 60.0811 48.6279 60.2977 48.0864C60.2977 47.9781 60.2977 47.9781 60.406 47.8698C60.5143 47.8698 60.6226 47.8698 60.7309 47.9781C62.1389 48.303 63.5468 48.7362 64.9548 49.2777C65.388 49.4943 65.8212 49.711 66.3627 50.0359C66.471 50.0359 66.471 50.1442 66.5793 50.2525C66.5793 49.9276 66.3627 49.9276 66.1461 50.0359Z" fill="#B34537"/>
<defs>
<linearGradient id="paint0_linear_1258_3656" x1="25.852" y1="24.5507" x2="44.132" y2="24.5507" gradientUnits="userSpaceOnUse">
<stop stop-color="#008652"/>
<stop offset="1" stop-color="#71974E"/>
</linearGradient>
<linearGradient id="paint1_linear_1258_3656" x1="20.6174" y1="35.4823" x2="49.3681" y2="35.4823" gradientUnits="userSpaceOnUse">
<stop stop-color="#008652"/>
<stop offset="1" stop-color="#71974E"/>
</linearGradient>
<linearGradient id="paint2_linear_1258_3656" x1="28.9045" y1="13.9985" x2="41.0773" y2="13.9985" gradientUnits="userSpaceOnUse">
<stop stop-color="#008652"/>
<stop offset="1" stop-color="#71974E"/>
</linearGradient>
</defs>
</svg>
