<svg width="45" height="11" viewBox="0 0 45 11" fill="none" xmlns="http://www.w3.org/2000/svg">
<g clip-path="url(#clip0_1256_2299)">
<path d="M11.2294 8.03388V1.41333H15.324V2.24337H12.0773V4.27894H14.9932V5.10898H12.0773V7.18408H15.5515V8.01412H11.2294V8.03388Z" fill="#E43225"/>
<path d="M19.8526 8.0337L18.4464 6.27481L17.0401 8.0337H16.0475L17.9707 5.68193L15.9441 3.2511H17.0608L18.4464 5.06928L19.8526 3.2511H20.9487L19.0254 5.68193L20.8453 8.0337H19.8526Z" fill="#E43225"/>
<path d="M22.2103 7.32132V10.5822H21.3624V5.70076C21.3624 4.4557 22.3551 3.13159 23.9061 3.13159C25.4778 3.13159 26.6566 4.08021 26.6566 5.64147C26.6566 7.16321 25.4571 8.21064 24.0922 8.21064C23.4304 8.21064 22.5412 7.93396 22.2103 7.32132ZM25.7673 5.64147C25.7673 4.57428 25.0435 3.94187 23.7613 4.00116C23.1409 4.02092 22.1896 4.4557 22.2724 5.97744C22.293 6.47151 22.8307 7.40037 24.0095 7.40037C25.0228 7.40037 25.7673 6.84701 25.7673 5.64147Z" fill="#E43225"/>
<path d="M27.3806 8.03254V3.24994H28.2285V3.76377C28.6421 3.30922 29.2832 3.15112 29.9656 3.15112V4.02069C29.8622 4.00092 28.8489 3.88235 28.2285 5.14717V8.05231H27.3806V8.03254Z" fill="#E43225"/>
<path d="M30.1931 5.64147C30.1931 4.25807 31.2271 3.13159 32.6541 3.13159C34.4326 3.13159 35.0943 4.25807 35.0943 5.70076V6.09602H31.1237C31.1858 7.00511 32.0336 7.47942 32.8195 7.45965C33.3985 7.43989 33.7915 7.28179 34.2051 6.88653L34.7634 7.43989C34.2464 7.9142 33.5847 8.2304 32.7781 8.2304C31.2685 8.21064 30.1931 7.14345 30.1931 5.64147ZM32.592 3.94187C31.7855 3.94187 31.1651 4.6138 31.1237 5.34503H34.2051C34.2051 4.63357 33.6674 3.94187 32.592 3.94187Z" fill="#E43225"/>
<path d="M35.5286 7.36297L36.149 6.82938C36.1283 6.82938 36.4592 7.14558 36.5005 7.16535C36.6453 7.28392 36.7901 7.36298 36.9762 7.4025C37.5139 7.54084 38.4858 7.50132 38.5685 6.78985C38.6099 6.3946 38.2997 6.1772 37.9481 6.03886C37.4932 5.88076 36.9969 5.82148 36.5419 5.62385C36.0249 5.40646 35.694 5.03096 35.694 4.4776C35.694 3.03491 37.8447 2.79776 38.8167 3.46969C38.8581 3.50922 39.3337 3.92424 39.313 3.92424L38.6926 4.39855C38.3824 4.04282 38.0929 3.86495 37.4311 3.86495C37.1003 3.86495 36.6453 4.00329 36.5626 4.33926C36.4385 4.81357 36.9969 4.99143 37.3691 5.09025C37.8654 5.20882 38.4031 5.28788 38.8374 5.54479C39.4371 5.90052 39.5819 6.67128 39.3544 7.26416C39.1062 7.91633 38.3617 8.17325 37.7 8.19302C36.9141 8.23254 36.2317 7.99539 35.6733 7.46179C35.632 7.46179 35.5286 7.36297 35.5286 7.36297Z" fill="#E43225"/>
<path d="M39.8918 7.36297L40.5122 6.82938C40.4916 6.82938 40.8224 7.14558 40.8638 7.16535C41.0086 7.28392 41.1533 7.36298 41.3395 7.4025C41.8771 7.54084 42.8491 7.50132 42.9318 6.78985C42.9732 6.3946 42.663 6.1772 42.3114 6.03886C41.8565 5.88076 41.3601 5.82148 40.9052 5.62385C40.3882 5.40646 40.0573 5.03096 40.0573 4.4776C40.0573 3.03491 42.208 2.79776 43.18 3.46969C43.2213 3.50922 43.697 3.92424 43.6763 3.92424L43.0559 4.39855C42.7457 4.04282 42.4562 3.86495 41.7944 3.86495C41.4635 3.86495 41.0086 4.00329 40.9259 4.33926C40.8018 4.81357 41.3601 4.99143 41.7324 5.09025C42.2287 5.20882 42.7664 5.28788 43.2007 5.54479C43.8004 5.90052 43.9451 6.67128 43.7177 7.26416C43.4695 7.91633 42.725 8.17325 42.0633 8.19302C41.2774 8.23254 40.595 7.99539 40.0366 7.46179C39.9952 7.46179 39.8918 7.36297 39.8918 7.36297Z" fill="#E43225"/>
<path d="M43.9246 3.25059V2.73675H43.7385V2.63794H44.2348V2.73675H44.0487V3.25059H43.9246Z" fill="#E43225"/>
<path d="M44.8551 3.25059V2.77628L44.669 3.25059H44.6277L44.4415 2.77628V3.25059H44.3381V2.63794H44.5036L44.669 3.05296L44.8345 2.63794H44.9999V3.25059H44.8551Z" fill="#E43225"/>
<path d="M5.48012 8.03388L4.85971 6.45286H1.50953L0.889125 8.03388H-0.00012207L2.6883 1.41333H3.66026L6.328 8.03388H5.48012ZM3.14326 2.36195L1.88177 5.64258H4.50815L3.14326 2.36195Z" fill="#F7971D"/>
<path d="M6.88611 8.03388V1.41333H7.75467V8.03388H6.88611Z" fill="#F7971D"/>
<path d="M9.05798 8.0345V3.35071H9.92655V8.0345H9.05798Z" fill="#F7971D"/>
<path d="M10.7538 1.82782C10.7538 1.80806 10.7538 1.80806 10.7538 1.7883C10.7538 1.76853 10.7538 1.76853 10.7538 1.74877C10.092 1.72901 9.55434 1.21517 9.53366 0.582764C9.51298 0.582764 9.4923 0.582764 9.47162 0.582764C9.45094 0.582764 9.43026 0.582764 9.40958 0.582764C9.3889 1.21517 8.85122 1.72901 8.18945 1.74877C8.18945 1.76853 8.18945 1.76853 8.18945 1.7883C8.18945 1.80806 8.18945 1.80806 8.18945 1.82782C8.85122 1.84758 9.3889 2.36142 9.40958 2.99383C9.43026 2.99383 9.45094 2.99383 9.47162 2.99383C9.4923 2.99383 9.51298 2.99383 9.53366 2.99383C9.55434 2.36142 10.092 1.84758 10.7538 1.82782Z" fill="#F7971D"/>
</g>
<defs>
<clipPath id="clip0_1256_2299">
<rect width="45" height="10" fill="white" transform="translate(0.000244141 0.581787)"/>
</clipPath>
</defs>
</svg>
