<svg width="61" height="14" viewBox="0 0 61 14" fill="none" xmlns="http://www.w3.org/2000/svg">
<g clip-path="url(#clip0_1256_17060)">
<path d="M15.6758 10.351V1.53711H21.127V2.64214H16.8046V5.35209H20.6865V6.45712H16.8046V9.21969H21.4298V10.3247H15.6758V10.351Z" fill="#E43225"/>
<path d="M27.1566 10.351L25.2844 8.00935L23.4123 10.351H22.0908L24.6512 7.22004L21.9531 3.98389H23.4398L25.2844 6.40443L27.1566 3.98389H28.6157L26.0553 7.22004L28.4781 10.351H27.1566Z" fill="#E43225"/>
<path d="M30.2948 9.40394V13.7451H29.166V7.2465C29.166 5.58896 30.4875 3.82617 32.5524 3.82617C34.6448 3.82617 36.2141 5.08906 36.2141 7.16757C36.2141 9.19345 34.6172 10.5879 32.8002 10.5879C31.9192 10.5879 30.7353 10.2196 30.2948 9.40394ZM35.0302 7.16757C35.0302 5.74682 34.0666 4.90489 32.3597 4.98382C31.5337 5.01013 30.2673 5.58895 30.3774 7.61484C30.4049 8.27259 31.1207 9.50918 32.69 9.50918C34.0391 9.50918 35.0302 8.77249 35.0302 7.16757Z" fill="#E43225"/>
<path d="M37.1777 10.3512V3.98409H38.3065V4.66815C38.8572 4.06302 39.7106 3.85254 40.6192 3.85254V5.01019C40.4815 4.98388 39.1325 4.82601 38.3065 6.50987V10.3775H37.1777V10.3512Z" fill="#E43225"/>
<path d="M40.9238 7.16757C40.9238 5.32585 42.3004 3.82617 44.2001 3.82617C46.5678 3.82617 47.4488 5.32585 47.4488 7.2465V7.7727H42.1627C42.2453 8.98297 43.3741 9.61442 44.4203 9.58811C45.1912 9.5618 45.7143 9.35132 46.2649 8.82511L47.0083 9.56179C46.32 10.1932 45.439 10.6142 44.3653 10.6142C42.3555 10.5879 40.9238 9.16714 40.9238 7.16757ZM44.1175 4.90489C43.0437 4.90489 42.2178 5.79944 42.1627 6.77291H46.2649C46.2649 5.82575 45.5491 4.90489 44.1175 4.90489Z" fill="#E43225"/>
<path d="M48.0254 9.4572L48.8513 8.74683C48.8238 8.74683 49.2643 9.16779 49.3194 9.1941C49.5121 9.35196 49.7048 9.4572 49.9526 9.50982C50.6684 9.69399 51.9624 9.64137 52.0725 8.6942C52.1276 8.168 51.7146 7.87859 51.2466 7.69442C50.6409 7.48393 49.9801 7.40501 49.3744 7.1419C48.6861 6.85249 48.2456 6.3526 48.2456 5.61591C48.2456 3.69527 51.1089 3.37954 52.4029 4.27409C52.4579 4.32671 53.0912 4.87922 53.0636 4.87922L52.2377 5.51067C51.8247 5.03708 51.4393 4.80029 50.5583 4.80029C50.1178 4.80029 49.5121 4.98447 49.402 5.43174C49.2368 6.06319 49.9801 6.29997 50.4757 6.43152C51.1364 6.58939 51.8523 6.69463 52.4304 7.03666C53.2288 7.51024 53.4215 8.53634 53.1187 9.32565C52.7883 10.1939 51.7972 10.5359 50.9162 10.5622C49.87 10.6149 48.9615 10.2991 48.2181 9.58875C48.1631 9.58875 48.0254 9.4572 48.0254 9.4572Z" fill="#E43225"/>
<path d="M53.834 9.4572L54.6599 8.74683C54.6324 8.74683 55.0729 9.16779 55.128 9.1941C55.3207 9.35196 55.5134 9.4572 55.7612 9.50982C56.477 9.69399 57.771 9.64137 57.8811 8.6942C57.9361 8.168 57.5232 7.87859 57.0551 7.69442C56.4495 7.48393 55.7887 7.40501 55.183 7.1419C54.4947 6.85249 54.0542 6.3526 54.0542 5.61591C54.0542 3.69527 56.9175 3.37954 58.2115 4.27409C58.2665 4.32671 58.8997 4.87922 58.8722 4.87922L58.0463 5.51067C57.6333 5.03708 57.2479 4.80029 56.3669 4.80029C55.9264 4.80029 55.3207 4.98447 55.2106 5.43174C55.0454 6.06319 55.7887 6.29997 56.2843 6.43152C56.945 6.58939 57.6608 6.69463 58.239 7.03666C59.0374 7.51024 59.2301 8.53634 58.9273 9.32565C58.5969 10.1939 57.6058 10.5359 56.7248 10.5622C55.6786 10.6149 54.77 10.2991 54.0267 9.58875C53.9716 9.58875 53.834 9.4572 53.834 9.4572Z" fill="#E43225"/>
<path d="M59.2029 3.98359V3.29952H58.9551V3.16797H59.6158V3.29952H59.368V3.98359H59.2029Z" fill="#E43225"/>
<path d="M60.4422 3.98346V3.35202L60.1944 3.98346H60.1393L59.8916 3.35202V3.98346H59.7539V3.16785H59.9742L60.1944 3.72036L60.4147 3.16785H60.6349V3.98346H60.4422Z" fill="#E43225"/>
<path d="M8.02239 10.351L7.19644 8.24621H2.73636L1.91041 10.351H0.726562L4.30565 1.53711H5.59962L9.15117 10.351H8.02239ZM4.91134 2.8L3.23192 7.16749H6.72841L4.91134 2.8Z" fill="#F7971D"/>
<path d="M9.89648 10.351V1.53711H11.0528V10.351H9.89648Z" fill="#F7971D"/>
<path d="M12.7852 10.3509V4.11536H13.9415V10.3509H12.7852Z" fill="#F7971D"/>
<path d="M15.0428 2.08991C15.0428 2.0636 15.0428 2.0636 15.0428 2.03729C15.0428 2.01098 15.0428 2.01098 15.0428 1.98467C14.1618 1.95836 13.446 1.2743 13.4184 0.432373C13.3909 0.432373 13.3634 0.432373 13.3359 0.432373C13.3083 0.432373 13.2808 0.432373 13.2533 0.432373C13.2257 1.2743 12.5099 1.95836 11.6289 1.98467C11.6289 2.01098 11.6289 2.01098 11.6289 2.03729C11.6289 2.0636 11.6289 2.0636 11.6289 2.08991C12.5099 2.11622 13.2257 2.80029 13.2533 3.64222C13.2808 3.64222 13.3083 3.64222 13.3359 3.64222C13.3634 3.64222 13.3909 3.64222 13.4184 3.64222C13.446 2.80029 14.1618 2.11622 15.0428 2.08991Z" fill="#F7971D"/>
</g>
<defs>
<clipPath id="clip0_1256_17060">
<rect width="59.9083" height="13.313" fill="white" transform="translate(0.726562 0.431641)"/>
</clipPath>
</defs>
</svg>
