<svg width="11" height="10" viewBox="0 0 11 10" fill="none" xmlns="http://www.w3.org/2000/svg">
<path d="M5.42056 8.33663L7.94233 9.93433C8.26468 10.1386 8.66489 9.83481 8.56924 9.45854L7.84064 6.59241C7.82012 6.51259 7.82255 6.42859 7.84765 6.35008C7.87275 6.27157 7.9195 6.20174 7.98252 6.14862L10.2439 4.26645C10.541 4.01914 10.3877 3.52601 10.0059 3.50123L7.05271 3.30957C6.97316 3.30389 6.89687 3.27572 6.83271 3.22836C6.76855 3.181 6.71917 3.11638 6.69031 3.04204L5.58889 0.268389C5.55896 0.189481 5.50572 0.121548 5.43626 0.0736107C5.3668 0.0256733 5.2844 0 5.2 0C5.11561 0 5.03321 0.0256733 4.96375 0.0736107C4.89429 0.121548 4.84105 0.189481 4.81111 0.268389L3.70969 3.04204C3.68084 3.11638 3.63145 3.181 3.56729 3.22836C3.50314 3.27572 3.42684 3.30389 3.3473 3.30957L0.394102 3.50123C0.012348 3.52601 -0.141015 4.01914 0.156119 4.26645L2.41748 6.14862C2.4805 6.20174 2.52725 6.27157 2.55235 6.35008C2.57745 6.42859 2.57988 6.51259 2.55936 6.59241L1.88367 9.25042C1.76889 9.70195 2.24915 10.0664 2.63596 9.82137L4.97945 8.33663C5.04536 8.29468 5.12187 8.27239 5.2 8.27239C5.27813 8.27239 5.35464 8.29468 5.42056 8.33663Z" fill="#333333"/>
</svg>
