<svg width="80" height="80" viewBox="0 0 80 80" fill="none" xmlns="http://www.w3.org/2000/svg">
<circle cx="40" cy="40" r="40" fill="white"/>
<path d="M46.4375 49H34.0625" stroke="#333333" stroke-width="2" stroke-linecap="round" stroke-linejoin="round"/>
<path d="M25.8125 50C26.3648 50 26.8125 49.5523 26.8125 49C26.8125 48.4477 26.3648 48 25.8125 48V50ZM21 47.625H20H21ZM22 41V40H20V41H22ZM25.8125 48H22.375V50H25.8125V48ZM22.375 48C22.2755 48 22.1802 47.9605 22.1098 47.8902L20.6956 49.3044C21.141 49.7498 21.7451 50 22.375 50V48ZM22.1098 47.8902C22.0395 47.8198 22 47.7245 22 47.625H20C20 48.2549 20.2502 48.859 20.6956 49.3044L22.1098 47.8902ZM22 47.625V41H20V47.625H22Z" fill="#333333"/>
<path d="M29.9375 53.125C32.2157 53.125 34.0625 51.2782 34.0625 49C34.0625 46.7218 32.2157 44.875 29.9375 44.875C27.6593 44.875 25.8125 46.7218 25.8125 49C25.8125 51.2782 27.6593 53.125 29.9375 53.125Z" stroke="#27AE60" stroke-width="2" stroke-miterlimit="10"/>
<path d="M21 40.5H20V41.5H21V40.5ZM22.375 27V28V27ZM48.5 27H49.5C49.5 26.4477 49.0523 26 48.5 26V27ZM48.5 40.5V41.5H49.5V40.5H48.5ZM22 40.5V28.375H20V40.5H22ZM22 28.375C22 28.2755 22.0395 28.1802 22.1098 28.1098L20.6956 26.6956C20.2502 27.141 20 27.7451 20 28.375H22ZM22.1098 28.1098C22.1802 28.0395 22.2755 28 22.375 28V26C21.7451 26 21.141 26.2502 20.6956 26.6956L22.1098 28.1098ZM22.375 28H48.5V26H22.375V28ZM47.5 27V40.5H49.5V27H47.5ZM21 41.5H34.75V39.5H21V41.5ZM34.75 41.5H48.5V39.5H34.75V41.5Z" fill="#27AE60"/>
<path d="M59.5 36.625H48.5V29.75H55.8191C56.0939 29.75 56.3624 29.8323 56.5899 29.9864C56.8175 30.1405 56.9937 30.3592 57.0957 30.6143L59.5 36.625Z" stroke="#333333" stroke-width="2" stroke-linecap="round" stroke-linejoin="round"/>
<path d="M48.5 45.4276V36.625H59.5V47.625C59.5 47.9897 59.3551 48.3394 59.0973 48.5973C58.8394 48.8551 58.4897 49 58.125 49H54.6875" stroke="#333333" stroke-width="2" stroke-linecap="round" stroke-linejoin="round"/>
<path d="M50.5625 53.125C52.8407 53.125 54.6875 51.2782 54.6875 49C54.6875 46.7218 52.8407 44.875 50.5625 44.875C48.2843 44.875 46.4375 46.7218 46.4375 49C46.4375 51.2782 48.2843 53.125 50.5625 53.125Z" stroke="#27AE60" stroke-width="2" stroke-miterlimit="10"/>
</svg>
