<svg width="50" height="16" viewBox="0 0 50 16" fill="none" xmlns="http://www.w3.org/2000/svg">
<g opacity="0.3" clip-path="url(#clip0_1256_2280)">
<path d="M17.9813 4.28639C17.8822 3.75792 17.7336 3.23895 17.5373 2.73569C17.3484 2.22791 17.1116 1.73744 16.8298 1.27027C16.7307 1.10787 16.581 0.978815 16.4015 0.901013C16.2219 0.823211 16.0213 0.800514 15.8276 0.836069C15.2734 0.945699 14.7287 1.09473 14.198 1.2819C13.6668 1.46062 13.1502 1.67659 12.6526 1.92803C12.4802 2.01806 12.3413 2.15677 12.2552 2.32503C12.1691 2.49329 12.14 2.68282 12.1718 2.8675C12.2693 3.39829 12.4175 3.91951 12.6146 4.42467C12.8041 4.93221 13.0408 5.42263 13.3221 5.89009C13.4221 6.05154 13.5725 6.17943 13.7523 6.25605C13.932 6.33268 14.1324 6.35426 14.3256 6.31782C14.8766 6.2078 15.4181 6.05878 15.9457 5.87199C16.4776 5.69378 16.9946 5.47779 17.4925 5.22587C17.6664 5.13697 17.8069 4.99875 17.8945 4.83039C17.9821 4.66204 18.0125 4.47191 17.9813 4.28639Z" fill="#F72A16"/>
<path d="M24.0559 1.76015C23.5393 1.54571 23.0069 1.36734 22.463 1.22645C21.9218 1.07856 21.3698 0.968852 20.8117 0.898217C20.6163 0.876032 20.4185 0.912101 20.2455 1.00145C20.0726 1.09079 19.933 1.22901 19.8461 1.39703C19.6013 1.8827 19.404 2.38882 19.2568 2.90897C19.0991 3.42654 18.9923 3.95692 18.9376 4.49328C18.92 4.68011 18.9639 4.86753 19.0632 5.0296C19.1624 5.19167 19.3122 5.32036 19.4917 5.39785C20.0078 5.61216 20.5398 5.79011 21.0833 5.93026C21.6248 6.07898 22.1772 6.18913 22.736 6.25979C22.9316 6.28226 23.1297 6.24632 23.3029 6.15696C23.4761 6.0676 23.6159 5.92923 23.7028 5.76098C23.9465 5.27483 24.1438 4.76881 24.2922 4.24904C24.4485 3.73116 24.5553 3.2009 24.6113 2.66473C24.6288 2.47775 24.5848 2.29022 24.4853 2.12814C24.3857 1.96606 24.2357 1.83745 24.0559 1.76015Z" fill="#FABC22"/>
<path d="M31.3183 4.28732C31.2205 3.75857 31.0719 3.23948 30.8743 2.73661C30.6859 2.22861 30.4491 1.73809 30.1667 1.27119C30.0686 1.10797 29.9191 0.978232 29.7392 0.900316C29.5594 0.822399 29.3583 0.800247 29.1645 0.836991C28.6131 0.946972 28.0712 1.096 27.5431 1.28282C27.0119 1.46155 26.4953 1.67752 25.9977 1.92895C25.825 2.0188 25.6859 2.15742 25.5996 2.3257C25.5132 2.49397 25.4839 2.6836 25.5156 2.86842C25.6137 3.39922 25.7623 3.92043 25.9597 4.42559C26.148 4.93359 26.3848 5.42411 26.6672 5.89101C26.7663 6.05304 26.9163 6.18145 27.096 6.25817C27.2758 6.33489 27.4763 6.35608 27.6694 6.31875C28.2208 6.20876 28.7628 6.05974 29.2908 5.87292C29.8223 5.69475 30.3389 5.47876 30.8362 5.22679C31.0089 5.13694 31.148 4.99832 31.2344 4.83004C31.3207 4.66176 31.35 4.47213 31.3183 4.28732Z" fill="#06C92E"/>
<path d="M37.394 1.76015C36.8773 1.5459 36.3449 1.36754 35.8011 1.22645C35.2595 1.07841 34.7071 0.968696 34.1484 0.898217C33.953 0.876032 33.7552 0.912101 33.5823 1.00145C33.4093 1.09079 33.2698 1.22901 33.1829 1.39703C32.9381 1.88289 32.7404 2.38896 32.5922 2.90897C32.4359 3.42685 32.3291 3.95711 32.273 4.49328C32.2555 4.68026 32.2996 4.86779 32.3991 5.02987C32.4986 5.19195 32.6487 5.32056 32.8285 5.39785C33.3444 5.61258 33.8764 5.79054 34.42 5.93026C34.9615 6.07911 35.514 6.18925 36.0727 6.25979C36.2681 6.28197 36.4659 6.24591 36.6389 6.15656C36.8118 6.06722 36.9514 5.929 37.0382 5.76098C37.2831 5.27531 37.4804 4.76919 37.6276 4.24904C37.7839 3.73116 37.8907 3.2009 37.9467 2.66473C37.9645 2.47804 37.9208 2.29073 37.8218 2.12868C37.7228 1.96663 37.5733 1.83785 37.394 1.76015Z" fill="#00C2FC"/>
<path d="M1.24684 14.3541C1.24738 14.3965 1.23901 14.4386 1.22221 14.4778C1.20541 14.5171 1.18052 14.5528 1.14901 14.5828C1.11751 14.6128 1.08001 14.6364 1.03874 14.6524C0.997467 14.6684 0.953251 14.6764 0.908695 14.6759H0.338337C0.293723 14.6768 0.249385 14.669 0.20805 14.653C0.166715 14.637 0.129254 14.6131 0.0979719 14.5828C0.0661483 14.553 0.0410583 14.5174 0.0242439 14.4781C0.00742948 14.4387 -0.000754034 14.3965 0.0001963 14.3541V12.9649C-0.000754034 12.9225 0.00742948 12.8803 0.0242439 12.8409C0.0410583 12.8016 0.0661483 12.7659 0.0979719 12.7362C0.129254 12.7059 0.166715 12.682 0.20805 12.666C0.249385 12.65 0.293723 12.6422 0.338337 12.6431H0.517592C0.600651 12.5359 0.669096 12.4191 0.721291 12.2955C0.783899 12.1508 0.834746 12.0018 0.873387 11.8497C0.916437 11.6848 0.950433 11.5179 0.975236 11.3496C1.0024 11.1777 1.02141 11.0059 1.03363 10.8327L1.06894 10.3326C1.07387 10.2456 1.11373 10.1637 1.18029 10.1039C1.24606 10.0431 1.33445 10.0097 1.42609 10.0108H3.92887C3.97349 10.0099 4.01783 10.0177 4.05916 10.0337C4.1005 10.0497 4.13796 10.0736 4.16924 10.1039C4.20151 10.1334 4.22698 10.1689 4.24404 10.2083C4.26111 10.2477 4.26939 10.29 4.26837 10.3326V12.6418H4.59701C4.64162 12.6409 4.68596 12.6487 4.72729 12.6647C4.76863 12.6807 4.80609 12.7046 4.83737 12.7349C4.86981 12.7646 4.89538 12.8003 4.91245 12.8399C4.92952 12.8796 4.93772 12.9221 4.93651 12.9649V14.3554C4.93753 14.398 4.92924 14.4403 4.91218 14.4796C4.89511 14.519 4.86964 14.5546 4.83737 14.5841C4.80609 14.6144 4.76863 14.6383 4.72729 14.6543C4.68596 14.6703 4.64162 14.6781 4.59701 14.6771H4.02665C3.98209 14.6777 3.93788 14.6697 3.89661 14.6537C3.85533 14.6377 3.81784 14.614 3.78633 14.5841C3.75482 14.5541 3.72993 14.5184 3.71314 14.4791C3.69634 14.4399 3.68796 14.3978 3.68851 14.3554V13.8294H1.24412L1.24684 14.3541ZM2.93075 11.1997H2.33459L2.31694 11.3522C2.2867 11.6224 2.22987 11.8894 2.14719 12.1495C2.09362 12.3227 2.01598 12.4882 1.91633 12.6418H2.93075V11.1997Z" fill="#0073E6"/>
<path d="M6.67355 12.3453C6.70172 12.4304 6.7473 12.5094 6.80766 12.5777C6.86802 12.646 6.94197 12.7023 7.02527 12.7433C7.20574 12.8315 7.40634 12.8759 7.60921 12.8725C7.74053 12.8734 7.87173 12.8648 8.00167 12.8467C8.11421 12.83 8.22444 12.8014 8.3303 12.7614C8.39343 12.7395 8.46004 12.7281 8.52721 12.7278C8.59179 12.7248 8.65584 12.7402 8.71122 12.7719C8.76659 12.8037 8.81079 12.8504 8.83819 12.9061L8.97399 13.1775C8.99853 13.2248 9.01065 13.2772 9.0093 13.33C9.0129 13.3857 9.00052 13.4414 8.9735 13.491C8.94647 13.5406 8.90581 13.5823 8.85585 13.6117C8.63574 13.7326 8.39697 13.8199 8.14833 13.8701C7.92221 13.9104 7.6926 13.9303 7.46254 13.9296C7.15566 13.934 6.85052 13.885 6.56219 13.7848C6.30774 13.6982 6.07605 13.5602 5.8831 13.3801C5.69015 13.2001 5.54053 12.9824 5.44457 12.742C5.34051 12.48 5.29026 12.2014 5.29654 11.9214C5.2951 11.6557 5.34814 11.3924 5.45271 11.146C5.55325 10.908 5.70128 10.6908 5.88863 10.5064C6.08114 10.319 6.31232 10.1716 6.56763 10.0735C6.8543 9.96434 7.16059 9.90947 7.46933 9.91195C7.72043 9.91228 7.96938 9.95607 8.20401 10.0412C8.43492 10.1219 8.64676 10.2453 8.82733 10.4043C9.00728 10.5652 9.15257 10.7579 9.2551 10.9716C9.36461 11.2034 9.41931 11.4553 9.41534 11.7095C9.41805 11.8392 9.40896 11.9689 9.38818 12.0971C9.37291 12.1656 9.33365 12.2271 9.27682 12.2716C9.22581 12.3202 9.15747 12.3488 9.08535 12.3517L6.67355 12.3453ZM8.07228 11.4975C8.06953 11.3615 8.01048 11.2319 7.90797 11.137C7.84346 11.0788 7.76691 11.034 7.6832 11.0055C7.5995 10.9771 7.51047 10.9655 7.42181 10.9716C7.23864 10.9602 7.05681 11.008 6.90577 11.1073C6.7796 11.2104 6.68565 11.3445 6.63417 11.495L8.07228 11.4975Z" fill="#0073E6"/>
<path d="M11.2617 13.8297C11.2171 13.8306 11.1728 13.8228 11.1314 13.8068C11.0901 13.7908 11.0526 13.7669 11.0214 13.7367C10.9891 13.7071 10.9636 13.6716 10.9466 13.6322C10.9295 13.5928 10.9212 13.5505 10.9222 13.5079V11.2865H10.1074C10.0628 11.2874 10.0185 11.2797 9.97715 11.2637C9.93581 11.2477 9.89835 11.2238 9.86707 11.1935C9.83498 11.1639 9.80972 11.1283 9.79289 11.0889C9.77605 11.0495 9.76802 11.0073 9.7693 10.9648V10.3367C9.76802 10.2942 9.77605 10.252 9.79289 10.2126C9.80972 10.1732 9.83498 10.1376 9.86707 10.108C9.89835 10.0777 9.93581 10.0538 9.97715 10.0378C10.0185 10.0218 10.0628 10.0141 10.1074 10.015H13.0787C13.1233 10.0144 13.1675 10.0224 13.2088 10.0384C13.25 10.0544 13.2875 10.0781 13.319 10.108C13.3506 10.138 13.3754 10.1737 13.3922 10.213C13.409 10.2523 13.4174 10.2943 13.4169 10.3367V10.9648C13.4174 11.0072 13.409 11.0492 13.3922 11.0885C13.3754 11.1278 13.3506 11.1635 13.319 11.1935C13.2875 11.2234 13.25 11.2471 13.2088 11.2631C13.1675 11.2791 13.1233 11.2871 13.0787 11.2865H12.2639V13.5079C12.2641 13.5503 12.2554 13.5924 12.2384 13.6316C12.2214 13.6708 12.1964 13.7064 12.1648 13.7363C12.1332 13.7662 12.0957 13.7899 12.0545 13.8059C12.0132 13.822 11.969 13.83 11.9244 13.8297H11.2617Z" fill="#0073E6"/>
<path d="M16.6616 11.2534C16.4719 11.1575 16.2612 11.1053 16.0464 11.1009C15.9401 11.1009 15.8345 11.118 15.7341 11.1513C15.6338 11.1863 15.5416 11.2394 15.4625 11.3076C15.3782 11.3803 15.3098 11.4681 15.2615 11.5661C15.2088 11.6782 15.1828 11.8 15.1855 11.9228C15.1831 12.0432 15.2111 12.1623 15.2669 12.2704C15.3655 12.4651 15.5399 12.6158 15.7531 12.6904C15.8544 12.726 15.9615 12.7444 16.0695 12.7446C16.2917 12.7404 16.508 12.6759 16.6928 12.5585C16.7658 12.5092 16.8531 12.4825 16.9427 12.4823C16.9956 12.4815 17.0478 12.4928 17.0951 12.5153C17.1424 12.5378 17.1833 12.5708 17.2143 12.6115L17.4859 12.9591C17.5318 13.0177 17.5566 13.0889 17.5565 13.162C17.5582 13.215 17.546 13.2674 17.5211 13.3148C17.4962 13.3621 17.4594 13.4029 17.4139 13.4334C17.1925 13.6134 16.9352 13.7492 16.6575 13.8327C16.4366 13.8925 16.2082 13.9238 15.9785 13.9258C15.6646 13.9299 15.3524 13.8809 15.0564 13.781C14.7945 13.6939 14.5548 13.5552 14.353 13.374C14.1567 13.1962 14.0045 12.979 13.9076 12.7382C13.8006 12.4763 13.7476 12.1973 13.7514 11.9163C13.7502 11.6511 13.8013 11.3881 13.9022 11.1409C14.0007 10.9029 14.1474 10.6855 14.334 10.5013C14.5269 10.3143 14.7579 10.167 15.013 10.0684C15.2871 9.96209 15.5807 9.90893 15.8767 9.91201C16.1194 9.90983 16.3616 9.9328 16.5991 9.9805C16.8418 10.0371 17.0717 10.1347 17.2781 10.2687C17.3356 10.2969 17.3842 10.3392 17.4188 10.3912C17.4534 10.4432 17.4728 10.5031 17.475 10.5646C17.4741 10.6224 17.4552 10.6786 17.4207 10.7261L17.1627 11.1332C17.1335 11.1852 17.0897 11.2285 17.0363 11.2584C16.9829 11.2882 16.9218 11.3035 16.8599 11.3025C16.7902 11.3042 16.7215 11.2871 16.6616 11.2534Z" fill="#0073E6"/>
<path d="M19.6544 12.0061V13.5064C19.655 13.5488 19.6466 13.5909 19.6298 13.6302C19.613 13.6694 19.5881 13.7051 19.5566 13.7351C19.5251 13.7651 19.4876 13.7888 19.4463 13.8048C19.405 13.8207 19.3608 13.8287 19.3163 13.8282H18.6563C18.6117 13.8287 18.5675 13.8207 18.5262 13.8048C18.485 13.7888 18.4475 13.7651 18.416 13.7351C18.3845 13.7051 18.3596 13.6694 18.3428 13.6302C18.326 13.5909 18.3176 13.5488 18.3181 13.5064V10.3352C18.3176 10.2928 18.326 10.2507 18.3428 10.2115C18.3596 10.1722 18.3845 10.1365 18.416 10.1065C18.4475 10.0766 18.485 10.0529 18.5262 10.0369C18.5675 10.0209 18.6117 10.0129 18.6563 10.0134H19.3163C19.3608 10.0129 19.405 10.0209 19.4463 10.0369C19.4876 10.0529 19.5251 10.0766 19.5566 10.1065C19.5881 10.1365 19.613 10.1722 19.6298 10.2115C19.6466 10.2507 19.655 10.2928 19.6544 10.3352V11.6727L20.6878 10.2228C20.7362 10.1596 20.7989 10.1075 20.8712 10.0703C20.9425 10.031 21.0236 10.0105 21.1061 10.0109H21.7281C21.7747 10.0096 21.821 10.018 21.8639 10.0354C21.9068 10.0528 21.9452 10.0788 21.9766 10.1117C22.035 10.1671 22.0701 10.241 22.0751 10.3193C22.0801 10.3977 22.0547 10.4751 22.0037 10.5368L21.0531 11.7231L21.4891 12.2917C21.6025 12.4605 21.7716 12.5887 21.9698 12.6561C22.0732 12.6684 22.169 12.714 22.2414 12.7853C22.2929 12.8703 22.3161 12.968 22.3079 13.0658V13.5827C22.307 13.6521 22.2783 13.7186 22.2278 13.7687C22.1794 13.8221 22.1133 13.8582 22.0404 13.8708C21.9929 13.8708 21.9481 13.8812 21.9046 13.8838C21.8611 13.8863 21.819 13.8838 21.7688 13.8838C21.6566 13.883 21.5447 13.8718 21.4347 13.8502C21.3133 13.8254 21.1962 13.784 21.0871 13.7274C20.9654 13.6597 20.8536 13.5771 20.7544 13.4819C20.6227 13.3553 20.5048 13.2163 20.4027 13.0671L19.6544 12.0061Z" fill="#0073E6"/>
<path d="M26.1758 13.8298C26.1313 13.8303 26.087 13.8224 26.0458 13.8064C26.0045 13.7904 25.967 13.7667 25.9355 13.7367C25.904 13.7067 25.8791 13.6711 25.8623 13.6318C25.8455 13.5925 25.8371 13.5504 25.8377 13.508V11.8372L24.5639 13.6127C24.5193 13.6726 24.4636 13.7243 24.3996 13.7652C24.3347 13.8056 24.2584 13.8264 24.1809 13.8246H23.415C23.3702 13.8255 23.3257 13.8177 23.2841 13.8017C23.2426 13.7857 23.2049 13.7619 23.1733 13.7316C23.1415 13.7018 23.1164 13.6662 23.0996 13.6269C23.0827 13.5875 23.0746 13.5453 23.0755 13.5029V10.3368C23.0746 10.2944 23.0827 10.2522 23.0996 10.2129C23.1164 10.1735 23.1415 10.1379 23.1733 10.1081C23.2049 10.0779 23.2426 10.054 23.2841 10.038C23.3257 10.022 23.3702 10.0142 23.415 10.0151H24.0736C24.1182 10.0146 24.1624 10.0225 24.2037 10.0385C24.245 10.0545 24.2825 10.0782 24.314 10.1082C24.3455 10.1381 24.3704 10.1738 24.3872 10.2131C24.404 10.2524 24.4123 10.2944 24.4118 10.3368V12.0077L25.6869 10.227C25.7308 10.1678 25.785 10.1162 25.8472 10.0745C25.9098 10.0336 25.9845 10.0127 26.0604 10.0151H26.8358C26.8804 10.0146 26.9246 10.0225 26.9659 10.0385C27.0071 10.0545 27.0446 10.0782 27.0761 10.1082C27.1076 10.1381 27.1325 10.1738 27.1493 10.2131C27.1661 10.2524 27.1745 10.2944 27.1739 10.3368V13.508C27.1745 13.5504 27.1661 13.5925 27.1493 13.6318C27.1325 13.6711 27.1076 13.7067 27.0761 13.7367C27.0446 13.7667 27.0071 13.7904 26.9659 13.8064C26.9246 13.8224 26.8804 13.8303 26.8358 13.8298H26.1758Z" fill="#0073E6"/>
<path d="M31.2543 13.8303C31.2097 13.8308 31.1655 13.8229 31.1242 13.8069C31.0829 13.7909 31.0454 13.7672 31.0139 13.7372C30.9824 13.7073 30.9575 13.6716 30.9407 13.6323C30.9239 13.593 30.9156 13.5509 30.9161 13.5085V11.8377L29.6423 13.6132C29.5973 13.6732 29.5411 13.7249 29.4766 13.7657C29.4123 13.8062 29.3365 13.8269 29.2594 13.8252H28.4921C28.4475 13.8257 28.4033 13.8177 28.362 13.8017C28.3208 13.7857 28.2833 13.7621 28.2518 13.7321C28.2203 13.7021 28.1954 13.6664 28.1786 13.6271C28.1618 13.5879 28.1534 13.5458 28.154 13.5034V10.3374C28.1534 10.295 28.1618 10.2529 28.1786 10.2136C28.1954 10.1743 28.2203 10.1386 28.2518 10.1087C28.2833 10.0787 28.3208 10.055 28.362 10.039C28.4033 10.023 28.4475 10.0151 28.4921 10.0156H29.1521C29.1966 10.0151 29.2409 10.023 29.2821 10.039C29.3234 10.055 29.3609 10.0787 29.3924 10.1087C29.4239 10.1386 29.4488 10.1743 29.4656 10.2136C29.4824 10.2529 29.4908 10.295 29.4902 10.3374V12.0082L30.764 10.2275C30.8082 10.1686 30.8624 10.1171 30.9243 10.075C30.9875 10.0343 31.0625 10.0135 31.1388 10.0156H31.9129C31.9574 10.0151 32.0017 10.023 32.0429 10.039C32.0842 10.055 32.1217 10.0787 32.1532 10.1087C32.1847 10.1386 32.2096 10.1743 32.2264 10.2136C32.2432 10.2529 32.2516 10.295 32.251 10.3374V13.5085C32.2516 13.5509 32.2432 13.593 32.2264 13.6323C32.2096 13.6716 32.1847 13.7073 32.1532 13.7372C32.1217 13.7672 32.0842 13.7909 32.0429 13.8069C32.0017 13.8229 31.9574 13.8308 31.9129 13.8303H31.2543ZM31.0587 8.34469C31.1335 8.33958 31.2087 8.34986 31.279 8.37484C31.3493 8.39981 31.4131 8.43889 31.4661 8.48942C31.5601 8.59219 31.6087 8.72552 31.6019 8.86159C31.5992 8.97511 31.5663 9.08611 31.5062 9.18421C31.4461 9.2823 31.3608 9.36427 31.2583 9.42243C31.0302 9.57492 30.6902 9.65116 30.2385 9.65116C29.7401 9.65116 29.3816 9.57492 29.1657 9.42243C29.0671 9.36166 28.9857 9.27869 28.9289 9.18086C28.872 9.08303 28.8414 8.97337 28.8397 8.86159C28.8339 8.72565 28.8824 8.59266 28.9755 8.48942C29.0764 8.40636 29.2025 8.35626 29.3355 8.34649C29.4685 8.33672 29.6013 8.3678 29.7143 8.43515C29.7868 8.49717 29.8395 8.57732 29.8664 8.66646C29.8921 8.7381 29.9348 8.80311 29.9913 8.85642C30.0609 8.91092 30.1501 8.93736 30.2398 8.93008C30.2803 8.93338 30.3211 8.92852 30.3594 8.91583C30.3978 8.90314 30.4329 8.8829 30.4625 8.85642C30.5137 8.80064 30.5533 8.7362 30.5793 8.66646C30.6057 8.57741 30.658 8.49724 30.7301 8.43515C30.8246 8.36842 30.9413 8.33631 31.0587 8.34469Z" fill="#0073E6"/>
<path d="M36.351 13.5079C36.3534 13.5509 36.3465 13.5938 36.3306 13.6341C36.3147 13.6743 36.2902 13.711 36.2587 13.7418C36.2271 13.7721 36.1894 13.7959 36.1478 13.8119C36.1063 13.8279 36.0617 13.8357 36.0169 13.8349H35.3583C35.3137 13.8354 35.2695 13.8274 35.2283 13.8114C35.187 13.7955 35.1495 13.7718 35.118 13.7418C35.0865 13.7118 35.0616 13.6761 35.0448 13.6369C35.028 13.5976 35.0196 13.5555 35.0202 13.5131V10.3367C35.0196 10.2943 35.028 10.2523 35.0448 10.213C35.0616 10.1737 35.0865 10.138 35.118 10.108C35.1495 10.0781 35.187 10.0544 35.2283 10.0384C35.2695 10.0224 35.3137 10.0144 35.3583 10.015H35.9871C36.0659 10.0166 36.1434 10.035 36.2139 10.0688C36.2844 10.1025 36.346 10.1508 36.3945 10.2101L37.4184 11.3124L38.369 10.2178C38.4187 10.1588 38.4789 10.1085 38.5469 10.0692C38.6146 10.0324 38.6916 10.0137 38.7696 10.015H39.3657C39.4104 10.0141 39.4547 10.0218 39.496 10.0378C39.5374 10.0538 39.5748 10.0777 39.6061 10.108C39.6384 10.1375 39.6639 10.1731 39.6809 10.2125C39.698 10.2518 39.7063 10.2942 39.7052 10.3367V13.5079C39.7063 13.5505 39.698 13.5928 39.6809 13.6322C39.6639 13.6716 39.6384 13.7071 39.6061 13.7367C39.5748 13.7669 39.5374 13.7908 39.496 13.8068C39.4547 13.8228 39.4104 13.8306 39.3657 13.8297H38.703C38.6585 13.8302 38.6143 13.8223 38.573 13.8063C38.5317 13.7903 38.4942 13.7666 38.4627 13.7366C38.4312 13.7066 38.4063 13.671 38.3895 13.6317C38.3727 13.5924 38.3644 13.5503 38.3649 13.5079V11.9572L37.6071 12.7713C37.5786 12.8035 37.543 12.8292 37.5029 12.8469C37.4628 12.8645 37.4191 12.8736 37.3749 12.8734C37.3318 12.8737 37.2891 12.8656 37.2494 12.8496C37.2097 12.8336 37.1739 12.81 37.1441 12.7804L36.351 11.9572V13.5079Z" fill="#0073E6"/>
<path d="M43.7806 13.8298C43.7361 13.8303 43.6919 13.8224 43.6506 13.8064C43.6093 13.7904 43.5718 13.7667 43.5403 13.7367C43.5088 13.7067 43.4839 13.6711 43.4671 13.6318C43.4503 13.5925 43.4419 13.5504 43.4425 13.508V11.8372L42.1687 13.6127C42.1238 13.6723 42.0681 13.724 42.0044 13.7652C41.9395 13.8056 41.8633 13.8264 41.7857 13.8246H41.0198C40.9752 13.8253 40.9308 13.8175 40.8894 13.8016C40.8479 13.7857 40.8103 13.762 40.7786 13.732C40.747 13.702 40.722 13.6663 40.7051 13.6269C40.6882 13.5876 40.6798 13.5454 40.6803 13.5029V10.3368C40.6798 10.2943 40.6882 10.2521 40.7051 10.2128C40.722 10.1734 40.747 10.1377 40.7786 10.1077C40.8103 10.0777 40.8479 10.054 40.8894 10.0381C40.9308 10.0222 40.9752 10.0144 41.0198 10.0151H41.6785C41.723 10.0146 41.7672 10.0225 41.8085 10.0385C41.8498 10.0545 41.8873 10.0782 41.9188 10.1082C41.9503 10.1381 41.9752 10.1738 41.992 10.2131C42.0088 10.2524 42.0171 10.2944 42.0166 10.3368V12.0077L43.2918 10.227C43.3368 10.1675 43.3924 10.1159 43.4561 10.0745C43.5186 10.0336 43.5934 10.0127 43.6693 10.0151H44.4447C44.4892 10.0146 44.5335 10.0225 44.5747 10.0385C44.616 10.0545 44.6535 10.0782 44.685 10.1082C44.7165 10.1381 44.7414 10.1738 44.7582 10.2131C44.775 10.2524 44.7834 10.2944 44.7828 10.3368V13.508C44.7834 13.5504 44.775 13.5925 44.7582 13.6318C44.7414 13.6711 44.7165 13.7067 44.685 13.7367C44.6535 13.7667 44.616 13.7904 44.5747 13.8064C44.5335 13.8224 44.4892 13.8303 44.4447 13.8298H43.7806Z" fill="#0073E6"/>
<path d="M47.0952 15.2027C47.0957 15.2451 47.0874 15.2871 47.0706 15.3264C47.0538 15.3657 47.0289 15.4014 46.9974 15.4313C46.9659 15.4613 46.9284 15.485 46.8871 15.501C46.8458 15.517 46.8016 15.5249 46.7571 15.5244H46.0971C46.0525 15.5249 46.0083 15.517 45.967 15.501C45.9258 15.485 45.8883 15.4613 45.8568 15.4313C45.8252 15.4014 45.8004 15.3657 45.7836 15.3264C45.7668 15.2871 45.7584 15.2451 45.7589 15.2027V10.336C45.7584 10.2936 45.7668 10.2515 45.7836 10.2123C45.8004 10.173 45.8252 10.1373 45.8568 10.1073C45.8883 10.0773 45.9258 10.0537 45.967 10.0377C46.0083 10.0217 46.0525 10.0137 46.0971 10.0142H46.8005C46.8394 10.0134 46.878 10.02 46.9141 10.0337C46.9501 10.0474 46.9829 10.0679 47.0105 10.094C47.038 10.12 47.0597 10.1511 47.0743 10.1854C47.0888 10.2197 47.0959 10.2564 47.0952 10.2934C47.229 10.1796 47.383 10.0894 47.5501 10.0272C47.7593 9.94719 47.9833 9.90808 48.2088 9.91215C48.4618 9.9091 48.7125 9.95848 48.9434 10.0569C49.162 10.1497 49.3556 10.2884 49.5097 10.4627C49.6686 10.6464 49.791 10.8562 49.8709 11.0816C49.9585 11.3316 50.0021 11.5936 50 11.857C50.0006 12.1361 49.9458 12.4127 49.8384 12.6724C49.7389 12.9162 49.5903 13.1392 49.4011 13.3289C49.2089 13.5185 48.9778 13.6685 48.7221 13.7695C48.4411 13.8801 48.1394 13.9351 47.8353 13.9311C47.6989 13.9311 47.5627 13.9212 47.4279 13.9013C47.3098 13.8862 47.1942 13.8562 47.0843 13.8122L47.0952 15.2027ZM47.0952 12.6C47.1823 12.6513 47.2771 12.6897 47.3763 12.7138C47.4887 12.7365 47.6036 12.7465 47.7185 12.7435C47.8392 12.7526 47.9605 12.7349 48.0727 12.6916C48.185 12.6483 48.285 12.5806 48.3649 12.4941C48.5066 12.3213 48.5805 12.107 48.5741 11.888C48.5806 11.6845 48.5091 11.4856 48.3731 11.3285C48.3008 11.2505 48.2107 11.1893 48.1097 11.1497C48.0087 11.11 47.8995 11.0929 47.7905 11.0997C47.6557 11.1047 47.5237 11.1376 47.4036 11.1961C47.2836 11.2546 47.1783 11.3372 47.0952 11.4383V12.6Z" fill="#0073E6"/>
</g>
<defs>
<clipPath id="clip0_1256_2280">
<rect width="50" height="14.7059" fill="white" transform="translate(-0.00012207 0.82019)"/>
</clipPath>
</defs>
</svg>
