<svg width="68" height="21" viewBox="0 0 68 21" fill="none" xmlns="http://www.w3.org/2000/svg">
<g opacity="0.3" clip-path="url(#clip0_1256_17041)">
<path d="M24.6688 5.49093C24.5369 4.78738 24.339 4.09647 24.0777 3.42648C23.8261 2.75047 23.5109 2.09751 23.1357 1.47557C23.0039 1.25936 22.8046 1.08756 22.5655 0.983981C22.3265 0.880403 22.0594 0.850187 21.8015 0.897522C21.0638 1.04347 20.3386 1.24187 19.632 1.49105C18.9248 1.72899 18.2372 2.01651 17.5747 2.35124C17.3451 2.4711 17.1603 2.65576 17.0457 2.87977C16.9311 3.10377 16.8923 3.35609 16.9347 3.60195C17.0644 4.3086 17.2617 5.00249 17.524 5.67501C17.7763 6.3507 18.0916 7.0036 18.466 7.62592C18.5992 7.84086 18.7993 8.01111 19.0387 8.11312C19.278 8.21514 19.5447 8.24387 19.802 8.19536C20.5354 8.04889 21.2564 7.8505 21.9588 7.60183C22.6669 7.36457 23.3552 7.07703 24.018 6.74164C24.2495 6.62329 24.4366 6.43928 24.5532 6.21515C24.6699 5.99102 24.7103 5.7379 24.6688 5.49093Z" fill="#F72A16"/>
<path d="M32.7565 2.12558C32.0687 1.84009 31.3599 1.60263 30.6359 1.41506C29.9153 1.21818 29.1805 1.07212 28.4375 0.978086C28.1773 0.948552 27.914 0.996571 27.6837 1.11552C27.4535 1.23446 27.2677 1.41847 27.152 1.64215C26.826 2.28872 26.5634 2.96252 26.3674 3.65499C26.1576 4.34404 26.0153 5.05013 25.9426 5.76417C25.9191 6.01291 25.9775 6.26242 26.1097 6.47818C26.2418 6.69394 26.4412 6.86526 26.6802 6.96844C27.3673 7.25375 28.0755 7.49065 28.799 7.67723C29.52 7.87522 30.2554 8.02185 30.9992 8.11593C31.2597 8.14584 31.5234 8.098 31.754 7.97903C31.9846 7.86007 32.1707 7.67585 32.2865 7.45186C32.6109 6.80465 32.8735 6.13099 33.0711 5.43902C33.2792 4.74957 33.4214 4.04364 33.4959 3.32984C33.5192 3.08091 33.4606 2.83126 33.3281 2.61548C33.1956 2.3997 32.9958 2.22848 32.7565 2.12558Z" fill="#FABC22"/>
<path d="M42.4233 5.49069C42.2931 4.78677 42.0952 4.09571 41.8321 3.42624C41.5814 2.74994 41.2661 2.09691 40.8902 1.47533C40.7596 1.25804 40.5605 1.08532 40.3211 0.981588C40.0816 0.877858 39.814 0.848367 39.556 0.897285C38.8219 1.0437 38.1004 1.2421 37.3974 1.49081C36.6902 1.72875 36.0025 2.01627 35.34 2.351C35.1101 2.47062 34.9249 2.65517 34.81 2.87919C34.695 3.10322 34.656 3.35567 34.6982 3.60172C34.8288 4.30837 35.0266 5.00225 35.2894 5.67477C35.5401 6.35107 35.8554 7.0041 36.2313 7.62568C36.3632 7.84139 36.5629 8.01234 36.8022 8.11448C37.0415 8.21662 37.3085 8.24482 37.5655 8.19512C38.2996 8.04871 39.0211 7.85031 39.7241 7.60159C40.4316 7.3644 41.1194 7.07686 41.7815 6.74141C42.0114 6.62179 42.1966 6.43724 42.3115 6.21322C42.4265 5.98919 42.4656 5.73674 42.4233 5.49069Z" fill="#06C92E"/>
<path d="M50.512 2.12558C49.8241 1.84035 49.1153 1.60289 48.3914 1.41506C47.6703 1.21797 46.9349 1.07192 46.1912 0.978086C45.931 0.948552 45.6677 0.996571 45.4374 1.11552C45.2072 1.23446 45.0214 1.41847 44.9057 1.64215C44.5799 2.28898 44.3167 2.96271 44.1193 3.65499C43.9112 4.34444 43.769 5.05037 43.6944 5.76417C43.6711 6.0131 43.7298 6.26276 43.8623 6.47854C43.9948 6.69432 44.1945 6.86553 44.4339 6.96844C45.1207 7.25431 45.829 7.49122 46.5527 7.67723C47.2736 7.87539 48.0091 8.02203 48.7529 8.11593C49.0131 8.14546 49.2764 8.09745 49.5067 7.9785C49.7369 7.85956 49.9227 7.67555 50.0383 7.45187C50.3644 6.8053 50.627 6.1315 50.823 5.43902C51.0311 4.74957 51.1732 4.04364 51.2478 3.32984C51.2714 3.0813 51.2133 2.83193 51.0815 2.61619C50.9497 2.40046 50.7507 2.22902 50.512 2.12558Z" fill="#00C2FC"/>
<path d="M2.39021 18.8946C2.39094 18.951 2.37979 19.007 2.35743 19.0593C2.33506 19.1116 2.30193 19.1591 2.25999 19.199C2.21804 19.2389 2.16812 19.2705 2.11318 19.2918C2.05823 19.313 1.99937 19.3236 1.94005 19.323H1.18073C1.12134 19.3242 1.06231 19.3138 1.00728 19.2925C0.952253 19.2712 0.902382 19.2394 0.860736 19.1991C0.818369 19.1595 0.784967 19.112 0.762582 19.0596C0.740197 19.0073 0.729302 18.9511 0.730568 18.8946V17.0452C0.729302 16.9887 0.740197 16.9325 0.762582 16.8801C0.784967 16.8278 0.818369 16.7803 0.860736 16.7407C0.902382 16.7004 0.952253 16.6686 1.00728 16.6473C1.06231 16.626 1.12134 16.6156 1.18073 16.6168H1.41937C1.52995 16.4741 1.62107 16.3186 1.69056 16.154C1.77391 15.9614 1.8416 15.763 1.89304 15.5605C1.95036 15.341 1.99561 15.1187 2.02863 14.8947C2.06479 14.6659 2.0901 14.4371 2.10637 14.2066L2.15338 13.5408C2.15995 13.4249 2.21302 13.3159 2.30163 13.2363C2.38918 13.1554 2.50685 13.1109 2.62886 13.1124H5.9608C6.0202 13.1112 6.07922 13.1216 6.13425 13.1429C6.18928 13.1642 6.23915 13.196 6.2808 13.2363C6.32376 13.2756 6.35767 13.3229 6.38038 13.3753C6.4031 13.4278 6.41413 13.4841 6.41278 13.5408V16.6151H6.85029C6.90968 16.6139 6.96871 16.6242 7.02374 16.6455C7.07877 16.6669 7.12864 16.6986 7.17028 16.739C7.21347 16.7784 7.24751 16.8261 7.27024 16.8788C7.29296 16.9315 7.30387 16.9882 7.30226 17.0452V18.8963C7.30362 18.953 7.29259 19.0093 7.26987 19.0617C7.24715 19.1142 7.21324 19.1615 7.17028 19.2008C7.12864 19.2411 7.07877 19.2729 7.02374 19.2942C6.96871 19.3155 6.90968 19.3259 6.85029 19.3247H6.09097C6.03165 19.3254 5.97279 19.3148 5.91784 19.2935C5.8629 19.2722 5.81298 19.2407 5.77103 19.2008C5.72909 19.1608 5.69595 19.1133 5.67359 19.0611C5.65122 19.0088 5.64008 18.9528 5.64081 18.8963V18.1961H2.3866L2.39021 18.8946ZM4.632 14.6951H3.83834L3.81483 14.8981C3.77458 15.2579 3.69892 15.6133 3.58885 15.9596C3.51754 16.1902 3.41418 16.4106 3.2815 16.6151H4.632V14.6951Z" fill="#0073E6"/>
<path d="M9.61515 16.2192C9.65265 16.3325 9.71333 16.4377 9.79369 16.5286C9.87405 16.6195 9.9725 16.6945 10.0834 16.7491C10.3237 16.8665 10.5907 16.9256 10.8608 16.9211C11.0356 16.9223 11.2103 16.9108 11.3833 16.8867C11.5331 16.8645 11.6798 16.8264 11.8208 16.7731C11.9048 16.744 11.9935 16.7289 12.0829 16.7284C12.1689 16.7245 12.2542 16.7449 12.3279 16.7872C12.4016 16.8295 12.4605 16.8916 12.4969 16.9658L12.6777 17.3271C12.7104 17.3902 12.7265 17.4598 12.7247 17.5301C12.7295 17.6044 12.713 17.6785 12.6771 17.7445C12.6411 17.8106 12.587 17.8661 12.5204 17.9052C12.2274 18.0662 11.9095 18.1823 11.5785 18.2492C11.2775 18.3029 10.9718 18.3294 10.6655 18.3284C10.257 18.3343 9.85075 18.269 9.4669 18.1357C9.12815 18.0204 8.8197 17.8366 8.56283 17.5969C8.30595 17.3572 8.10677 17.0674 7.97901 16.7473C7.84048 16.3985 7.77359 16.0277 7.78195 15.6549C7.78002 15.3012 7.85064 14.9506 7.98986 14.6227C8.1237 14.3058 8.32077 14.0166 8.57019 13.7711C8.82648 13.5217 9.13425 13.3255 9.47413 13.1948C9.85578 13.0495 10.2635 12.9764 10.6746 12.9797C11.0089 12.9802 11.3403 13.0385 11.6526 13.1518C11.9601 13.2592 12.2421 13.4235 12.4825 13.6352C12.722 13.8494 12.9155 14.1059 13.052 14.3904C13.1977 14.6991 13.2706 15.0344 13.2653 15.3728C13.2689 15.5455 13.2568 15.7182 13.2291 15.8889C13.2088 15.98 13.1565 16.0619 13.0809 16.1211C13.013 16.1858 12.922 16.2239 12.826 16.2278L9.61515 16.2192ZM11.4773 15.0906C11.4736 14.9095 11.395 14.737 11.2585 14.6106C11.1726 14.5331 11.0707 14.4735 10.9593 14.4356C10.8479 14.3977 10.7293 14.3823 10.6113 14.3904C10.3675 14.3753 10.1254 14.4389 9.9243 14.5711C9.75634 14.7083 9.63126 14.8869 9.56272 15.0872L11.4773 15.0906Z" fill="#0073E6"/>
<path d="M15.7234 18.1944C15.664 18.1956 15.605 18.1852 15.5499 18.1639C15.4949 18.1426 15.445 18.1108 15.4034 18.0705C15.3604 18.0312 15.3265 17.9838 15.3038 17.9314C15.2811 17.879 15.27 17.8227 15.2714 17.766V14.8087H14.1867C14.1273 14.8099 14.0682 14.7995 14.0132 14.7782C13.9582 14.7569 13.9083 14.7251 13.8667 14.6848C13.824 14.6454 13.7903 14.598 13.7679 14.5456C13.7455 14.4932 13.7348 14.4369 13.7365 14.3803V13.5442C13.7348 13.4876 13.7455 13.4313 13.7679 13.3789C13.7903 13.3265 13.824 13.2791 13.8667 13.2397C13.9083 13.1994 13.9582 13.1676 14.0132 13.1463C14.0682 13.125 14.1273 13.1146 14.1867 13.1158H18.1423C18.2017 13.1151 18.2605 13.1257 18.3155 13.147C18.3704 13.1683 18.4203 13.1998 18.4623 13.2397C18.5042 13.2797 18.5374 13.3272 18.5597 13.3794C18.5821 13.4317 18.5932 13.4877 18.5925 13.5442V14.3803C18.5932 14.4367 18.5821 14.4928 18.5597 14.545C18.5374 14.5973 18.5042 14.6448 18.4623 14.6847C18.4203 14.7247 18.3704 14.7562 18.3155 14.7775C18.2605 14.7988 18.2017 14.8094 18.1423 14.8087H17.0576V17.766C17.0578 17.8225 17.0463 17.8784 17.0237 17.9306C17.001 17.9828 16.9677 18.0302 16.9256 18.07C16.8836 18.1099 16.8337 18.1414 16.7787 18.1627C16.7238 18.1841 16.665 18.1948 16.6056 18.1944H15.7234Z" fill="#0073E6"/>
<path d="M22.9117 14.7636C22.6591 14.636 22.3786 14.5665 22.0927 14.5606C21.9511 14.5607 21.8106 14.5833 21.6769 14.6277C21.5434 14.6743 21.4207 14.745 21.3153 14.8359C21.203 14.9325 21.1121 15.0495 21.0477 15.1799C20.9776 15.3292 20.943 15.4913 20.9465 15.6548C20.9434 15.815 20.9806 15.9737 21.055 16.1175C21.1862 16.3768 21.4183 16.5774 21.7022 16.6767C21.837 16.7242 21.9797 16.7486 22.1234 16.7489C22.4192 16.7433 22.7071 16.6574 22.9533 16.5012C23.0505 16.4354 23.1667 16.4 23.2859 16.3997C23.3563 16.3986 23.4259 16.4136 23.4888 16.4436C23.5518 16.4735 23.6062 16.5175 23.6475 16.5717L24.0091 17.0345C24.0702 17.1125 24.1032 17.2073 24.1031 17.3046C24.1053 17.3751 24.0891 17.4449 24.0559 17.508C24.0228 17.571 23.9738 17.6253 23.9133 17.6659C23.6184 17.9055 23.276 18.0863 22.9063 18.1975C22.6121 18.277 22.3081 18.3187 22.0023 18.3213C21.5844 18.3269 21.1687 18.2616 20.7748 18.1287C20.426 18.0127 20.1069 17.828 19.8383 17.5867C19.5769 17.3501 19.3743 17.0609 19.2453 16.7403C19.1028 16.3917 19.0322 16.0202 19.0374 15.6462C19.0357 15.2932 19.1038 14.943 19.238 14.6139C19.3692 14.297 19.5646 14.0076 19.813 13.7623C20.0697 13.5135 20.3774 13.3173 20.7169 13.186C21.0818 13.0445 21.4727 12.9738 21.8667 12.9778C22.1898 12.975 22.5123 13.0055 22.8285 13.069C23.1515 13.1444 23.4577 13.2744 23.7325 13.4527C23.809 13.4902 23.8737 13.5465 23.9197 13.6158C23.9658 13.685 23.9917 13.7647 23.9946 13.8466C23.9934 13.9236 23.9682 13.9984 23.9223 14.0617L23.5788 14.6036C23.5399 14.6728 23.4817 14.7305 23.4105 14.7703C23.3394 14.81 23.2581 14.8303 23.1756 14.829C23.0829 14.8312 22.9915 14.8086 22.9117 14.7636Z" fill="#0073E6"/>
<path d="M26.8962 15.7687V17.7661C26.8969 17.8225 26.8858 17.8785 26.8634 17.9308C26.841 17.9831 26.8079 18.0306 26.766 18.0705C26.724 18.1105 26.6741 18.142 26.6192 18.1633C26.5642 18.1845 26.5053 18.1952 26.446 18.1945H25.5674C25.5081 18.1952 25.4492 18.1845 25.3943 18.1633C25.3393 18.142 25.2894 18.1105 25.2475 18.0705C25.2055 18.0306 25.1724 17.9831 25.15 17.9308C25.1276 17.8785 25.1165 17.8225 25.1172 17.7661V13.5443C25.1165 13.4878 25.1276 13.4318 25.15 13.3795C25.1724 13.3272 25.2055 13.2798 25.2475 13.2398C25.2894 13.1999 25.3393 13.1684 25.3943 13.1471C25.4492 13.1258 25.5081 13.1152 25.5674 13.1159H26.446C26.5053 13.1152 26.5642 13.1258 26.6192 13.1471C26.6741 13.1684 26.724 13.1999 26.766 13.2398C26.8079 13.2798 26.841 13.3272 26.8634 13.3795C26.8858 13.4318 26.8969 13.4878 26.8962 13.5443V15.3249L28.272 13.3946C28.3364 13.3105 28.4198 13.2411 28.5161 13.1916C28.6111 13.1393 28.719 13.112 28.8288 13.1125H29.6568C29.7189 13.1108 29.7806 13.1219 29.8377 13.1451C29.8948 13.1683 29.946 13.2029 29.9877 13.2467C30.0655 13.3204 30.1122 13.4188 30.1189 13.5231C30.1255 13.6275 30.0917 13.7305 30.0238 13.8127L28.7583 15.392L29.3387 16.1489C29.4896 16.3736 29.7147 16.5443 29.9786 16.6341C30.1163 16.6505 30.2439 16.7112 30.3402 16.8061C30.4088 16.9192 30.4396 17.0493 30.4288 17.1794V17.8676C30.4275 17.96 30.3894 18.0486 30.3221 18.1153C30.2577 18.1864 30.1697 18.2344 30.0727 18.2512C30.0094 18.2512 29.9497 18.265 29.8919 18.2684C29.834 18.2719 29.778 18.2684 29.7111 18.2684C29.5616 18.2675 29.4127 18.2525 29.2663 18.2237C29.1046 18.1907 28.9487 18.1357 28.8035 18.0603C28.6416 17.9701 28.4927 17.8602 28.3606 17.7334C28.1852 17.5649 28.0284 17.3799 27.8923 17.1812L26.8962 15.7687Z" fill="#0073E6"/>
<path d="M35.5787 18.1945C35.5194 18.1952 35.4605 18.1846 35.4056 18.1633C35.3506 18.142 35.3007 18.1105 35.2588 18.0706C35.2168 18.0307 35.1837 17.9832 35.1613 17.9309C35.139 17.8786 35.1278 17.8226 35.1285 17.7661V15.5417L33.4327 17.9055C33.3734 17.9853 33.2993 18.0541 33.214 18.1085C33.1276 18.1623 33.0261 18.1899 32.9229 18.1876H31.9032C31.8436 18.1888 31.7843 18.1784 31.729 18.1571C31.6737 18.1358 31.6235 18.104 31.5814 18.0638C31.5391 18.0241 31.5057 17.9767 31.4833 17.9243C31.4609 17.8719 31.45 17.8158 31.4513 17.7593V13.5443C31.45 13.4878 31.4609 13.4316 31.4833 13.3793C31.5057 13.3269 31.5391 13.2795 31.5814 13.2398C31.6235 13.1995 31.6737 13.1678 31.729 13.1465C31.7843 13.1252 31.8436 13.1148 31.9032 13.116H32.7801C32.8394 13.1153 32.8983 13.1259 32.9532 13.1472C33.0081 13.1684 33.0581 13.2 33.1 13.2399C33.142 13.2798 33.1751 13.3273 33.1975 13.3796C33.2198 13.4319 33.231 13.4879 33.2302 13.5443V15.7688L34.9279 13.3981C34.9862 13.3193 35.0584 13.2506 35.1412 13.1951C35.2245 13.1406 35.324 13.1128 35.425 13.116H36.4573C36.5167 13.1153 36.5755 13.1259 36.6305 13.1472C36.6854 13.1684 36.7353 13.2 36.7773 13.2399C36.8192 13.2798 36.8524 13.3273 36.8747 13.3796C36.8971 13.4319 36.9082 13.4879 36.9075 13.5443V17.7661C36.9082 17.8226 36.8971 17.8786 36.8747 17.9309C36.8524 17.9832 36.8192 18.0307 36.7773 18.0706C36.7353 18.1105 36.6854 18.142 36.6305 18.1633C36.5755 18.1846 36.5167 18.1952 36.4573 18.1945H35.5787Z" fill="#0073E6"/>
<path d="M42.3403 18.1938C42.281 18.1945 42.2222 18.1839 42.1672 18.1626C42.1123 18.1413 42.0624 18.1098 42.0204 18.0699C41.9785 18.0299 41.9453 17.9824 41.923 17.9302C41.9006 17.8779 41.8894 17.8219 41.8902 17.7654V15.541L40.1944 17.9048C40.1344 17.9846 40.0597 18.0534 39.9738 18.1078C39.8881 18.1616 39.7872 18.1893 39.6845 18.1869H38.6631C38.6038 18.1876 38.5449 18.177 38.49 18.1557C38.435 18.1344 38.3851 18.1029 38.3432 18.063C38.3012 18.0231 38.2681 17.9756 38.2457 17.9233C38.2233 17.871 38.2122 17.815 38.2129 17.7585V13.5436C38.2122 13.4872 38.2233 13.4311 38.2457 13.3789C38.2681 13.3266 38.3012 13.2791 38.3432 13.2391C38.3851 13.1992 38.435 13.1677 38.49 13.1464C38.5449 13.1251 38.6038 13.1145 38.6631 13.1152H39.5417C39.601 13.1145 39.6599 13.1251 39.7149 13.1464C39.7698 13.1677 39.8197 13.1992 39.8617 13.2391C39.9036 13.2791 39.9367 13.3266 39.9591 13.3789C39.9815 13.4311 39.9926 13.4872 39.9919 13.5436V15.768L41.6877 13.3974C41.7466 13.319 41.8186 13.2504 41.901 13.1944C41.9852 13.1401 42.0851 13.1124 42.1867 13.1152H43.2172C43.2765 13.1145 43.3354 13.1251 43.3903 13.1464C43.4452 13.1677 43.4952 13.1992 43.5371 13.2391C43.5791 13.2791 43.6122 13.3266 43.6346 13.3789C43.6569 13.4311 43.6681 13.4872 43.6673 13.5436V17.7654C43.6681 17.8219 43.6569 17.8779 43.6346 17.9302C43.6122 17.9824 43.5791 18.0299 43.5371 18.0699C43.4952 18.1098 43.4452 18.1413 43.3903 18.1626C43.3354 18.1839 43.2765 18.1945 43.2172 18.1938H42.3403ZM42.08 10.8908C42.1796 10.884 42.2797 10.8977 42.3732 10.9309C42.4668 10.9642 42.5518 11.0162 42.6224 11.0835C42.7475 11.2203 42.8123 11.3978 42.8032 11.5789C42.7996 11.7301 42.7557 11.8778 42.6757 12.0084C42.5957 12.139 42.4822 12.2481 42.3458 12.3256C42.042 12.5286 41.5895 12.6301 40.988 12.6301C40.3245 12.6301 39.8473 12.5286 39.5598 12.3256C39.4285 12.2447 39.3203 12.1342 39.2446 12.004C39.1689 11.8737 39.1281 11.7277 39.1259 11.5789C39.1181 11.398 39.1827 11.2209 39.3067 11.0835C39.4409 10.9729 39.6089 10.9062 39.7859 10.8932C39.963 10.8802 40.1397 10.9215 40.2902 11.0112C40.3867 11.0938 40.4568 11.2005 40.4927 11.3192C40.5269 11.4145 40.5838 11.5011 40.659 11.572C40.7516 11.6446 40.8703 11.6798 40.9898 11.6701C41.0437 11.6745 41.098 11.668 41.1491 11.6511C41.2002 11.6342 41.2469 11.6073 41.2863 11.572C41.3544 11.4978 41.4071 11.412 41.4418 11.3192C41.477 11.2006 41.5465 11.0939 41.6425 11.0112C41.7684 10.9224 41.9237 10.8796 42.08 10.8908Z" fill="#0073E6"/>
<path d="M49.1233 17.766C49.1265 17.8232 49.1173 17.8803 49.0961 17.9339C49.075 17.9875 49.0424 18.0364 49.0004 18.0774C48.9583 18.1177 48.9081 18.1494 48.8528 18.1707C48.7975 18.192 48.7382 18.2024 48.6786 18.2012H47.8018C47.7424 18.2019 47.6836 18.1913 47.6286 18.1701C47.5737 18.1488 47.5238 18.1172 47.4818 18.0773C47.4399 18.0374 47.4067 17.9899 47.3844 17.9376C47.362 17.8853 47.3509 17.8293 47.3516 17.7729V13.5442C47.3509 13.4877 47.362 13.4317 47.3844 13.3794C47.4067 13.3272 47.4399 13.2797 47.4818 13.2397C47.5238 13.1998 47.5737 13.1683 47.6286 13.147C47.6836 13.1257 47.7424 13.1151 47.8018 13.1158H48.6388C48.7438 13.1181 48.847 13.1425 48.9408 13.1875C49.0346 13.2324 49.1167 13.2967 49.1812 13.3756L50.5443 14.8431L51.8099 13.3859C51.876 13.3073 51.9562 13.2403 52.0467 13.1881C52.1369 13.1391 52.2393 13.1141 52.3432 13.1158H53.1369C53.1962 13.1146 53.2553 13.125 53.3103 13.1463C53.3653 13.1676 53.4152 13.1994 53.4568 13.2397C53.4998 13.279 53.5337 13.3263 53.5564 13.3788C53.5792 13.4312 53.5902 13.4875 53.5888 13.5442V17.766C53.5902 17.8227 53.5792 17.879 53.5564 17.9314C53.5337 17.9838 53.4998 18.0312 53.4568 18.0705C53.4152 18.1108 53.3653 18.1426 53.3103 18.1639C53.2553 18.1852 53.1962 18.1956 53.1369 18.1944H52.2546C52.1953 18.1951 52.1364 18.1845 52.0815 18.1632C52.0265 18.1419 51.9766 18.1104 51.9347 18.0704C51.8927 18.0305 51.8596 17.983 51.8372 17.9307C51.8149 17.8785 51.8037 17.8224 51.8044 17.766V15.7015L50.7956 16.7854C50.7576 16.8281 50.7103 16.8624 50.6569 16.8859C50.6035 16.9094 50.5453 16.9215 50.4865 16.9213C50.4291 16.9217 50.3722 16.9109 50.3194 16.8896C50.2665 16.8683 50.2188 16.8369 50.1791 16.7974L49.1233 15.7015V17.766Z" fill="#0073E6"/>
<path d="M59.0142 18.1945C58.9549 18.1952 58.896 18.1846 58.841 18.1633C58.7861 18.142 58.7362 18.1105 58.6942 18.0706C58.6523 18.0307 58.6192 17.9832 58.5968 17.9309C58.5744 17.8786 58.5633 17.8226 58.564 17.7661V15.5417L56.8682 17.9055C56.8084 17.9849 56.7343 18.0536 56.6495 18.1085C56.5631 18.1623 56.4616 18.1899 56.3584 18.1876H55.3387C55.2793 18.1886 55.2202 18.1781 55.165 18.1569C55.1099 18.1358 55.0598 18.1043 55.0176 18.0643C54.9755 18.0244 54.9422 17.9768 54.9197 17.9244C54.8972 17.872 54.886 17.8159 54.8868 17.7593V13.5443C54.886 13.4877 54.8972 13.4316 54.9197 13.3792C54.9422 13.3268 54.9755 13.2792 55.0176 13.2393C55.0598 13.1993 55.1099 13.1678 55.165 13.1467C55.2202 13.1255 55.2793 13.115 55.3387 13.116H56.2156C56.2749 13.1153 56.3337 13.1259 56.3887 13.1472C56.4436 13.1684 56.4935 13.2 56.5355 13.2399C56.5774 13.2798 56.6106 13.3273 56.6329 13.3796C56.6553 13.4319 56.6664 13.4879 56.6657 13.5443V15.7688L58.3633 13.3981C58.4233 13.3189 58.4973 13.2502 58.5821 13.1951C58.6654 13.1406 58.7649 13.1128 58.8659 13.116H59.8982C59.9576 13.1153 60.0164 13.1259 60.0714 13.1472C60.1263 13.1684 60.1762 13.2 60.2182 13.2399C60.2601 13.2798 60.2933 13.3273 60.3156 13.3796C60.338 13.4319 60.3491 13.4879 60.3484 13.5443V17.7661C60.3491 17.8226 60.338 17.8786 60.3156 17.9309C60.2933 17.9832 60.2601 18.0307 60.2182 18.0706C60.1762 18.1105 60.1263 18.142 60.0714 18.1633C60.0164 18.1846 59.9576 18.1952 59.8982 18.1945H59.0142Z" fill="#0073E6"/>
<path d="M63.4294 20.0222C63.4301 20.0787 63.419 20.1347 63.3966 20.187C63.3742 20.2393 63.3411 20.2868 63.2992 20.3267C63.2572 20.3666 63.2073 20.3981 63.1524 20.4194C63.0974 20.4407 63.0385 20.4513 62.9792 20.4506H62.1006C62.0413 20.4513 61.9824 20.4407 61.9275 20.4194C61.8725 20.3981 61.8226 20.3666 61.7807 20.3267C61.7387 20.2868 61.7056 20.2393 61.6832 20.187C61.6608 20.1347 61.6497 20.0787 61.6504 20.0222V13.5433C61.6497 13.4869 61.6608 13.4308 61.6832 13.3786C61.7056 13.3263 61.7387 13.2788 61.7807 13.2389C61.8226 13.1989 61.8725 13.1674 61.9275 13.1461C61.9824 13.1248 62.0413 13.1142 62.1006 13.1149H63.0371C63.0888 13.1138 63.1402 13.1226 63.1882 13.1408C63.2363 13.159 63.2799 13.1863 63.3166 13.2211C63.3532 13.2558 63.3821 13.2972 63.4015 13.3428C63.4209 13.3884 63.4304 13.4373 63.4294 13.4865C63.6075 13.335 63.8126 13.215 64.035 13.1321C64.3136 13.0257 64.6118 12.9736 64.9119 12.979C65.2487 12.975 65.5825 13.0407 65.8899 13.1717C66.1809 13.2953 66.4386 13.48 66.6438 13.7119C66.8554 13.9565 67.0184 14.2358 67.1247 14.536C67.2413 14.8687 67.2993 15.2175 67.2965 15.5682C67.2974 15.9397 67.2244 16.308 67.0813 16.6537C66.9489 16.9783 66.7512 17.2752 66.4992 17.5277C66.2434 17.7802 65.9357 17.9799 65.5952 18.1143C65.2212 18.2616 64.8195 18.3347 64.4147 18.3294C64.2331 18.3294 64.0518 18.3162 63.8723 18.2898C63.715 18.2697 63.5612 18.2297 63.4149 18.1711L63.4294 20.0222ZM63.4294 16.5574C63.5453 16.6257 63.6715 16.6767 63.8036 16.7088C63.9533 16.7391 64.1062 16.7524 64.2592 16.7484C64.4199 16.7606 64.5814 16.7369 64.7308 16.6792C64.8802 16.6216 65.0134 16.5316 65.1198 16.4163C65.3084 16.1864 65.4068 15.9011 65.3982 15.6095C65.4068 15.3385 65.3117 15.0738 65.1306 14.8646C65.0344 14.7607 64.9145 14.6793 64.78 14.6265C64.6456 14.5737 64.5002 14.551 64.355 14.56C64.1756 14.5667 63.9999 14.6105 63.84 14.6883C63.6802 14.7662 63.54 14.8762 63.4294 15.0108V16.5574Z" fill="#0073E6"/>
</g>
<defs>
<clipPath id="clip0_1256_17041">
<rect width="66.5648" height="19.5779" fill="white" transform="translate(0.732422 0.873047)"/>
</clipPath>
</defs>
</svg>
