<svg width="56" height="22" viewBox="0 0 56 22" fill="none" xmlns="http://www.w3.org/2000/svg">
<g clip-path="url(#clip0_1256_17092)">
<path d="M7.29957 5.01111C3.3584 5.01111 0.0742188 6.59924 0.0742188 11.3906C0.0742188 15.1863 2.28259 17.5767 7.40133 17.5767C13.4263 17.5767 13.8126 13.807 13.8126 13.807H10.8932C10.8932 13.807 10.2672 15.8369 7.22324 15.8369C4.74401 15.8369 2.96085 14.2461 2.96085 12.0164H14.1179V10.6173C14.1179 8.41146 12.6436 5.01111 7.29957 5.01111ZM7.1978 6.79929C9.55778 6.79929 11.1667 8.1725 11.1667 10.2307H3.02542C3.02542 8.04568 5.12542 6.79929 7.1978 6.79929Z" fill="#E53238"/>
<path d="M14.1178 0.370972V15.17C14.1178 16.01 14.0547 17.1895 14.0547 17.1895H16.8392C16.8392 17.1895 16.9391 16.3424 16.9391 15.5682C16.9391 15.5682 18.3148 17.6124 22.0555 17.6124C25.9946 17.6124 28.6703 15.0149 28.6703 11.2934C28.6703 7.83131 26.2126 5.04682 22.0619 5.04682C18.175 5.04682 16.9672 7.0404 16.9672 7.0404V0.370972H14.1178ZM21.3432 6.87729C24.0181 6.87729 25.7191 8.76294 25.7191 11.2934C25.7191 14.0068 23.7545 15.782 21.3622 15.782C18.5073 15.782 16.9672 13.6647 16.9672 11.3175C16.9672 9.13047 18.3492 6.87729 21.3432 6.87729Z" fill="#0064D2"/>
<path d="M35.5886 5.01111C29.6594 5.01111 29.2792 8.09472 29.2792 8.58747H32.2304C32.2304 8.58747 32.3851 6.78721 35.3851 6.78721C37.3345 6.78721 38.8451 7.63471 38.8451 9.26408V9.84403H35.3851C30.7917 9.84403 28.3633 11.1204 28.3633 13.7104C28.3633 16.2593 30.607 17.6462 33.6392 17.6462C37.7715 17.6462 39.1027 15.4774 39.1027 15.4774C39.1027 16.34 39.1727 17.1901 39.1727 17.1901H41.7963C41.7963 17.1901 41.6946 16.1364 41.6946 15.4623V9.63561C41.6946 5.81513 38.4501 5.01111 35.5886 5.01111ZM38.8451 11.5839V12.3571C38.8451 13.3657 38.1899 15.8731 34.3325 15.8731C32.2201 15.8731 31.3145 14.8718 31.3145 13.7104C31.3145 11.5975 34.3644 11.5839 38.8451 11.5839Z" fill="#F5AF02"/>
<path d="M40.1074 5.49512H43.4275L48.1923 14.562L52.9462 5.49512H55.9538L47.2946 21.6371H44.1399L46.6386 17.1373L40.1074 5.49512Z" fill="#86B817"/>
</g>
<defs>
<clipPath id="clip0_1256_17092">
<rect width="55.9145" height="21.3007" fill="white" transform="translate(0.0566406 0.353882)"/>
</clipPath>
</defs>
</svg>
