<svg width="42" height="17" viewBox="0 0 42 17" fill="none" xmlns="http://www.w3.org/2000/svg">
<g clip-path="url(#clip0_1256_2331)">
<path d="M5.44183 3.62915C2.48143 3.62915 0.0145264 4.82207 0.0145264 8.42106C0.0145264 11.2723 1.67334 13.0678 5.51827 13.0678C10.0439 13.0678 10.334 10.2362 10.334 10.2362H8.14115C8.14115 10.2362 7.67097 11.7609 5.3845 11.7609C3.52223 11.7609 2.18281 10.566 2.18281 8.89119H10.5634V7.84023C10.5634 6.18332 9.45596 3.62915 5.44183 3.62915ZM5.36539 4.97234C7.13808 4.97234 8.34658 6.00383 8.34658 7.54981H2.23131C2.23131 5.90856 3.80872 4.97234 5.36539 4.97234Z" fill="#E53238"/>
<path d="M10.5615 0.14502V11.2613C10.5615 11.8923 10.514 12.7782 10.514 12.7782H12.6056C12.6056 12.7782 12.6807 12.1419 12.6807 11.5604C12.6807 11.5604 13.714 13.0959 16.5238 13.0959C19.4827 13.0959 21.4925 11.1448 21.4925 8.34936C21.4925 5.74883 19.6464 3.65727 16.5286 3.65727C13.609 3.65727 12.7018 5.15475 12.7018 5.15475V0.14502H10.5615ZM15.9888 5.03223C17.998 5.03223 19.2757 6.44862 19.2757 8.34936C19.2757 10.3875 17.8 11.7209 16.0031 11.7209C13.8586 11.7209 12.7018 10.1306 12.7018 8.36751C12.7018 6.72469 13.7398 5.03223 15.9888 5.03223Z" fill="#0064D2"/>
<path d="M26.6907 3.62915C22.237 3.62915 21.9514 5.9454 21.9514 6.31553H24.1682C24.1682 6.31553 24.2844 4.96326 26.5378 4.96326C28.0022 4.96326 29.1368 5.59986 29.1368 6.82376V7.25939H26.5378C23.0875 7.25939 21.2634 8.2181 21.2634 10.1636C21.2634 12.0782 22.9488 13.12 25.2264 13.12C28.3304 13.12 29.3303 11.4909 29.3303 11.4909C29.3303 12.1388 29.3829 12.7773 29.3829 12.7773H31.3536C31.3536 12.7773 31.2772 11.9859 31.2772 11.4795V7.10283C31.2772 4.23309 28.8401 3.62915 26.6907 3.62915ZM29.1368 8.56627V9.14711C29.1368 9.90468 28.6447 11.7881 25.7472 11.7881C24.1605 11.7881 23.4802 11.036 23.4802 10.1636C23.4802 8.57649 25.7711 8.56627 29.1368 8.56627Z" fill="#F5AF02"/>
<path d="M30.0834 3.99194H32.5773L36.1563 10.8025L39.7272 3.99194H41.9863L35.482 16.1169H33.1123L34.9892 12.7369L30.0834 3.99194Z" fill="#86B817"/>
</g>
<defs>
<clipPath id="clip0_1256_2331">
<rect width="42" height="16" fill="white" transform="translate(0 0.131226)"/>
</clipPath>
</defs>
</svg>
