<svg width="80" height="80" viewBox="0 0 80 80" fill="none" xmlns="http://www.w3.org/2000/svg">
<circle cx="40" cy="40" r="40" fill="white"/>
<path d="M27.9792 52.0208C26.4747 50.5163 27.4726 47.3577 26.7068 45.5069C25.9129 43.5883 23 42.0441 23 39.9999C23 37.9558 25.913 36.4117 26.7068 34.4931C27.4726 32.6423 26.4747 29.4837 27.9792 27.9792C29.4837 26.4747 32.6423 27.4726 34.4931 26.7068C36.4117 25.9129 37.9559 23 40.0001 23C42.0442 23 43.5883 25.913 45.5069 26.7068C47.3577 27.4726 50.5163 26.4747 52.0208 27.9792C53.5253 29.4837 52.5274 32.6423 53.2932 34.4931C54.0871 36.4117 57 37.9559 57 40.0001C57 42.0442 54.087 43.5883 53.2932 45.5069C52.5274 47.3577 53.5253 50.5163 52.0208 52.0208C50.5163 53.5253 47.3577 52.5274 45.5069 53.2932C43.5883 54.0871 42.0441 57 39.9999 57C37.9558 57 36.4117 54.087 34.4931 53.2932C32.6423 52.5274 29.4837 53.5253 27.9792 52.0208Z" stroke="#27AE60" stroke-width="2" stroke-linecap="round" stroke-linejoin="round"/>
<path d="M47.1922 36.0767L37.6024 45.2305L32.8076 40.6536" stroke="#333333" stroke-width="2" stroke-linecap="round" stroke-linejoin="round"/>
</svg>
