<svg width="202" height="60" viewBox="0 0 202 60" fill="none" xmlns="http://www.w3.org/2000/svg">
<path d="M69.8592 49.9278C69.8592 49.8195 69.7508 49.4946 69.5342 49.278C69.2093 48.9531 68.7761 48.4116 68.1263 47.87C67.5848 47.4368 66.935 47.1119 66.1768 46.787C65.2021 46.3538 64.2274 46.0289 62.9277 45.704C62.9277 45.5957 62.9277 45.5957 62.9277 45.4874C63.036 44.4043 63.0361 43.4296 62.8194 42.4549C62.6028 41.4801 62.0613 40.6137 61.4115 39.9639C61.3032 39.8556 61.3032 39.8556 61.1949 39.8556C60.5451 39.4224 60.0036 39.0975 59.462 38.8809C59.3537 38.8809 59.2454 38.7726 59.1371 38.7726H59.0288C58.7039 38.6643 58.379 38.556 58.0541 38.4477C57.6209 38.3394 57.1877 38.1227 56.7545 38.0144C55.0216 37.3646 53.1805 36.8231 51.3393 36.3899C50.3646 36.1733 49.3898 35.9567 48.4151 35.8484L45.0577 30C45.3826 29.7834 45.5992 29.5668 45.8158 29.2419C46.1407 28.7004 46.1407 27.9422 45.8158 27.4007L42.1335 21.1191C42.3501 21.0108 42.5667 20.7942 42.675 20.4693C43 19.9278 43 19.1697 42.675 18.6282L38.5595 11.5884C38.9927 11.5884 39.3176 11.3718 39.6425 11.1552C40.2924 10.5054 40.4007 9.53068 39.9675 8.77256L38.2346 6.17328L40.0758 3.79061C40.6173 3.03249 40.6173 2.05776 39.9675 1.29964C39.6426 0.866425 39.101 0.649818 38.5595 0.649818C38.2346 0.649818 37.8014 0.758122 37.5848 0.974729L35.2021 2.27437L32.8194 0.433213C32.4945 0.216606 32.0613 0 31.6281 0C31.1949 0 30.7617 0.216606 30.3285 0.541516C29.6787 1.19134 29.462 2.16606 30.0036 2.92419L31.6281 5.52346L29.787 7.90614C29.2454 8.66426 29.2454 9.63899 29.8953 10.2888C30.2202 10.722 30.7617 10.9386 31.3032 10.9386C31.4115 10.9386 31.5198 10.9386 31.6281 10.9386L27.4043 18.3032C27.0794 18.8448 27.0794 19.6029 27.4043 20.1444C27.5126 20.361 27.7292 20.5776 27.9458 20.7942L24.2635 27.0758C23.9386 27.6173 23.9386 28.3755 24.2635 28.917C24.4801 29.2419 21.6642 35.4152 21.6642 35.4152C20.7978 35.5235 19.9314 35.7401 19.1732 35.8484C18.5234 36.065 17.7653 36.1733 16.8989 36.3899C14.8411 36.9314 12.7833 37.6895 10.9422 38.4477C10.2924 38.6643 9.53425 38.9892 8.77612 39.5307C8.77612 39.5307 8.77612 39.5307 8.66782 39.639C8.1263 40.0722 7.80139 40.722 7.47648 41.3718C7.15157 42.0217 7.04327 42.7798 7.04327 43.6462C7.04327 44.296 7.04327 44.8375 7.15158 45.4874C6.71836 45.5957 6.17685 45.704 5.74363 45.9206C4.5523 46.2455 3.57757 46.6787 2.60284 47.2202C1.84472 47.6534 1.1949 48.195 0.65338 48.8448L0.545077 48.9531C0.545077 48.9531 0.436774 49.0614 0.436774 49.1697C0.00356066 49.7112 -0.104743 50.4693 0.220167 51.1191C0.545077 51.769 1.1949 52.2022 1.95302 52.2022H2.16963C2.16963 52.2022 2.16963 52.2022 2.27793 52.2022C2.38623 52.2022 2.60284 52.2022 2.71114 52.2022C3.14435 52.2022 3.68587 52.2022 4.11908 52.3105C4.87721 52.4188 5.41872 52.5271 5.85194 52.7437C5.52703 54.0433 5.09381 55.2347 4.5523 56.426C4.44399 56.6426 4.33569 56.8592 4.33569 57.0758L4.22739 57.1841C3.90248 58.0505 4.22739 59.1336 5.09381 59.5668C5.20212 59.5668 5.31042 59.6751 5.31042 59.6751C5.41872 59.6751 5.41872 59.7834 5.52703 59.7834C5.85194 59.8917 6.06854 60 6.39345 60C6.93497 60 7.58479 59.7834 7.9097 59.2419C8.018 59.1336 8.1263 59.0253 8.34291 58.917C8.77612 58.7004 9.20934 58.4838 9.96746 58.1588C11.4837 57.6173 12.9999 57.0758 14.6245 56.6426L14.8411 56.5343C16.249 56.1011 18.1985 55.5596 20.148 54.9097C20.9061 54.6931 21.6642 54.3682 22.4223 53.935C22.9639 53.6101 23.5054 53.2852 23.8303 52.7437C24.3718 52.0939 24.5884 51.444 24.5884 50.7942C24.9133 50.6859 25.3465 50.6859 25.6714 50.6859C25.7797 51.2274 26.1046 51.6606 26.5379 51.9856V53.0686C26.5379 53.7184 26.8628 54.1516 27.0794 54.4765C27.1877 54.5848 27.1877 54.5848 27.296 54.6931C27.6209 55.018 28.0541 55.1264 28.379 55.1264C28.4873 55.1264 28.4873 55.1264 28.5956 55.1264C28.7039 55.1264 28.7039 55.1264 28.8122 55.1264L41.0505 55.2347H41.1588C41.1588 55.2347 41.1588 55.2347 41.2671 55.2347C41.9169 55.2347 42.5667 55.018 43.1083 54.6931C43.9747 54.1516 44.4079 53.0686 44.4079 52.0939C44.4079 51.769 44.2996 51.444 44.1913 51.2274C44.1913 51.1191 44.1913 51.1191 44.2996 51.0108C44.2996 50.9025 44.2996 50.9025 44.2996 50.7942C44.7328 50.7942 45.0577 50.9025 45.4909 50.9025C45.4909 51.5523 45.8158 52.2022 46.2491 52.852C46.574 53.2852 47.0072 53.7184 47.5487 53.935H47.657C47.9819 54.0433 48.3068 54.2599 48.6317 54.3682L48.8483 54.4765C49.6064 54.8014 50.4729 55.0181 51.3393 55.343C52.4223 55.6679 53.6137 55.9928 54.6967 56.3177C55.5631 56.6426 56.5379 56.8592 57.4043 57.1841C58.4873 57.509 59.787 57.9422 61.0866 58.4837C61.6281 58.7004 61.953 58.917 62.1696 59.1336C62.4945 59.5668 63.036 59.7834 63.5776 59.7834C63.9025 59.7834 64.2274 59.6751 64.444 59.5668L64.7689 59.3502L64.8772 59.2419C65.7436 58.8087 66.0685 57.8339 65.7436 56.8592C65.6353 56.7509 65.6353 56.5343 65.527 56.426C64.9855 55.0181 64.5523 53.935 64.2274 52.852C64.2274 52.6354 64.1191 52.5271 64.1191 52.3105C64.3357 52.2022 64.5523 52.0939 64.7689 52.0939C65.527 51.8773 66.3934 51.769 67.2599 51.769C67.3682 51.769 67.4765 51.769 67.4765 51.769C67.5848 51.769 67.5848 51.769 67.6931 51.769H67.8014H67.9097C68.5595 51.769 69.101 51.444 69.5342 50.9025C69.9675 51.0108 70.0758 50.4693 69.8592 49.9278ZM67.8014 50.4693C67.8014 50.4693 67.9097 50.4693 68.018 50.4693C68.018 50.4693 67.9097 50.4693 67.8014 50.4693Z" fill="white"/>
<path fill-rule="evenodd" clip-rule="evenodd" d="M41.1589 53.61C40.7257 53.61 40.2924 53.3934 39.9675 52.9602C39.9675 52.8519 39.9675 52.8519 39.9675 52.7436C40.0758 52.7436 40.1841 52.6353 40.2924 52.527C40.4007 52.4187 40.509 52.527 40.509 52.6353C40.509 52.7436 40.6173 52.7436 40.6173 52.8519C40.7257 52.9602 40.834 52.9602 40.9423 53.0685C41.0506 53.0685 41.2672 53.0685 41.3755 52.8519C41.4838 52.7436 41.3755 52.527 41.2672 52.4187C41.1589 52.3104 41.1589 52.3104 41.0506 52.2021C40.9423 52.0938 40.7257 52.0938 40.6173 51.9855C40.1841 51.7688 39.9675 51.4439 40.0758 50.9024C40.1841 50.4692 40.4007 50.1443 40.834 50.036C41.3755 49.9277 41.8087 49.9277 42.1336 50.3609C42.2419 50.4692 42.2419 50.5775 42.3502 50.5775C42.3502 50.6858 42.3502 50.6858 42.3502 50.7941C42.2419 50.7941 42.1336 50.9024 42.1336 51.0107C42.0253 51.119 42.0253 51.119 41.917 50.9024C41.7004 50.9024 41.5921 50.6858 41.4838 50.6858C41.3755 50.6858 41.2672 50.6858 41.2672 50.6858C41.0506 50.7941 40.9423 51.0107 41.1589 51.2273C41.2672 51.3356 41.3755 51.3356 41.3755 51.4439C41.5921 51.5522 41.7004 51.6605 41.917 51.7689C42.6751 52.2021 42.5668 53.1768 42.0253 53.5017C41.7004 53.61 41.4838 53.61 41.1589 53.61Z" fill="#008653"/>
<path fill-rule="evenodd" clip-rule="evenodd" d="M34.3361 51.8767C34.3361 51.3352 34.3361 50.902 34.3361 50.4688C34.3361 50.2522 34.3361 50.2522 34.5527 50.2522C35.0942 50.2522 35.744 50.2522 36.2855 50.2522C36.5022 50.2522 36.5022 50.2522 36.5022 50.4688C36.5022 50.902 36.5022 50.7937 36.1772 50.7937C35.9606 50.7937 35.744 50.7937 35.5274 50.7937C35.4191 50.7937 35.4191 50.7937 35.4191 50.902C35.4191 51.1186 35.4191 51.2269 35.4191 51.4435C35.4191 51.5518 35.4191 51.5518 35.5274 51.5518C35.744 51.5518 35.9606 51.5518 36.1772 51.5518C36.3939 51.5518 36.3938 51.5518 36.3938 51.7684C36.3938 52.0934 36.3938 52.0934 36.0689 52.0934C35.8523 52.0934 35.6357 52.0934 35.4191 52.0934C35.3108 52.0934 35.3108 52.0934 35.3108 52.2017C35.3108 52.4183 35.3108 52.6349 35.3108 52.8515C35.3108 52.9598 35.3108 52.9598 35.4191 52.9598C35.744 52.9598 35.9606 52.9598 36.2855 52.9598C36.5022 52.9598 36.5022 52.9598 36.5022 53.1764C36.5022 53.6096 36.5022 53.5013 36.1772 53.5013C35.6357 53.5013 35.0942 53.5013 34.5527 53.5013C34.2278 53.5013 34.2278 53.5013 34.2278 53.1764C34.3361 52.8515 34.3361 52.31 34.3361 51.8767Z" fill="#008653"/>
<path fill-rule="evenodd" clip-rule="evenodd" d="M37.2603 51.8776C37.2603 51.3361 37.2603 50.9029 37.2603 50.3614C37.2603 50.1448 37.2603 50.1448 37.4769 50.1448C38.0184 50.1448 38.6682 50.1448 39.2097 50.1448C39.4263 50.1448 39.4263 50.1448 39.4263 50.3614C39.4263 50.7946 39.4263 50.6863 39.1014 50.6863C38.8848 50.6863 38.6682 50.6863 38.4516 50.6863C38.3433 50.6863 38.3433 50.6863 38.3433 50.7946C38.3433 51.0112 38.3433 51.1195 38.3433 51.3361C38.3433 51.4444 38.3433 51.4444 38.4516 51.4444C38.6682 51.4444 38.8848 51.4444 39.2097 51.4444C39.4263 51.4444 39.4263 51.4444 39.4263 51.661C39.4263 52.0942 39.4263 52.0942 39.1014 52.0942C38.8848 52.0942 38.7765 52.0942 38.5599 52.0942C38.4516 52.0942 38.4516 52.0942 38.4516 52.2025C38.4516 52.4191 38.4516 52.5274 38.4516 52.7441C38.4516 52.9607 38.4516 52.9607 38.6682 52.9607C38.8848 52.9607 39.2097 52.9607 39.4263 52.9607C39.6429 52.9607 39.6429 52.9607 39.6429 53.1773C39.6429 53.5022 39.6429 53.5022 39.318 53.5022C38.7765 53.5022 38.235 53.5022 37.6935 53.5022C37.4769 53.5022 37.4769 53.5022 37.4769 53.2856C37.2603 52.8524 37.2603 52.4191 37.2603 51.8776Z" fill="#008653"/>
<path fill-rule="evenodd" clip-rule="evenodd" d="M29.5707 51.3357V51.2274C29.5707 51.1191 29.5707 50.9025 29.5707 50.7942V50.1443C29.0292 50.1443 28.4877 50.1443 28.0545 50.1443C27.6213 50.1443 27.7296 50.036 27.7296 50.5776C27.7296 50.6859 27.7296 50.7942 27.9462 50.7942C28.1628 50.7942 28.2711 50.7942 28.4877 50.7942C28.7043 50.7942 28.7043 50.7942 28.7043 51.0108C28.7043 51.444 28.7043 51.8772 28.7043 52.2021V52.3104C28.7043 52.6353 28.7043 53.0685 28.7043 53.3934C28.7043 53.5017 28.7043 53.61 28.8126 53.61C29.0292 53.61 29.3541 53.61 29.5707 53.61C29.679 53.61 29.679 53.61 29.679 53.5017C29.679 53.3934 29.679 53.3934 29.679 53.2851C29.5707 52.6353 29.5707 51.9855 29.5707 51.3357Z" fill="#008653"/>
<path fill-rule="evenodd" clip-rule="evenodd" d="M28.4877 51.3357V51.2274C28.4877 51.1191 28.4877 50.9025 28.4877 50.7942V50.1443C29.0292 50.1443 29.5707 50.1443 30.0039 50.1443C30.4372 50.1443 30.3289 50.036 30.3289 50.5776C30.3289 50.6859 30.3289 50.7942 30.1122 50.7942C29.8956 50.7942 29.7873 50.7942 29.5707 50.7942C29.3541 50.7942 29.3541 50.7942 29.3541 51.0108C29.3541 51.444 29.3541 51.8772 29.3541 52.2021V52.3104C29.3541 52.6353 29.3541 53.0685 29.3541 53.3934C29.3541 53.5017 29.3541 53.61 29.2458 53.61C29.0292 53.61 28.7043 53.61 28.4877 53.61C28.3794 53.61 28.3794 53.61 28.3794 53.5017C28.3794 53.3934 28.3794 53.3934 28.3794 53.2851C28.4877 52.6353 28.4877 51.9855 28.4877 51.3357Z" fill="#008653"/>
<path fill-rule="evenodd" clip-rule="evenodd" d="M33.578 53.2847C33.3614 52.9598 33.2531 52.6349 33.0365 52.31C33.0365 52.2017 33.0365 52.2017 33.1448 52.0934C33.3614 51.9851 33.578 51.8767 33.6863 51.6601C33.9029 51.2269 33.6863 50.6854 33.3614 50.4688C33.1448 50.3605 32.8199 50.2522 32.6033 50.2522C32.1701 50.2522 31.6286 50.2522 31.1954 50.2522C30.9788 50.2522 30.9788 50.2522 30.9788 50.4688C30.9788 50.7937 30.9788 51.2269 30.9788 51.5518C30.9788 52.2017 30.9788 52.7432 30.9788 53.393C30.9788 53.6096 30.9788 53.6096 31.1954 53.6096C31.412 53.6096 31.6286 53.6096 31.8452 53.6096C31.9535 53.6096 32.0618 53.6096 32.0618 53.393C32.0618 53.0681 32.0618 52.8515 32.0618 52.5266C32.0618 52.4183 32.0618 52.2017 32.0618 52.0934C32.1701 52.0934 32.1701 52.2017 32.1701 52.2017C32.3867 52.6349 32.495 52.9598 32.7116 53.393C32.7116 53.5013 32.8199 53.6096 32.9282 53.5013C33.0365 53.5013 33.2531 53.5013 33.3614 53.5013C33.4697 53.5013 33.578 53.5013 33.6863 53.5013C33.7946 53.5013 33.7946 53.393 33.7946 53.393C33.6863 53.393 33.6863 53.2847 33.578 53.2847ZM32.6033 51.3352C32.6033 51.5518 32.495 51.6601 32.2784 51.6601H32.1701H32.0618H31.9535V51.3352C31.9535 51.2269 31.9535 51.2269 31.9535 51.1186C31.9535 51.0103 31.9535 50.7937 31.9535 50.6854C31.9535 50.5771 31.9535 50.5771 32.0618 50.5771H32.2784C32.3867 50.5771 32.3867 50.5771 32.495 50.5771C32.6033 50.5771 32.7116 50.7937 32.8199 50.902C32.6033 51.2269 32.7116 51.3352 32.6033 51.3352Z" fill="#008653"/>
<path d="M36.2858 51.5527H35.311V52.0943H36.2858V51.5527Z" fill="#008653"/>
<path fill-rule="evenodd" clip-rule="evenodd" d="M40.0759 21.011H30.0037L25.8882 28.0507H44.1914L40.0759 21.011Z" fill="url(#paint0_linear_1915_432)"/>
<path fill-rule="evenodd" clip-rule="evenodd" d="M43.0002 29.8921H27.0796L20.6897 41.0473H49.3901L43.0002 29.8921Z" fill="url(#paint1_linear_1915_432)"/>
<path fill-rule="evenodd" clip-rule="evenodd" d="M28.9209 19.2779L34.9859 8.77246L41.1592 19.2779H28.9209Z" fill="url(#paint2_linear_1915_432)"/>
<path fill-rule="evenodd" clip-rule="evenodd" d="M34.0106 5.52362L31.6279 1.84131L35.0936 4.54889L38.7759 2.16622L36.0683 5.63192L38.451 9.42254L34.9853 6.71495L31.303 9.09763L34.0106 5.52362Z" fill="#F1D348"/>
<path fill-rule="evenodd" clip-rule="evenodd" d="M68.0185 50.3615C67.6936 50.0366 67.3687 49.7117 67.0438 49.3868C66.5023 49.0619 65.9607 48.737 65.4192 48.5203C64.1196 47.9788 62.7116 47.5456 61.3037 47.2207C61.1954 47.2207 60.9788 47.1124 60.8705 47.1124C60.8705 47.0041 60.8705 47.0041 60.8705 47.0041C60.9788 46.4626 61.0871 45.8128 61.1954 45.2712C61.3037 44.5131 61.3037 43.755 61.0871 42.9969C60.9788 42.3471 60.6539 41.8055 60.2207 41.3723C59.6791 41.0474 59.1376 40.7225 58.4878 40.5059C57.7297 40.181 56.9716 39.9644 56.2134 39.6395C54.4806 38.9897 52.7477 38.4481 51.0149 38.0149C46.4662 36.9319 40.9427 36.3904 35.0943 36.3904C29.4625 36.3904 24.1557 36.9319 19.6069 37.9066C18.8488 38.1232 18.199 38.2315 17.4409 38.4481C15.4914 38.9897 13.542 39.7478 11.5925 40.3976C11.051 40.6142 10.5095 40.9391 10.0763 41.1557C9.75135 41.4806 9.53475 41.8055 9.31814 42.2388C9.10153 42.7803 8.99323 43.3218 8.99323 43.8633C8.99323 44.7297 8.99323 45.4879 9.20984 46.3543C9.20984 46.5709 9.31814 46.7875 9.31814 47.0041C9.20984 47.0041 9.10153 47.0041 9.10153 47.1124C8.23511 47.329 7.26038 47.6539 6.28565 47.8705C5.31092 48.1954 4.44449 48.5203 3.46976 49.0619C2.92825 49.3868 2.49503 49.7117 2.06182 50.2532C1.95352 50.3615 1.95352 50.3615 1.84521 50.4698C1.95352 50.4698 2.06182 50.4698 2.06182 50.4698C2.81994 50.4698 3.46976 50.4698 4.22789 50.5781C4.98601 50.6864 5.74413 50.7947 6.39395 51.1196C6.71886 51.3362 7.15207 51.5528 7.36868 51.7694C7.58529 51.986 7.69359 52.2027 7.58529 52.5276C7.58529 52.7442 7.47698 53.0691 7.47698 53.2857C7.15207 54.6936 6.61056 55.9933 6.06904 57.2929C5.96074 57.5095 5.85244 57.8344 5.74413 58.051C5.96074 58.1593 6.06904 58.1593 6.17734 58.2676C6.50225 57.9427 6.82717 57.6178 7.15207 57.4012C7.69359 57.0763 8.34341 56.7514 8.99323 56.5348C10.6178 55.885 12.3506 55.3435 13.9752 54.9102C15.708 54.3687 17.4409 53.8272 19.282 53.2857C19.9319 53.0691 20.5817 52.8525 21.2315 52.5276C21.5564 52.311 21.8813 52.0944 22.0979 51.8777C22.6394 51.1196 22.6394 50.4698 21.8813 49.82C21.773 49.7117 21.773 49.7117 21.6647 49.6034C25.9968 48.737 30.329 48.412 34.7694 48.412C39.1015 48.412 43.542 48.737 47.8741 49.6034C47.7658 49.7117 47.6575 49.7117 47.6575 49.82C47.0077 50.3615 46.8994 51.1196 47.4409 51.8777C47.6575 52.0944 47.8741 52.311 48.0907 52.4193C48.4156 52.5276 48.6322 52.7442 48.9571 52.8525C49.8236 53.1774 50.69 53.5023 51.5564 53.7189C53.6142 54.3687 55.6719 54.9102 57.7297 55.5601C59.0293 55.9933 60.4373 56.4265 61.6286 56.968C62.2784 57.2929 62.9282 57.6178 63.3615 58.1593C63.4698 58.051 63.6864 58.051 63.7947 57.9427C63.7947 57.8344 63.6864 57.7261 63.6864 57.6178C63.1449 56.4265 62.7116 55.1268 62.2784 53.8272C62.1701 53.2857 61.9535 52.8525 61.9535 52.311C61.9535 52.0944 61.9535 51.8777 62.1701 51.7694C62.3867 51.5528 62.6033 51.3362 62.9282 51.2279C63.3615 51.0113 63.7947 50.7947 64.2279 50.6864C65.3109 50.4698 66.394 50.3615 67.477 50.3615C67.8019 50.4698 67.9102 50.4698 68.0185 50.3615C68.0185 50.4698 68.0185 50.4698 68.0185 50.3615Z" fill="white"/>
<path fill-rule="evenodd" clip-rule="evenodd" d="M26.322 46.5713C25.8888 46.6796 25.5639 46.6796 25.239 46.788C25.239 46.788 25.1307 46.788 25.0224 46.6797L24.9141 46.5713C24.156 45.8132 23.3978 44.9468 22.5314 44.1887C22.4231 44.0804 22.3148 43.9721 22.3148 43.7555C22.3148 43.6472 22.3148 43.5389 22.3148 43.4305C22.4231 43.4305 22.4231 43.3222 22.5314 43.3222C22.9646 43.2139 23.2895 42.9973 23.6144 42.6724C23.9393 42.3475 24.0477 41.9143 24.0477 41.4811C23.9394 40.9396 23.6144 40.723 23.1812 40.723C22.9646 40.723 22.6397 40.723 22.4231 40.8313C21.9899 40.9396 21.4484 40.9396 21.0152 41.0479H20.9069C21.2318 43.1056 21.5567 45.1634 21.8816 47.2212C21.5567 47.2212 21.3401 47.3295 21.0152 47.3295C20.6903 45.0551 20.257 42.6724 19.9321 40.3981C20.1487 40.3981 20.3653 40.2898 20.5819 40.2898C21.3401 40.1815 22.0982 40.0731 22.8563 39.9648C23.1812 39.9648 23.5061 39.9648 23.7227 39.9648C24.3726 40.0731 24.9141 40.5064 25.0224 41.2645C25.1307 41.806 25.0224 42.3475 24.5892 42.7807C24.3726 43.1056 24.0477 43.3222 23.7227 43.5389C23.6144 43.5389 23.5061 43.6472 23.3978 43.7555C23.831 44.297 24.3726 44.7302 24.8058 45.1634C25.3473 45.5966 25.8888 46.1381 26.322 46.5713Z" fill="#B54238"/>
<path fill-rule="evenodd" clip-rule="evenodd" d="M33.4702 45.921C33.4702 45.596 33.4702 45.3794 33.4702 45.1628C33.5785 45.1628 33.5785 45.1628 33.6868 45.2711C34.5532 45.4877 35.4196 45.7044 36.2861 45.5961C36.3944 45.5961 36.611 45.596 36.7193 45.4877C37.3691 45.2711 37.5857 44.9462 37.5857 44.2964C37.5857 43.6466 37.2608 43.3217 36.611 43.2134C36.2861 43.2134 35.9612 43.2134 35.6362 43.2134C35.3113 43.2134 35.0947 43.2134 34.7698 43.2134C33.7951 43.1051 33.1453 42.4553 33.1453 41.4805C33.1453 41.2639 33.1453 41.0473 33.2536 40.8307C33.3619 40.2892 33.6868 39.9643 34.12 39.6394C34.4449 39.4228 34.8781 39.3145 35.203 39.3145C36.1778 39.2062 37.1525 39.3145 38.1272 39.5311H38.2355C38.2355 39.7477 38.2355 40.0726 38.2355 40.2892C38.1272 40.2892 38.0189 40.2892 38.0189 40.1809C37.3691 39.9643 36.5027 39.856 35.7445 39.856C35.5279 39.856 35.203 39.9643 34.9864 39.9643C34.2283 40.1809 33.9034 40.939 34.2283 41.5888C34.3366 41.8054 34.5532 42.022 34.7698 42.1303C34.9864 42.2386 35.203 42.2386 35.4196 42.2386C35.8528 42.2386 36.2861 42.2386 36.7193 42.2386C37.0442 42.2386 37.2608 42.347 37.5857 42.4553C38.1272 42.6719 38.4521 42.9968 38.5604 43.5383C38.6687 43.9715 38.6687 44.4047 38.5604 44.8379C38.4521 45.3794 38.1272 45.7044 37.5857 45.921C37.2608 46.0293 36.8276 46.1376 36.5027 46.2459C35.4196 46.3542 34.4449 46.2459 33.4702 45.921Z" fill="#B54238"/>
<path fill-rule="evenodd" clip-rule="evenodd" d="M44.9497 46.7877C44.6248 46.7877 44.4082 46.6794 44.0833 46.6794C45.4912 44.5134 46.7908 42.3473 48.1988 40.2896C48.5237 40.3979 48.8486 40.3979 49.1735 40.5062C49.715 42.9971 50.3648 45.4881 50.9064 47.8708C50.6898 47.8708 50.2565 47.8708 49.9316 47.7625C49.715 47.0044 49.6067 46.2462 49.3901 45.4881C48.632 45.3798 47.8739 45.2715 47.1157 45.0549C47.224 44.8383 47.3323 44.6217 47.4407 44.4051C47.9822 44.5134 48.632 44.6217 49.1735 44.73C49.1735 44.5134 48.632 41.8058 48.4154 41.3726C47.224 42.9971 46.0327 44.8383 44.9497 46.7877Z" fill="#B54238"/>
<path fill-rule="evenodd" clip-rule="evenodd" d="M17.5494 41.2637C17.6577 41.4803 17.6577 41.6969 17.766 41.9135C17.4411 41.9135 17.2245 41.9135 17.0079 42.0218C16.2497 42.1301 15.5999 42.3467 14.9501 42.7799C14.4086 43.1048 13.9754 43.6463 13.8671 44.2962C13.8671 44.6211 13.8671 44.946 13.8671 45.2709C13.9754 45.9207 14.192 46.5705 14.6252 47.112C15.0584 47.6536 15.7082 47.9785 16.4663 47.9785C16.7913 47.9785 17.1162 47.9785 17.4411 47.8702C18.0909 47.6536 18.7407 47.437 19.1739 47.0037L19.2822 46.8954C19.2822 46.8954 19.2822 46.8954 19.3905 46.8954C19.4988 47.112 19.4988 47.3287 19.6071 47.5453L19.4988 47.6536C18.6324 48.1951 17.6577 48.6283 16.6829 48.7366C15.3833 48.8449 14.4086 48.4117 13.7588 47.3287C13.3255 46.5705 13.0006 45.7041 12.8923 44.8377C12.8923 43.9713 13.1089 43.3214 13.7588 42.6716C13.9754 42.455 14.192 42.2384 14.5169 42.1301C15.3833 41.5886 16.358 41.372 17.3328 41.2637C17.4411 41.2637 17.4411 41.2637 17.5494 41.2637Z" fill="#B54238"/>
<path fill-rule="evenodd" clip-rule="evenodd" d="M31.196 39.3148C31.5209 39.3148 31.8458 39.3148 32.2791 39.2065C32.2791 39.3148 32.1708 39.4231 32.1708 39.5315C31.4126 40.9394 30.7628 42.3473 30.0047 43.7553C29.7881 43.8636 29.7881 44.0802 29.7881 44.2968C29.7881 44.9466 29.8964 45.5964 29.8964 46.2463C29.8964 46.3546 29.8964 46.3546 29.8964 46.4629C29.5715 46.4629 29.3549 46.4629 29.03 46.5712C29.03 46.3546 29.03 46.1379 28.9217 45.813C28.9217 45.2715 28.8133 44.73 28.8133 44.1885C28.8133 44.0802 28.705 43.9719 28.705 43.8636C27.8386 42.5639 26.9722 41.2643 26.1058 39.9647C26.1058 39.8564 25.9975 39.8564 25.8892 39.6398C26.2141 39.6398 26.539 39.6398 26.8639 39.5315C27.622 40.7228 28.3801 41.9141 29.1383 43.1055C29.8964 41.8058 30.5462 40.5062 31.196 39.3148Z" fill="#B54238"/>
<path fill-rule="evenodd" clip-rule="evenodd" d="M41.917 40.1813C41.1589 40.073 40.4008 40.073 39.751 39.9647C39.751 39.7481 39.751 39.5315 39.751 39.2065C41.4838 39.3148 43.325 39.5315 45.0578 39.6398C45.0578 39.8564 45.0578 40.073 44.9495 40.3979C44.1914 40.2896 43.5416 40.2896 42.7835 40.1813C42.7835 40.2896 42.7835 40.2896 42.7835 40.3979C42.6752 41.156 42.6752 42.0224 42.5669 42.7805C42.4586 43.9719 42.3503 45.1632 42.242 46.3546C42.242 46.3546 42.242 46.3546 42.242 46.4629C41.917 46.4629 41.7004 46.4629 41.3755 46.3546C41.5921 44.4051 41.7004 42.3473 41.917 40.1813Z" fill="#B54238"/>
<path fill-rule="evenodd" clip-rule="evenodd" d="M56.1056 48.9538C55.9973 49.1704 55.889 49.387 55.889 49.6036C54.4811 49.0621 53.0731 48.5206 51.5569 47.9791C52.315 45.813 53.1814 43.5386 53.9396 41.3726C54.2645 41.4809 54.4811 41.5892 54.806 41.6975C54.0479 43.6469 53.398 45.5964 52.6399 47.6541C53.8313 48.0874 54.9143 48.5206 56.1056 48.9538Z" fill="#B54238"/>
<path fill-rule="evenodd" clip-rule="evenodd" d="M67.0438 49.3868C66.5023 49.0619 65.9607 48.737 65.4192 48.5203C64.1196 47.9788 62.7116 47.5456 61.3037 47.2207C61.1954 47.2207 60.9788 47.1124 60.8705 47.1124C60.8705 47.0041 60.8705 47.0041 60.8705 47.0041C60.9788 46.4626 61.0871 45.8128 61.1954 45.2712C61.3037 44.5131 61.3037 43.755 61.0871 42.9969C60.9788 42.3471 60.6539 41.8055 60.2207 41.3723C59.6792 40.9391 59.1376 40.7225 58.4878 40.5059C57.7297 40.181 56.9716 39.9644 56.2135 39.6395C54.4806 38.9897 52.7477 38.4481 51.0149 38.0149C46.4662 36.9319 40.9427 36.3904 35.0943 36.3904C29.4625 36.3904 24.1557 36.9319 19.607 37.9066C18.8488 38.1232 18.199 38.2315 17.4409 38.4481C15.4914 38.9897 13.542 39.7478 11.5925 40.3976C10.9427 40.6142 10.4012 40.8308 10.0763 41.1557C9.75135 41.4806 9.53475 41.8055 9.31814 42.2388C9.10153 42.7803 8.99323 43.3218 8.99323 43.8633C8.99323 44.7297 8.99323 45.4879 9.20984 46.3543C9.20984 46.5709 9.31814 46.7875 9.31814 47.0041C9.20984 47.0041 9.10153 47.0041 9.10153 47.1124C8.23511 47.329 7.26038 47.6539 6.28565 47.8705C5.31092 48.1954 4.44449 48.5203 3.46976 49.0619C2.92825 49.3868 2.49503 49.7117 2.06182 50.2532C1.95352 50.3615 1.95352 50.3615 1.84521 50.4698C1.95352 50.4698 2.06182 50.4698 2.06182 50.4698C2.81994 50.4698 3.46976 50.4698 4.22789 50.5781C4.98601 50.6864 5.74413 50.7947 6.39395 51.1196C6.71886 51.3362 7.15207 51.5528 7.36868 51.7694C7.58529 51.986 7.69359 52.2027 7.58529 52.5276C7.58529 52.7442 7.47698 53.0691 7.47698 53.2857C7.15207 54.6936 6.61056 55.9933 6.06904 57.2929C5.96074 57.5095 5.85244 57.8344 5.74413 58.051C5.96074 58.1593 6.06904 58.1593 6.17735 58.2676C6.50225 57.9427 6.82717 57.6178 7.15208 57.4012C7.69359 57.0763 8.34341 56.7514 8.99323 56.5348C10.6178 55.885 12.3506 55.3435 13.9752 54.9102C15.708 54.3687 17.4409 53.8272 19.282 53.2857C19.9319 53.0691 20.5817 52.8525 21.2315 52.5276C21.5564 52.311 21.8813 52.0944 22.0979 51.8777C22.6394 51.1196 22.6394 50.4698 21.8813 49.82C21.773 49.7117 21.773 49.7117 21.6647 49.6034C25.9968 48.737 30.329 48.412 34.7694 48.412C39.1015 48.412 43.542 48.737 47.8741 49.6034C47.7658 49.7117 47.6575 49.7117 47.6575 49.82C47.0077 50.3615 46.8994 51.1196 47.4409 51.8777C47.6575 52.0944 47.8741 52.311 48.0907 52.4193C48.4156 52.5276 48.6322 52.7442 48.9571 52.8525C49.8236 53.1774 50.69 53.5023 51.5564 53.7189C53.6142 54.3687 55.6719 54.9102 57.7297 55.5601C59.0293 55.9933 60.4373 56.4265 61.6286 56.968C62.2784 57.2929 62.9283 57.6178 63.3615 58.1593C63.4698 58.051 63.6864 58.051 63.7947 57.9427C63.7947 57.8344 63.6864 57.7261 63.6864 57.6178C63.1449 56.4265 62.7116 55.1268 62.2784 53.8272C62.1701 53.2857 61.9535 52.8525 61.9535 52.311C61.9535 52.0944 61.9535 51.8777 62.1701 51.7694C62.3867 51.5528 62.6033 51.3362 62.9283 51.2279C63.3615 51.0113 63.7947 50.7947 64.2279 50.6864C65.3109 50.4698 66.394 50.3615 67.477 50.3615C67.5853 50.3615 67.6936 50.3615 67.8019 50.3615V50.2532C67.8019 50.0366 67.477 49.7117 67.0438 49.3868ZM66.1774 50.0366C65.3109 50.1449 64.3362 50.2532 63.5781 50.5781C63.2532 50.6864 62.9283 50.903 62.6033 51.1196C62.3867 51.2279 62.1701 51.4445 61.9535 51.6611C61.7369 51.8777 61.7369 52.0944 61.7369 52.311C61.7369 52.7442 61.8452 53.2857 61.9535 53.7189C62.2784 54.8019 62.6033 55.885 63.0366 56.8597C63.0366 56.968 63.1449 56.968 63.1449 57.0763H63.0366C62.0618 56.5348 60.9788 56.1016 59.7875 55.6684C57.9463 55.0185 55.9968 54.477 54.1557 53.9355C52.7477 53.5023 51.3398 53.0691 49.9319 52.6359C49.4986 52.5276 49.0654 52.311 48.6322 52.0944C48.3073 51.9861 48.0907 51.7694 47.8741 51.4445C47.6575 51.0113 47.6575 50.6864 47.9824 50.3615C48.199 50.1449 48.5239 49.9283 48.7405 49.82C48.8488 49.82 48.9571 49.82 48.9571 49.82C50.4734 50.1449 51.9896 50.5781 53.3976 51.0113H53.5059C53.6142 50.7947 53.6142 50.6864 53.7225 50.4698C53.6142 50.4698 53.5059 50.3615 53.3976 50.3615C51.9896 49.82 50.4734 49.4951 48.9571 49.1702C47.3326 48.8453 45.708 48.5203 43.9752 48.3037C42.5672 48.0871 41.2676 47.9788 39.8597 47.8705C37.6936 47.7622 35.6358 47.6539 33.4698 47.7622C32.0618 47.7622 30.6539 47.8705 29.2459 47.9788C27.0799 48.0871 24.9138 48.412 22.7477 48.7369C20.5817 49.1702 18.4156 49.6034 16.2495 50.3615C16.1412 50.3615 16.0329 50.4698 15.8163 50.4698C15.9246 50.6864 15.9246 50.7947 16.0329 51.0113C16.1412 51.0113 16.1412 51.0113 16.1412 51.0113C17.5492 50.4698 19.0654 50.1449 20.5817 49.82C20.69 49.82 20.69 49.82 20.7983 49.82C21.1232 49.9283 21.3398 50.1449 21.5564 50.3615C21.8813 50.6864 21.8813 51.0113 21.6647 51.3362C21.4481 51.6611 21.2315 51.8777 20.9066 51.986C20.3651 52.2027 19.9319 52.4193 19.3903 52.6359C17.9824 53.0691 16.4662 53.6106 15.0582 54.0438C13.3254 54.5853 11.5925 55.0185 9.85966 55.6684C8.77662 56.1016 7.69359 56.4265 6.71886 57.0763C6.71886 57.0763 6.71886 57.0763 6.61056 57.0763C6.61056 56.968 6.61056 56.8597 6.71886 56.8597C7.15207 55.7767 7.47698 54.8019 7.80189 53.7189C7.9102 53.2857 8.0185 52.7442 8.0185 52.311C8.0185 52.0944 7.9102 51.7694 7.80189 51.6611C7.47698 51.3362 7.26038 51.1196 6.82717 50.903C6.17735 50.5781 5.41922 50.3615 4.6611 50.1449C4.11958 50.0366 3.68637 50.0366 3.14485 49.9283C3.14485 49.9283 3.03655 49.9283 2.92825 49.9283C3.03655 49.82 3.14485 49.82 3.25316 49.7117C3.90298 49.2785 4.6611 48.9536 5.41922 48.7369C6.61056 48.3037 7.69359 47.9788 8.88493 47.7622C8.99323 47.7622 8.99323 47.7622 9.10153 47.7622C9.10153 47.8705 9.10153 47.8705 9.20984 47.9788C9.64305 49.2785 10.0763 50.5781 10.8344 51.7694C11.051 52.0944 11.2676 52.311 11.3759 52.6359C11.7008 53.0691 12.134 53.2857 12.6755 53.2857C13.1088 53.2857 13.6503 53.1774 14.0835 53.1774C15.8163 52.8525 17.5492 52.311 19.282 51.6611C19.282 51.6611 19.3903 51.6611 19.3903 51.5528C19.282 51.3362 19.282 51.2279 19.1737 51.0113C19.0654 51.0113 18.9571 51.1196 18.8488 51.1196C17.4409 51.6611 16.0329 52.0944 14.5167 52.4193C14.0835 52.5276 13.542 52.6359 13.1088 52.6359C12.8921 52.6359 12.6755 52.6359 12.4589 52.6359C12.2423 52.6359 12.0257 52.5276 11.8091 52.311C11.5925 52.0944 11.4842 51.8777 11.2676 51.6611C10.4012 50.2532 9.85966 48.8453 9.42644 47.329C9.10153 46.246 8.99323 45.1629 8.99323 43.9716C8.99323 43.4301 9.10153 42.8886 9.31814 42.4554C9.53475 41.9138 9.96796 41.4806 10.6178 41.264C12.8921 40.3976 15.2748 39.5312 17.6575 38.8814C19.4986 38.3398 21.4481 38.0149 23.2893 37.69C24.6972 37.4734 26.1051 37.2568 27.6214 37.1485C28.921 37.0402 30.2207 36.9319 31.5203 36.9319C33.2532 36.8236 34.8777 36.8236 36.6106 36.9319C38.2351 36.9319 39.968 37.0402 41.5925 37.2568C42.7838 37.3651 43.8669 37.4734 45.0582 37.69C47.2243 38.0149 49.282 38.4481 51.3398 38.9897C53.5059 39.5312 55.5636 40.2893 57.7297 41.1557C57.9463 41.264 58.1629 41.3723 58.3795 41.3723C59.2459 41.6972 59.7875 42.3471 60.0041 43.2135C60.1124 43.755 60.2207 44.4048 60.1124 44.9463C60.0041 46.6792 59.4625 48.412 58.8127 50.0366C58.5961 50.5781 58.2712 51.2279 57.9463 51.7694C57.838 51.986 57.6214 52.2027 57.5131 52.5276C57.2965 52.8525 57.0799 52.9608 56.6467 52.9608C56.2135 52.9608 55.7802 52.9608 55.4553 52.8525C53.7225 52.5276 51.9896 51.986 50.3651 51.4445C50.2568 51.4445 50.1485 51.3362 50.0402 51.3362C50.0402 51.4445 49.9319 51.5528 49.9319 51.5528C49.9319 51.6611 49.9319 51.6611 49.8236 51.7694C49.9319 51.7694 49.9319 51.8777 50.0402 51.8777C51.5564 52.4193 53.0727 52.9608 54.6972 53.1774C55.2387 53.2857 55.7802 53.394 56.4301 53.394C56.6467 53.394 56.8633 53.394 57.1882 53.394C57.4048 53.394 57.6214 53.2857 57.7297 53.0691C57.9463 52.8525 58.1629 52.6359 58.3795 52.311C58.921 51.4445 59.3542 50.5781 59.7875 49.6034C60.0041 49.0619 60.1124 48.6286 60.329 48.0871C60.329 47.9788 60.329 47.9788 60.4373 47.8705C60.5456 47.8705 60.6539 47.8705 60.7622 47.9788C62.1701 48.3037 63.5781 48.7369 64.986 49.2785C65.4192 49.4951 65.8524 49.7117 66.394 50.0366C66.5023 50.0366 66.5023 50.1449 66.6106 50.2532C66.6106 49.9283 66.394 49.9283 66.1774 50.0366Z" fill="#B34537"/>
<path d="M86.3191 20V10.5289H84.5593V20H82.8314V8.86509H88.0469V20H86.3191ZM92.1695 8.86509C93.1934 8.86509 93.94 9.13173 94.4093 9.66501C94.8892 10.1983 95.1292 11.0569 95.1292 12.2408C95.1292 12.7634 95.0812 13.238 94.9852 13.6646C94.8892 14.0912 94.7239 14.4592 94.4893 14.7685C94.2546 15.0672 93.9453 15.3018 93.5614 15.4724C93.1881 15.6431 92.7135 15.7284 92.1375 15.7284H91.4336V20H89.7058V8.86509H92.1695ZM91.4336 10.4969V14.0806H92.0415C92.5748 14.0806 92.9428 13.9313 93.1454 13.6326C93.3587 13.3233 93.4654 12.8647 93.4654 12.2568C93.4654 11.7128 93.3641 11.2862 93.1614 10.9769C92.9694 10.6569 92.6068 10.4969 92.0735 10.4969H91.4336ZM99.8665 11.5848C99.8665 11.2755 99.7972 10.9982 99.6585 10.7529C99.5305 10.5076 99.2799 10.3849 98.9066 10.3849C98.704 10.3849 98.5386 10.4329 98.4107 10.5289C98.2827 10.6143 98.1813 10.7262 98.1067 10.8649C98.0427 10.9929 97.9947 11.1422 97.9627 11.3129C97.9414 11.4728 97.9307 11.6222 97.9307 11.7608V17.3603C97.9307 17.6482 98 17.9095 98.1387 18.1442C98.288 18.3682 98.5386 18.4801 98.8906 18.4801C99.2426 18.4801 99.4932 18.3628 99.6425 18.1282C99.7918 17.8829 99.8665 17.5896 99.8665 17.2483V11.5848ZM101.61 17.1523C101.61 18.1229 101.392 18.8588 100.954 19.3601C100.517 19.8507 99.8292 20.096 98.8906 20.096C97.952 20.096 97.2694 19.8613 96.8428 19.3921C96.4162 18.9121 96.2029 18.2242 96.2029 17.3283V11.7288C96.2029 11.2915 96.2509 10.8916 96.3469 10.5289C96.4535 10.1663 96.6135 9.857 96.8268 9.60102C97.0401 9.33438 97.3174 9.13173 97.6587 8.99308C98.0107 8.84376 98.4266 8.7691 98.9066 8.7691C99.4186 8.7691 99.8452 8.83843 100.186 8.97708C100.538 9.10507 100.816 9.29705 101.018 9.55302C101.232 9.809 101.381 10.1183 101.466 10.4809C101.562 10.8436 101.61 11.2542 101.61 11.7128V17.1523ZM107.109 13.0247L104.773 20H103.109V8.86509H104.789V15.9204H104.853L107.173 8.86509H108.853V20H107.157V13.0247H107.109ZM111.766 17.1043C111.776 17.5949 111.867 17.9415 112.038 18.1442C112.208 18.3362 112.448 18.4322 112.757 18.4322C113.067 18.4322 113.301 18.2935 113.461 18.0162C113.632 17.7389 113.717 17.2963 113.717 16.6883C113.717 15.5471 113.392 14.9765 112.741 14.9765H112.07V13.5046H112.773C113.104 13.5046 113.344 13.3553 113.493 13.0567C113.653 12.7474 113.733 12.3314 113.733 11.8088C113.733 11.3715 113.643 11.0355 113.461 10.8009C113.28 10.5556 113.029 10.4329 112.709 10.4329C112.368 10.4329 112.118 10.5609 111.958 10.8169C111.808 11.0729 111.728 11.3928 111.718 11.7768L110.054 11.4088C110.107 10.5769 110.374 9.93165 110.854 9.47303C111.344 9.00375 111.984 8.7691 112.773 8.7691C114.555 8.7691 115.445 9.761 115.445 11.7448C115.445 11.9261 115.435 12.1341 115.413 12.3687C115.392 12.6034 115.344 12.8434 115.269 13.0887C115.205 13.3233 115.109 13.542 114.981 13.7446C114.864 13.9473 114.704 14.1019 114.501 14.2086V14.2566C114.693 14.3526 114.853 14.4912 114.981 14.6725C115.109 14.8432 115.211 15.0405 115.285 15.2645C115.36 15.4778 115.413 15.7124 115.445 15.9684C115.477 16.2137 115.493 16.4697 115.493 16.7363C115.493 17.8989 115.259 18.7521 114.789 19.2961C114.331 19.8294 113.648 20.096 112.741 20.096C111.92 20.096 111.27 19.8667 110.79 19.4081C110.31 18.9494 110.07 18.2935 110.07 17.4403L111.766 17.1043ZM120.505 11.9208C120.505 11.4088 120.404 11.0409 120.202 10.8169C119.999 10.5929 119.663 10.4809 119.194 10.4809H118.65V13.3607H119.21C119.658 13.3607 119.983 13.238 120.186 12.9927C120.399 12.7474 120.505 12.3901 120.505 11.9208ZM120.601 16.4803C120.601 15.9577 120.505 15.5684 120.314 15.3125C120.122 15.0565 119.786 14.9285 119.306 14.9285H118.65V18.3842H119.338C119.615 18.3842 119.834 18.3362 119.994 18.2402C120.164 18.1335 120.292 17.9949 120.377 17.8242C120.473 17.6536 120.532 17.4509 120.553 17.2163C120.585 16.9816 120.601 16.7363 120.601 16.4803ZM120.969 14.1766C121.46 14.3366 121.796 14.6405 121.977 15.0885C122.159 15.5364 122.249 16.0484 122.249 16.6243C122.249 17.7869 121.999 18.6401 121.497 19.1841C121.007 19.728 120.25 20 119.226 20H116.922V8.86509H119.354C120.335 8.86509 121.044 9.1264 121.481 9.64902C121.929 10.161 122.153 10.9076 122.153 11.8888C122.153 12.4007 122.063 12.8487 121.881 13.2327C121.711 13.6166 121.407 13.9046 120.969 14.0966V14.1766ZM127.364 11.5848C127.364 11.2755 127.294 10.9982 127.156 10.7529C127.028 10.5076 126.777 10.3849 126.404 10.3849C126.201 10.3849 126.036 10.4329 125.908 10.5289C125.78 10.6143 125.679 10.7262 125.604 10.8649C125.54 10.9929 125.492 11.1422 125.46 11.3129C125.439 11.4728 125.428 11.6222 125.428 11.7608V17.3603C125.428 17.6482 125.497 17.9095 125.636 18.1442C125.785 18.3682 126.036 18.4801 126.388 18.4801C126.74 18.4801 126.991 18.3628 127.14 18.1282C127.289 17.8829 127.364 17.5896 127.364 17.2483V11.5848ZM129.108 17.1523C129.108 18.1229 128.889 18.8588 128.452 19.3601C128.014 19.8507 127.326 20.096 126.388 20.096C125.449 20.096 124.767 19.8613 124.34 19.3921C123.913 18.9121 123.7 18.2242 123.7 17.3283V11.7288C123.7 11.2915 123.748 10.8916 123.844 10.5289C123.951 10.1663 124.111 9.857 124.324 9.60102C124.537 9.33438 124.815 9.13173 125.156 8.99308C125.508 8.84376 125.924 8.7691 126.404 8.7691C126.916 8.7691 127.342 8.83843 127.684 8.97708C128.036 9.10507 128.313 9.29705 128.516 9.55302C128.729 9.809 128.878 10.1183 128.964 10.4809C129.06 10.8436 129.108 11.2542 129.108 11.7128V17.1523ZM131.422 20V22.1118H129.967V18.5601L130.622 18.4162C130.921 18.0962 131.124 17.7282 131.23 17.3123C131.337 16.8856 131.401 16.3257 131.422 15.6324L131.614 8.86509H136.59V18.4322H137.294V22.1118H135.838V20H131.422ZM132.974 15.6164C132.953 16.2564 132.91 16.811 132.846 17.2803C132.782 17.7389 132.66 18.1229 132.478 18.4322H134.878V10.4649H133.102L132.974 15.6164ZM141.043 8.7691C141.502 8.7691 141.896 8.8331 142.227 8.96108C142.558 9.08907 142.83 9.27039 143.043 9.50503C143.267 9.72901 143.427 10.001 143.523 10.3209C143.63 10.6303 143.683 10.9716 143.683 11.3448L142.003 11.7768C142.003 11.3715 141.923 11.0409 141.763 10.7849C141.614 10.5289 141.368 10.4009 141.027 10.4009C140.824 10.4009 140.659 10.4436 140.531 10.5289C140.403 10.6143 140.302 10.7262 140.227 10.8649C140.163 10.9929 140.115 11.1369 140.083 11.2969C140.062 11.4462 140.051 11.5902 140.051 11.7288V17.3763C140.051 17.4829 140.062 17.6002 140.083 17.7282C140.105 17.8562 140.147 17.9789 140.211 18.0962C140.286 18.2028 140.382 18.2935 140.499 18.3682C140.627 18.4428 140.787 18.4801 140.979 18.4801C141.619 18.4801 141.944 18.0215 141.955 17.1043C142.243 17.1576 142.531 17.2056 142.819 17.2483C143.107 17.2803 143.395 17.3176 143.683 17.3603C143.662 18.2028 143.427 18.8694 142.979 19.3601C142.542 19.8507 141.891 20.096 141.027 20.096C140.11 20.096 139.433 19.8667 138.995 19.4081C138.558 18.9388 138.339 18.2562 138.339 17.3603V11.8088C138.339 11.3928 138.382 11.0035 138.467 10.6409C138.563 10.2676 138.718 9.94232 138.931 9.66501C139.145 9.38771 139.422 9.16906 139.763 9.00908C140.115 8.84909 140.542 8.7691 141.043 8.7691ZM147.686 10.4809V20H145.943V10.4809H144.151V8.86509H149.478V10.4809H147.686ZM153.955 11.9208C153.955 11.4088 153.854 11.0409 153.651 10.8169C153.449 10.5929 153.113 10.4809 152.643 10.4809H152.1V13.3607H152.659C153.107 13.3607 153.433 13.238 153.635 12.9927C153.849 12.7474 153.955 12.3901 153.955 11.9208ZM154.051 16.4803C154.051 15.9577 153.955 15.5684 153.763 15.3125C153.571 15.0565 153.235 14.9285 152.755 14.9285H152.1V18.3842H152.787C153.065 18.3842 153.283 18.3362 153.443 18.2402C153.614 18.1335 153.742 17.9949 153.827 17.8242C153.923 17.6536 153.982 17.4509 154.003 17.2163C154.035 16.9816 154.051 16.7363 154.051 16.4803ZM154.419 14.1766C154.91 14.3366 155.246 14.6405 155.427 15.0885C155.608 15.5364 155.699 16.0484 155.699 16.6243C155.699 17.7869 155.449 18.6401 154.947 19.1841C154.457 19.728 153.699 20 152.675 20H150.372V8.86509H152.803C153.785 8.86509 154.494 9.1264 154.931 9.64902C155.379 10.161 155.603 10.9076 155.603 11.8888C155.603 12.4007 155.513 12.8487 155.331 13.2327C155.161 13.6166 154.857 13.9046 154.419 14.0966V14.1766ZM160.814 11.5848C160.814 11.2755 160.744 10.9982 160.606 10.7529C160.478 10.5076 160.227 10.3849 159.854 10.3849C159.651 10.3849 159.486 10.4329 159.358 10.5289C159.23 10.6143 159.128 10.7262 159.054 10.8649C158.99 10.9929 158.942 11.1422 158.91 11.3129C158.889 11.4728 158.878 11.6222 158.878 11.7608V17.3603C158.878 17.6482 158.947 17.9095 159.086 18.1442C159.235 18.3682 159.486 18.4801 159.838 18.4801C160.19 18.4801 160.44 18.3628 160.59 18.1282C160.739 17.8829 160.814 17.5896 160.814 17.2483V11.5848ZM162.557 17.1523C162.557 18.1229 162.339 18.8588 161.902 19.3601C161.464 19.8507 160.776 20.096 159.838 20.096C158.899 20.096 158.217 19.8613 157.79 19.3921C157.363 18.9121 157.15 18.2242 157.15 17.3283V11.7288C157.15 11.2915 157.198 10.8916 157.294 10.5289C157.401 10.1663 157.561 9.857 157.774 9.60102C157.987 9.33438 158.265 9.13173 158.606 8.99308C158.958 8.84376 159.374 8.7691 159.854 8.7691C160.366 8.7691 160.792 8.83843 161.134 8.97708C161.486 9.10507 161.763 9.29705 161.966 9.55302C162.179 9.809 162.328 10.1183 162.413 10.4809C162.509 10.8436 162.557 11.2542 162.557 11.7128V17.1523ZM86.767 29.0247L84.4313 36H82.7674V24.8651H84.4473V31.9204H84.5113L86.831 24.8651H88.5109V36H86.815V29.0247H86.767ZM96.8806 36V26.5289H95.1207V36H93.3929V24.8651H98.6084V36H96.8806ZM102.731 24.8651C103.755 24.8651 104.501 25.1317 104.971 25.665C105.451 26.1983 105.691 27.0569 105.691 28.2408C105.691 28.7634 105.643 29.238 105.547 29.6646C105.451 30.0912 105.285 30.4592 105.051 30.7685C104.816 31.0672 104.507 31.3018 104.123 31.4724C103.75 31.6431 103.275 31.7284 102.699 31.7284H101.995V36H100.267V24.8651H102.731ZM101.995 26.4969V30.0806H102.603C103.136 30.0806 103.504 29.9313 103.707 29.6326C103.92 29.3233 104.027 28.8647 104.027 28.2568C104.027 27.7128 103.926 27.2862 103.723 26.9769C103.531 26.6569 103.168 26.4969 102.635 26.4969H101.995ZM110.428 27.5848C110.428 27.2755 110.359 26.9982 110.22 26.7529C110.092 26.5076 109.841 26.3849 109.468 26.3849C109.265 26.3849 109.1 26.4329 108.972 26.5289C108.844 26.6143 108.743 26.7262 108.668 26.8649C108.604 26.9929 108.556 27.1422 108.524 27.3129C108.503 27.4728 108.492 27.6222 108.492 27.7608V33.3603C108.492 33.6482 108.561 33.9095 108.7 34.1442C108.849 34.3682 109.1 34.4801 109.452 34.4801C109.804 34.4801 110.055 34.3628 110.204 34.1282C110.353 33.8829 110.428 33.5896 110.428 33.2483V27.5848ZM112.172 33.1523C112.172 34.1229 111.953 34.8588 111.516 35.3601C111.079 35.8507 110.391 36.096 109.452 36.096C108.513 36.096 107.831 35.8613 107.404 35.3921C106.978 34.9121 106.764 34.2242 106.764 33.3283V27.7288C106.764 27.2915 106.812 26.8916 106.908 26.5289C107.015 26.1663 107.175 25.857 107.388 25.601C107.602 25.3344 107.879 25.1317 108.22 24.9931C108.572 24.8438 108.988 24.7691 109.468 24.7691C109.98 24.7691 110.407 24.8384 110.748 24.9771C111.1 25.1051 111.377 25.2971 111.58 25.553C111.793 25.809 111.942 26.1183 112.028 26.4809C112.124 26.8436 112.172 27.2542 112.172 27.7128V33.1523ZM114.487 36V38.1118H113.031V34.5601L113.687 34.4162C113.985 34.0962 114.188 33.7282 114.295 33.3123C114.401 32.8856 114.465 32.3257 114.487 31.6324L114.679 24.8651H119.654V34.4322H120.358V38.1118H118.902V36H114.487ZM116.038 31.6164C116.017 32.2564 115.974 32.811 115.91 33.2803C115.846 33.7389 115.724 34.1229 115.542 34.4322H117.942V26.4649H116.166L116.038 31.6164ZM125.499 36L125.067 33.6802H123.019C122.945 34.0642 122.87 34.4535 122.795 34.8481C122.731 35.2321 122.667 35.616 122.603 36H120.844C121.217 34.1335 121.59 32.2777 121.963 30.4325C122.337 28.5874 122.71 26.7316 123.083 24.8651H125.003L127.259 36H125.499ZM123.995 27.4408C123.889 28.2088 123.777 28.9767 123.659 29.7446C123.542 30.5019 123.414 31.2751 123.275 32.0644H124.795L124.075 27.4408H123.995ZM131.992 36V31.1365H131.577C131.15 31.1365 130.825 31.2591 130.601 31.5044C130.387 31.7391 130.222 32.1497 130.105 32.7363C129.998 33.2803 129.891 33.8242 129.785 34.3682C129.678 34.9121 129.566 35.4561 129.449 36H127.737L128.505 32.2884C128.622 31.7444 128.793 31.3071 129.017 30.9765C129.241 30.6459 129.555 30.4059 129.961 30.2566V30.2246C129.651 30.0966 129.374 29.8673 129.129 29.5366C128.894 29.1953 128.723 28.7527 128.617 28.2088C128.499 27.6542 128.382 27.1049 128.265 26.5609C128.148 26.0063 128.03 25.4464 127.913 24.8811H129.513L130.201 28.0328C130.265 28.3314 130.35 28.5821 130.457 28.7847C130.563 28.9767 130.681 29.1313 130.809 29.2487C130.937 29.366 131.07 29.4513 131.209 29.5046C131.358 29.5473 131.502 29.5686 131.641 29.5686H131.992V24.8651H133.72V29.5686H134.008C134.371 29.5686 134.68 29.462 134.936 29.2487C135.192 29.0353 135.384 28.6301 135.512 28.0328C135.533 27.9261 135.576 27.7235 135.64 27.4248C135.715 27.1262 135.789 26.8062 135.864 26.4649C135.939 26.113 136.008 25.7877 136.072 25.489C136.136 25.1904 136.179 24.9877 136.2 24.8811H137.8C137.693 25.4464 137.576 26.0063 137.448 26.5609C137.331 27.1049 137.213 27.6542 137.096 28.2088C136.979 28.7527 136.803 29.1953 136.568 29.5366C136.333 29.8673 136.061 30.0966 135.752 30.2246L135.736 30.2406C136.141 30.3899 136.456 30.6352 136.68 30.9765C136.915 31.3071 137.091 31.7444 137.208 32.2884L137.976 36H136.264L135.608 32.7363C135.491 32.139 135.309 31.7231 135.064 31.4884C134.819 31.2538 134.51 31.1365 134.136 31.1365H133.72V36H131.992ZM143.122 36L142.69 33.6802H140.643C140.568 34.0642 140.493 34.4535 140.419 34.8481C140.355 35.2321 140.291 35.616 140.227 36H138.467C138.84 34.1335 139.213 32.2777 139.587 30.4325C139.96 28.5874 140.333 26.7316 140.707 24.8651H142.626L144.882 36H143.122ZM141.619 27.4408C141.512 28.2088 141.4 28.9767 141.283 29.7446C141.165 30.5019 141.037 31.2751 140.899 32.0644H142.418L141.699 27.4408H141.619ZM86.767 45.0247L84.4313 52H82.7674V40.8651H84.4473V47.9204H84.5113L86.831 40.8651H88.5109V52H86.815V45.0247H86.767ZM92.7197 40.7691C93.1783 40.7691 93.573 40.8331 93.9036 40.9611C94.2342 41.0891 94.5062 41.2704 94.7195 41.505C94.9435 41.729 95.1035 42.001 95.1995 42.3209C95.3061 42.6303 95.3595 42.9716 95.3595 43.3448L93.6796 43.7768C93.6796 43.3715 93.5996 43.0409 93.4396 42.7849C93.2903 42.5289 93.045 42.4009 92.7037 42.4009C92.5011 42.4009 92.3357 42.4436 92.2078 42.5289C92.0798 42.6143 91.9784 42.7262 91.9038 42.8649C91.8398 42.9929 91.7918 43.1369 91.7598 43.2969C91.7385 43.4462 91.7278 43.5902 91.7278 43.7288V49.3763C91.7278 49.4829 91.7385 49.6002 91.7598 49.7282C91.7811 49.8562 91.8238 49.9789 91.8878 50.0962C91.9625 50.2028 92.0584 50.2935 92.1758 50.3682C92.3038 50.4428 92.4637 50.4801 92.6557 50.4801C93.2957 50.4801 93.621 50.0215 93.6316 49.1043C93.9196 49.1576 94.2076 49.2056 94.4955 49.2483C94.7835 49.2803 95.0715 49.3176 95.3595 49.3603C95.3381 50.2028 95.1035 50.8694 94.6555 51.3601C94.2182 51.8507 93.5676 52.096 92.7037 52.096C91.7865 52.096 91.1092 51.8667 90.6719 51.4081C90.2346 50.9388 90.016 50.2562 90.016 49.3603V43.8088C90.016 43.3928 90.0586 43.0035 90.144 42.6409C90.24 42.2676 90.3946 41.9423 90.6079 41.665C90.8212 41.3877 91.0985 41.1691 91.4398 41.0091C91.7918 40.8491 92.2184 40.7691 92.7197 40.7691ZM96.6113 52V40.8651H98.3232V45.5686H98.6751C99.0591 45.5686 99.3737 45.4566 99.619 45.2327C99.8643 45.0087 100.051 44.6087 100.179 44.0328C100.2 43.9368 100.243 43.7395 100.307 43.4408C100.382 43.1315 100.451 42.8062 100.515 42.4649C100.59 42.113 100.659 41.7877 100.723 41.489C100.787 41.1797 100.83 40.9771 100.851 40.8811H102.467C102.349 41.4464 102.232 42.0063 102.115 42.5609C101.997 43.1049 101.88 43.6542 101.763 44.2088C101.646 44.7527 101.464 45.1953 101.219 45.5366C100.984 45.8673 100.712 46.0966 100.403 46.2246V46.2566C100.808 46.4059 101.123 46.6459 101.347 46.9765C101.571 47.3071 101.741 47.7444 101.859 48.2884C101.997 48.9176 102.125 49.5416 102.243 50.1602C102.371 50.7681 102.504 51.3814 102.643 52H100.915C100.808 51.4561 100.702 50.9121 100.595 50.3682C100.488 49.8242 100.376 49.2803 100.259 48.7363C100.142 48.139 99.9603 47.7231 99.715 47.4884C99.4804 47.2538 99.1711 47.1365 98.7871 47.1365H98.3232V52H96.6113ZM106.042 46.6405L107.37 40.8651H108.985L106.746 49.4722C106.596 50.0802 106.426 50.5601 106.234 50.9121C106.052 51.2641 105.855 51.5307 105.642 51.712C105.439 51.8933 105.22 52.0107 104.986 52.064C104.751 52.1173 104.506 52.1493 104.25 52.16H103.626V50.7681H104.026C104.292 50.7681 104.506 50.6828 104.666 50.5121C104.836 50.3308 104.98 50.0535 105.098 49.6802C105.108 49.6696 105.119 49.6376 105.13 49.5842C105.14 49.5309 105.151 49.4776 105.162 49.4243C105.183 49.3603 105.199 49.3016 105.21 49.2483C105.231 49.1949 105.247 49.1576 105.258 49.1363L102.906 40.8811H104.586L105.962 46.6405H106.042ZM111.983 40.7691C112.442 40.7691 112.837 40.8331 113.167 40.9611C113.498 41.0891 113.77 41.2704 113.983 41.505C114.207 41.729 114.367 42.001 114.463 42.3209C114.57 42.6303 114.623 42.9716 114.623 43.3448L112.943 43.7768C112.943 43.3715 112.863 43.0409 112.703 42.7849C112.554 42.5289 112.309 42.4009 111.967 42.4009C111.765 42.4009 111.599 42.4436 111.471 42.5289C111.344 42.6143 111.242 42.7262 111.168 42.8649C111.104 42.9929 111.056 43.1369 111.024 43.2969C111.002 43.4462 110.992 43.5902 110.992 43.7288V49.3763C110.992 49.4829 111.002 49.6002 111.024 49.7282C111.045 49.8562 111.088 49.9789 111.152 50.0962C111.226 50.2028 111.322 50.2935 111.439 50.3682C111.567 50.4428 111.727 50.4801 111.919 50.4801C112.559 50.4801 112.885 50.0215 112.895 49.1043C113.183 49.1576 113.471 49.2056 113.759 49.2483C114.047 49.2803 114.335 49.3176 114.623 49.3603C114.602 50.2028 114.367 50.8694 113.919 51.3601C113.482 51.8507 112.831 52.096 111.967 52.096C111.05 52.096 110.373 51.8667 109.936 51.4081C109.498 50.9388 109.28 50.2562 109.28 49.3603V43.8088C109.28 43.3928 109.322 43.0035 109.408 42.6409C109.504 42.2676 109.658 41.9423 109.872 41.665C110.085 41.3877 110.362 41.1691 110.704 41.0091C111.056 40.8491 111.482 40.7691 111.983 40.7691ZM118.483 40.7691C118.941 40.7691 119.336 40.8331 119.667 40.9611C119.997 41.0891 120.269 41.2704 120.483 41.505C120.707 41.729 120.867 42.001 120.963 42.3209C121.069 42.6303 121.123 42.9716 121.123 43.3448L119.443 43.7768C119.443 43.3715 119.363 43.0409 119.203 42.7849C119.053 42.5289 118.808 42.4009 118.467 42.4009C118.264 42.4009 118.099 42.4436 117.971 42.5289C117.843 42.6143 117.742 42.7262 117.667 42.8649C117.603 42.9929 117.555 43.1369 117.523 43.2969C117.502 43.4462 117.491 43.5902 117.491 43.7288V49.3763C117.491 49.4829 117.502 49.6002 117.523 49.7282C117.544 49.8562 117.587 49.9789 117.651 50.0962C117.726 50.2028 117.822 50.2935 117.939 50.3682C118.067 50.4428 118.227 50.4801 118.419 50.4801C119.059 50.4801 119.384 50.0215 119.395 49.1043C119.683 49.1576 119.971 49.2056 120.259 49.2483C120.547 49.2803 120.835 49.3176 121.123 49.3603C121.101 50.2028 120.867 50.8694 120.419 51.3601C119.981 51.8507 119.331 52.096 118.467 52.096C117.55 52.096 116.872 51.8667 116.435 51.4081C115.998 50.9388 115.779 50.2562 115.779 49.3603V43.8088C115.779 43.3928 115.822 43.0035 115.907 42.6409C116.003 42.2676 116.158 41.9423 116.371 41.665C116.584 41.3877 116.862 41.1691 117.203 41.0091C117.555 40.8491 117.982 40.7691 118.483 40.7691ZM125.126 42.4809V52H123.382V42.4809H121.59V40.8651H126.918V42.4809H125.126ZM131.395 43.9208C131.395 43.4088 131.294 43.0409 131.091 42.8169C130.888 42.5929 130.552 42.4809 130.083 42.4809H129.539V45.3607H130.099C130.547 45.3607 130.872 45.238 131.075 44.9927C131.288 44.7474 131.395 44.3901 131.395 43.9208ZM131.491 48.4803C131.491 47.9577 131.395 47.5684 131.203 47.3125C131.011 47.0565 130.675 46.9285 130.195 46.9285H129.539V50.3842H130.227C130.504 50.3842 130.723 50.3362 130.883 50.2402C131.054 50.1335 131.182 49.9949 131.267 49.8242C131.363 49.6536 131.422 49.4509 131.443 49.2163C131.475 48.9816 131.491 48.7363 131.491 48.4803ZM131.859 46.1766C132.35 46.3366 132.686 46.6405 132.867 47.0885C133.048 47.5364 133.139 48.0484 133.139 48.6243C133.139 49.7869 132.888 50.6401 132.387 51.1841C131.896 51.728 131.139 52 130.115 52H127.811V40.8651H130.243C131.224 40.8651 131.934 41.1264 132.371 41.649C132.819 42.161 133.043 42.9076 133.043 43.8888C133.043 44.4007 132.952 44.8487 132.771 45.2327C132.6 45.6166 132.296 45.9046 131.859 46.0966V46.1766ZM134.686 52V40.8651H139.629V42.4969H136.414V45.5206H139.213V47.1685H136.414V50.3682H139.629V52H134.686ZM144.475 52V47.1365H142.475V52H140.763V40.8651H142.475V45.5206H144.475V40.8651H146.187V52H144.475ZM151.568 52V47.1365H149.568V52H147.856V40.8651H149.568V45.5206H151.568V40.8651H153.28V52H151.568ZM154.933 52V40.8651H156.645V45.1527H157.381C157.957 45.1527 158.432 45.2327 158.805 45.3926C159.189 45.542 159.493 45.7606 159.717 46.0486C159.952 46.3366 160.117 46.6885 160.213 47.1045C160.309 47.5204 160.357 47.9897 160.357 48.5123C160.357 49.6749 160.117 50.5495 159.637 51.1361C159.157 51.712 158.416 52 157.413 52H154.933ZM156.645 50.3682H157.301C157.834 50.3682 158.197 50.1975 158.389 49.8562C158.592 49.5149 158.693 49.0776 158.693 48.5443C158.693 47.9364 158.586 47.4938 158.373 47.2165C158.17 46.9285 157.802 46.7845 157.269 46.7845H156.645V50.3682ZM161.221 52V40.8651H162.949V52H161.221ZM168.411 52L167.147 48.1764H167.115L165.851 52H163.931L166.187 46.1766C165.835 45.2913 165.483 44.4114 165.131 43.5368C164.79 42.6516 164.443 41.761 164.091 40.8651H166.027C166.208 41.4304 166.39 41.9903 166.571 42.5449C166.752 43.0889 166.934 43.6435 167.115 44.2088L167.179 44.1928L168.235 40.8651H170.187L168.027 46.1766C168.411 47.1578 168.795 48.1337 169.179 49.1043C169.573 50.0642 169.963 51.0294 170.347 52H168.411ZM174.572 52V40.8651H179.516V42.4969H176.3V45.5206H179.1V47.1685H176.3V50.3682H179.516V52H174.572ZM186.201 40.8651V52H184.49V42.4969H182.81V46.7845C182.81 47.6804 182.778 48.4324 182.714 49.0403C182.65 49.6482 182.532 50.1602 182.362 50.5761C182.191 50.9921 181.962 51.3334 181.674 51.6C181.386 51.856 181.013 52.0853 180.554 52.288L179.898 51.0081C180.175 50.8481 180.399 50.6721 180.57 50.4801C180.751 50.2882 180.895 50.0535 181.002 49.7762C181.109 49.4989 181.178 49.1629 181.21 48.7683C181.253 48.363 181.274 47.8617 181.274 47.2645V40.8651H186.201ZM187.899 52V40.8651H192.843V42.4969H189.627V45.5206H192.427V47.1685H189.627V50.3682H192.843V52H187.899ZM197.912 45.0247L195.577 52H193.913V40.8651H195.593V47.9204H195.657L197.976 40.8651H199.656V52H197.96V45.0247H197.912ZM195.833 38.3373C195.843 38.4547 195.875 38.5773 195.929 38.7053C195.993 38.8226 196.067 38.9346 196.153 39.0413C196.249 39.1479 196.355 39.2386 196.473 39.3132C196.59 39.3772 196.723 39.4092 196.872 39.4092C197.032 39.4092 197.171 39.3772 197.288 39.3132C197.416 39.2386 197.523 39.1479 197.608 39.0413C197.694 38.9346 197.758 38.8226 197.8 38.7053C197.854 38.5773 197.88 38.4547 197.88 38.3373H199.144C199.123 38.5613 199.064 38.8066 198.968 39.0733C198.872 39.3292 198.728 39.5692 198.536 39.7932C198.355 40.0065 198.126 40.1878 197.848 40.3371C197.582 40.4758 197.256 40.5451 196.872 40.5451C196.457 40.5451 196.105 40.4758 195.817 40.3371C195.529 40.1878 195.294 40.0065 195.113 39.7932C194.931 39.5692 194.798 39.3292 194.713 39.0733C194.627 38.8066 194.579 38.5613 194.569 38.3373H195.833Z" fill="#B34537"/>
<defs>
<linearGradient id="paint0_linear_1915_432" x1="25.8837" y1="24.551" x2="44.1637" y2="24.551" gradientUnits="userSpaceOnUse">
<stop stop-color="#008652"/>
<stop offset="1" stop-color="#71974E"/>
</linearGradient>
<linearGradient id="paint1_linear_1915_432" x1="20.6489" y1="35.4828" x2="49.3996" y2="35.4828" gradientUnits="userSpaceOnUse">
<stop stop-color="#008652"/>
<stop offset="1" stop-color="#71974E"/>
</linearGradient>
<linearGradient id="paint2_linear_1915_432" x1="28.9357" y1="13.9985" x2="41.1086" y2="13.9985" gradientUnits="userSpaceOnUse">
<stop stop-color="#008652"/>
<stop offset="1" stop-color="#71974E"/>
</linearGradient>
</defs>
</svg>
