<svg width="80" height="80" viewBox="0 0 80 80" fill="none" xmlns="http://www.w3.org/2000/svg">
<circle cx="40" cy="40" r="40" fill="white"/>
<path d="M25.4098 52.7341C25.4527 52.9148 25.5317 53.085 25.642 53.2345C25.7524 53.3839 25.8918 53.5094 26.052 53.6036C26.2121 53.6977 26.3897 53.7584 26.5739 53.7822C26.7581 53.8059 26.9453 53.7921 27.124 53.7417C35.3206 51.4785 43.9771 51.4777 52.1741 53.7393C52.3528 53.7897 52.5399 53.8035 52.7241 53.7797C52.9082 53.756 53.0857 53.6953 53.2458 53.6012C53.4059 53.5071 53.5453 53.3816 53.6556 53.2323C53.766 53.083 53.845 52.9128 53.8879 52.7322L58.2688 34.1152C58.3275 33.866 58.3154 33.6053 58.2339 33.3626C58.1524 33.1199 58.0047 32.9048 57.8076 32.7414C57.6104 32.5781 57.3715 32.473 57.1179 32.4381C56.8643 32.4032 56.6059 32.4398 56.3719 32.5438L47.6778 36.4078C47.3639 36.5473 47.0091 36.5643 46.6833 36.4553C46.3575 36.3464 46.0843 36.1194 45.9174 35.8191L40.8553 26.7072C40.7362 26.4929 40.562 26.3143 40.3506 26.1899C40.1393 26.0656 39.8986 26 39.6533 26C39.4081 26 39.1674 26.0656 38.956 26.1899C38.7447 26.3143 38.5705 26.4929 38.4514 26.7072L33.3892 35.8191C33.2224 36.1194 32.9492 36.3464 32.6234 36.4553C32.2976 36.5643 31.9428 36.5473 31.6288 36.4078L22.9334 32.5432C22.6995 32.4392 22.4412 32.4026 22.1876 32.4375C21.934 32.4724 21.6952 32.5774 21.498 32.7406C21.3009 32.9039 21.1532 33.119 21.0716 33.3616C20.9901 33.6043 20.9779 33.8649 21.0364 34.1141L25.4098 52.7341Z" stroke="#27AE60" stroke-width="2" stroke-linecap="round" stroke-linejoin="round"/>
<path d="M34.1533 46.8325C37.8099 46.4478 41.4968 46.4478 45.1533 46.8325" stroke="#333333" stroke-width="2" stroke-linecap="round" stroke-linejoin="round"/>
</svg>
