<svg width="30" height="25" viewBox="0 0 30 25" fill="none" xmlns="http://www.w3.org/2000/svg">
<g clip-path="url(#clip0_1256_2258)">
<path d="M2.68607 21.2723L4.50759 19.4693L3.89602 18.8639L2.75427 19.9943L0.679768 17.9396L0 18.6144L2.68607 21.2723ZM3.43624 16.2971L3.89602 16.7506L4.83977 15.8132L5.38755 16.3557L4.44159 17.293L5.02677 17.8702L6.19491 16.7137L6.74269 17.2561L4.89477 19.0874L2.2065 16.4294L4.05661 14.596L4.60439 15.1384L3.43624 16.2971ZM9.41776 14.6133L7.58965 14.0948C7.69147 13.8791 7.72183 13.6372 7.67641 13.4035C7.631 13.1698 7.51213 12.9562 7.33666 12.7929C7.23168 12.6963 7.10818 12.6213 6.97342 12.5724C6.83865 12.5234 6.69533 12.5016 6.55188 12.508C6.40843 12.5145 6.26773 12.5492 6.13805 12.61C6.00837 12.6709 5.89233 12.7566 5.79673 12.8623L4.43499 14.2098L7.13427 16.8699L7.81624 16.1951L5.64274 14.0427L6.08272 13.6087C6.12742 13.5627 6.1809 13.5259 6.24008 13.5003C6.29925 13.4748 6.36297 13.461 6.42756 13.4598C6.49215 13.4586 6.55635 13.47 6.61647 13.4933C6.67659 13.5166 6.73144 13.5514 6.77788 13.5957C6.86913 13.6887 6.91923 13.8136 6.91717 13.943C6.9151 14.0723 6.86105 14.1956 6.76688 14.2857L6.3665 14.6828L8.6896 15.3337L9.41776 14.6133ZM8.18802 10.391C9.02838 9.55996 10.1393 9.64024 10.9247 10.4192C11.7101 11.1981 11.7937 12.2982 10.9533 13.1292C10.1129 13.9602 9.00418 13.88 8.21662 13.0945C7.42905 12.309 7.34766 11.2155 8.18802 10.3845V10.391ZM8.72039 10.9247C8.29361 11.3457 8.43661 11.8599 8.95578 12.3741C9.47496 12.8884 9.99193 13.0251 10.4187 12.6063C10.8455 12.1875 10.7025 11.6711 10.1833 11.1569C9.66415 10.6427 9.14717 10.4908 8.72039 10.9247ZM11.7343 8.99365L11.2327 7.49218L12.029 6.70455L12.6956 9.28006L13.7472 10.3215L13.0674 10.9963L12.0202 9.9592L9.52776 9.18025L10.2779 8.43819L11.7189 8.99148L11.7343 8.99365ZM24.1615 18.1587L26.8497 15.5008L26.1326 14.7913L23.4465 17.4492L24.1615 18.1587ZM13.8836 7.98254L15.9735 6.9953L14.4291 8.52281L15.0517 9.13903L17.7356 6.4789L16.8842 5.63486L14.8625 6.61125L15.8745 4.6346L14.9945 3.76453L12.3084 6.42248L12.9288 7.0387L14.4731 5.51118L13.4766 7.57897L13.8836 7.98254ZM18.5407 8.36008L18.081 8.81356L19.1127 9.83335L18.5649 10.3758L17.5354 9.356L16.9502 9.93316L18.2042 11.1743L17.6564 11.7167L15.7205 9.8008L18.4065 7.14068L20.3425 9.05658L19.7947 9.59902L18.5407 8.36008ZM21.1322 15.1623L22.9537 16.9675L23.5675 16.36L22.4258 15.2317L24.5003 13.177L23.8183 12.5043L21.1322 15.1623ZM28.3699 17.0044L27.5075 19.8229H27.5053L29.362 17.9873L30 18.6187L27.3139 21.2767L26.4714 20.4435L27.2061 17.5382H27.2083L25.3736 19.3543L24.7532 18.7402L27.4371 16.0823L28.3699 17.0044ZM20.624 14.6589L21.141 12.8493C21.3596 12.9512 21.6054 12.9817 21.8427 12.9364C22.0801 12.8912 22.2966 12.7725 22.461 12.5976C22.558 12.4937 22.6332 12.3718 22.6823 12.2391C22.7314 12.1064 22.7535 11.9654 22.7471 11.8242C22.7408 11.6831 22.7062 11.5445 22.6454 11.4166C22.5846 11.2887 22.4987 11.1739 22.3928 11.0788L20.9474 9.64675L18.2591 12.3134L18.9411 12.9882L21.119 10.8358L21.636 11.3587C21.6811 11.403 21.7168 11.4556 21.7413 11.5136C21.7657 11.5715 21.7784 11.6336 21.7785 11.6964C21.7786 11.7592 21.7661 11.8213 21.7419 11.8794C21.7176 11.9374 21.682 11.9901 21.6371 12.0346C21.5922 12.079 21.5388 12.1143 21.4801 12.1384C21.4213 12.1625 21.3583 12.175 21.2947 12.1751C21.2311 12.1752 21.168 12.1629 21.1092 12.139C21.0504 12.1151 20.9969 12.08 20.9518 12.0357L20.459 11.5518L19.8871 13.9385L20.624 14.6589Z" fill="#251B00"/>
<path d="M3.19629 21.7834H26.8078L15.0009 10.0948L3.19629 21.7834Z" fill="#66C05D"/>
</g>
<defs>
<clipPath id="clip0_1256_2258">
<rect width="30" height="24" fill="white" transform="translate(-0.00012207 0.773682)"/>
</clipPath>
</defs>
</svg>
