<svg width="40" height="33" viewBox="0 0 40 33" fill="none" xmlns="http://www.w3.org/2000/svg">
<g clip-path="url(#clip0_1256_17019)">
<path d="M3.62088 27.5912L6.04586 25.1907L5.23168 24.3848L3.71167 25.8898L0.949895 23.1543L0.0449219 24.0526L3.62088 27.5912ZM4.61958 20.9676L5.23168 21.5713L6.4881 20.3235L7.21735 21.0456L5.958 22.2935L6.73704 23.0618L8.29219 21.5222L9.02144 22.2444L6.56132 24.6824L2.98242 21.1438L5.44547 18.703L6.17472 19.4251L4.61958 20.9676ZM12.5828 18.7261L10.149 18.0357C10.2845 17.7485 10.325 17.4265 10.2645 17.1154C10.204 16.8043 10.0458 16.5199 9.81219 16.3025C9.67243 16.1739 9.50802 16.074 9.32861 16.0089C9.1492 15.9438 8.9584 15.9147 8.76742 15.9233C8.57644 15.9319 8.38913 15.9781 8.21649 16.0591C8.04385 16.1401 7.88936 16.2543 7.76209 16.395L5.94921 18.1888L9.54275 21.7302L10.4506 20.8319L7.55708 17.9664L8.14282 17.3886C8.20234 17.3274 8.27353 17.2784 8.35231 17.2443C8.4311 17.2103 8.51592 17.192 8.60191 17.1903C8.6879 17.1887 8.77337 17.2039 8.8534 17.235C8.93344 17.266 9.00647 17.3123 9.0683 17.3713C9.18977 17.4951 9.25647 17.6613 9.25372 17.8336C9.25098 18.0058 9.17902 18.1699 9.05365 18.2899L8.52063 18.8185L11.6133 19.6851L12.5828 18.7261ZM10.9456 13.1049C12.0644 11.9985 13.5434 12.1054 14.5889 13.1424C15.6345 14.1794 15.7458 15.6439 14.627 16.7503C13.5082 17.8566 12.0322 17.7497 10.9837 16.704C9.93519 15.6584 9.82683 14.2025 10.9456 13.0962V13.1049ZM11.6544 13.8154C11.0862 14.3758 11.2765 15.0604 11.9677 15.745C12.6589 16.4296 13.3471 16.6116 13.9153 16.0541C14.4835 15.4966 14.2931 14.8091 13.6019 14.1245C12.9108 13.4399 12.2225 13.2377 11.6544 13.8154ZM15.6667 11.2446L14.9989 9.24569L16.0591 8.19713L16.9465 11.6259L18.3465 13.0124L17.4415 13.9108L16.0474 12.53L12.7292 11.493L13.7279 10.5051L15.6462 11.2417L15.6667 11.2446ZM32.211 23.446L35.7899 19.9075L34.8351 18.9629L31.2592 22.5015L32.211 23.446ZM18.528 9.89851L21.3103 8.5842L19.2544 10.6178L20.0832 11.4381L23.6562 7.89672L22.5228 6.77305L19.8313 8.07292L21.1785 5.44141L20.0071 4.28308L16.4311 7.82161L17.257 8.64197L19.3129 6.6084L17.9862 9.36123L18.528 9.89851ZM24.7281 10.4011L24.116 11.0048L25.4896 12.3625L24.7604 13.0846L23.3897 11.727L22.6107 12.4954L24.28 14.1476L23.5508 14.8698L20.9735 12.3192L24.5495 8.77774L27.1268 11.3284L26.3975 12.0505L24.7281 10.4011ZM28.1782 19.4569L30.6031 21.8602L31.4203 21.0514L29.9003 19.5493L32.662 16.8138L31.7541 15.9183L28.1782 19.4569ZM37.8136 21.9093L36.6656 25.6616H36.6627L39.1345 23.2178L39.9838 24.0584L36.4079 27.5969L35.2862 26.4877L36.2644 22.6199H36.2673L33.8247 25.0376L32.9988 24.2202L36.5719 20.6816L37.8136 21.9093ZM27.5016 18.7867L28.1899 16.3776C28.4809 16.5132 28.8081 16.5538 29.1241 16.4936C29.44 16.4333 29.7283 16.2753 29.9471 16.0426C30.0763 15.9042 30.1764 15.742 30.2418 15.5653C30.3072 15.3886 30.3365 15.2008 30.3281 15.0129C30.3196 14.825 30.2736 14.6406 30.1927 14.4703C30.1117 14.3 29.9974 14.1471 29.8563 14.0205L27.9322 12.1141L24.3533 15.6642L25.2612 16.5625L28.1606 13.697L28.8488 14.3932C28.9088 14.4522 28.9565 14.5222 28.989 14.5994C29.0216 14.6765 29.0384 14.7592 29.0385 14.8428C29.0387 14.9263 29.0221 15.0091 28.9898 15.0863C28.9575 15.1636 28.9101 15.2338 28.8503 15.293C28.7905 15.3521 28.7195 15.3991 28.6413 15.4312C28.563 15.4633 28.4792 15.4799 28.3945 15.48C28.3097 15.4802 28.2258 15.4639 28.1475 15.432C28.0692 15.4002 27.998 15.3534 27.938 15.2944L27.282 14.6503L26.5205 17.8277L27.5016 18.7867Z" fill="#251B00"/>
<path d="M4.30078 28.2695H35.7347L20.0163 12.7086L4.30078 28.2695Z" fill="#66C05D"/>
</g>
<defs>
<clipPath id="clip0_1256_17019">
<rect width="39.9389" height="31.9511" fill="white" transform="translate(0.0449219 0.300659)"/>
</clipPath>
</defs>
</svg>
