<svg width="150" height="24" viewBox="0 0 150 24" fill="none" xmlns="http://www.w3.org/2000/svg">
<path d="M12.509 20.0079L18.3285 23.8424C19.0723 24.3325 19.9959 23.6035 19.7752 22.7005L18.0938 15.8218C18.0464 15.6302 18.052 15.4286 18.11 15.2402C18.1679 15.0518 18.2758 14.8842 18.4212 14.7567L23.6397 10.2395C24.3254 9.64593 23.9715 8.46242 23.0905 8.40296L16.2755 7.94297C16.0919 7.92933 15.9159 7.86174 15.7678 7.74807C15.6197 7.63439 15.5058 7.47932 15.4392 7.3009L12.8974 0.644133C12.8284 0.454755 12.7055 0.291715 12.5452 0.176666C12.3849 0.061616 12.1948 0 12 0C11.8052 0 11.6151 0.061616 11.4548 0.176666C11.2945 0.291715 11.1717 0.454755 11.1026 0.644133L8.56083 7.3009C8.49424 7.47932 8.38027 7.63439 8.23222 7.74807C8.08416 7.86174 7.9081 7.92933 7.72453 7.94297L0.909465 8.40296C0.0284954 8.46242 -0.325419 9.64593 0.360275 10.2395L5.57881 14.7567C5.72424 14.8842 5.83212 15.0518 5.89004 15.2402C5.94796 15.4286 5.95357 15.6302 5.90622 15.8218L4.34694 22.201C4.08205 23.2847 5.19034 24.1595 6.08299 23.5713L11.491 20.0079C11.6431 19.9072 11.8197 19.8537 12 19.8537C12.1803 19.8537 12.3569 19.9072 12.509 20.0079Z" fill="#27AE60"/>
<path d="M44.009 20.0079L49.8285 23.8424C50.5723 24.3325 51.4959 23.6035 51.2752 22.7005L49.5938 15.8218C49.5464 15.6302 49.552 15.4286 49.61 15.2402C49.6679 15.0518 49.7758 14.8842 49.9212 14.7567L55.1397 10.2395C55.8254 9.64593 55.4715 8.46242 54.5905 8.40296L47.7755 7.94297C47.5919 7.92933 47.4159 7.86174 47.2678 7.74807C47.1197 7.63439 47.0058 7.47932 46.9392 7.3009L44.3974 0.644133C44.3284 0.454755 44.2055 0.291715 44.0452 0.176666C43.8849 0.061616 43.6948 0 43.5 0C43.3052 0 43.1151 0.061616 42.9548 0.176666C42.7945 0.291715 42.6717 0.454755 42.6026 0.644133L40.0608 7.3009C39.9942 7.47932 39.8803 7.63439 39.7322 7.74807C39.5842 7.86174 39.4081 7.92933 39.2245 7.94297L32.4095 8.40296C31.5285 8.46242 31.1746 9.64593 31.8603 10.2395L37.0788 14.7567C37.2242 14.8842 37.3321 15.0518 37.39 15.2402C37.448 15.4286 37.4536 15.6302 37.4062 15.8218L35.8469 22.201C35.5821 23.2847 36.6903 24.1595 37.583 23.5713L42.991 20.0079C43.1431 19.9072 43.3197 19.8537 43.5 19.8537C43.6803 19.8537 43.8569 19.9072 44.009 20.0079Z" fill="#27AE60"/>
<path d="M75.509 20.0079L81.3285 23.8424C82.0723 24.3325 82.9959 23.6035 82.7752 22.7005L81.0938 15.8218C81.0464 15.6302 81.052 15.4286 81.11 15.2402C81.1679 15.0518 81.2758 14.8842 81.4212 14.7567L86.6397 10.2395C87.3254 9.64593 86.9715 8.46242 86.0905 8.40296L79.2755 7.94297C79.0919 7.92933 78.9159 7.86174 78.7678 7.74807C78.6197 7.63439 78.5058 7.47932 78.4392 7.3009L75.8974 0.644133C75.8284 0.454755 75.7055 0.291715 75.5452 0.176666C75.3849 0.061616 75.1948 0 75 0C74.8052 0 74.6151 0.061616 74.4548 0.176666C74.2945 0.291715 74.1717 0.454755 74.1026 0.644133L71.5608 7.3009C71.4942 7.47932 71.3803 7.63439 71.2322 7.74807C71.0842 7.86174 70.9081 7.92933 70.7245 7.94297L63.9095 8.40296C63.0285 8.46242 62.6746 9.64593 63.3603 10.2395L68.5788 14.7567C68.7242 14.8842 68.8321 15.0518 68.89 15.2402C68.948 15.4286 68.9536 15.6302 68.9062 15.8218L67.3469 22.201C67.0821 23.2847 68.1903 24.1595 69.083 23.5713L74.491 20.0079C74.6431 19.9072 74.8197 19.8537 75 19.8537C75.1803 19.8537 75.3569 19.9072 75.509 20.0079Z" fill="#27AE60"/>
<path d="M107.009 20.0079L112.828 23.8424C113.572 24.3325 114.496 23.6035 114.275 22.7005L112.594 15.8218C112.546 15.6302 112.552 15.4286 112.61 15.2402C112.668 15.0518 112.776 14.8842 112.921 14.7567L118.14 10.2395C118.825 9.64593 118.472 8.46242 117.591 8.40296L110.775 7.94297C110.592 7.92933 110.416 7.86174 110.268 7.74807C110.12 7.63439 110.006 7.47932 109.939 7.3009L107.397 0.644133C107.328 0.454755 107.206 0.291715 107.045 0.176666C106.885 0.061616 106.695 0 106.5 0C106.305 0 106.115 0.061616 105.955 0.176666C105.795 0.291715 105.672 0.454755 105.603 0.644133L103.061 7.3009C102.994 7.47932 102.88 7.63439 102.732 7.74807C102.584 7.86174 102.408 7.92933 102.225 7.94297L95.4095 8.40296C94.5285 8.46242 94.1746 9.64593 94.8603 10.2395L100.079 14.7567C100.224 14.8842 100.332 15.0518 100.39 15.2402C100.448 15.4286 100.454 15.6302 100.406 15.8218L98.8469 22.201C98.5821 23.2847 99.6903 24.1595 100.583 23.5713L105.991 20.0079C106.143 19.9072 106.32 19.8537 106.5 19.8537C106.68 19.8537 106.857 19.9072 107.009 20.0079Z" fill="#27AE60"/>
<path d="M138.509 20.0079L144.328 23.8424C145.072 24.3325 145.996 23.6035 145.775 22.7005L144.094 15.8218C144.046 15.6302 144.052 15.4286 144.11 15.2402C144.168 15.0518 144.276 14.8842 144.421 14.7567L149.64 10.2395C150.325 9.64593 149.972 8.46242 149.091 8.40296L142.275 7.94297C142.092 7.92933 141.916 7.86174 141.768 7.74807C141.62 7.63439 141.506 7.47932 141.439 7.3009L138.897 0.644133C138.828 0.454755 138.706 0.291715 138.545 0.176666C138.385 0.061616 138.195 0 138 0C137.805 0 137.615 0.061616 137.455 0.176666C137.295 0.291715 137.172 0.454755 137.103 0.644133L134.561 7.3009C134.494 7.47932 134.38 7.63439 134.232 7.74807C134.084 7.86174 133.908 7.92933 133.725 7.94297L126.909 8.40296C126.028 8.46242 125.675 9.64593 126.36 10.2395L131.579 14.7567C131.724 14.8842 131.832 15.0518 131.89 15.2402C131.948 15.4286 131.954 15.6302 131.906 15.8218L130.347 22.201C130.082 23.2847 131.19 24.1595 132.083 23.5713L137.491 20.0079C137.643 19.9072 137.82 19.8537 138 19.8537C138.18 19.8537 138.357 19.9072 138.509 20.0079Z" fill="#E0E0DD"/>
</svg>
