<svg width="54" height="12" viewBox="0 0 54 12" fill="none" xmlns="http://www.w3.org/2000/svg">
<path fill-rule="evenodd" clip-rule="evenodd" d="M6.82161 0.209517C5.62523 0.0878845 4.41918 0.326875 3.36924 0.893639C2.31931 1.4604 1.47701 2.32712 0.958145 3.37465C0.439277 4.42218 0.269303 5.59911 0.471587 6.74366C0.673871 7.88822 1.23848 8.94421 2.08781 9.76649C2.93715 10.5888 4.0295 11.137 5.21474 11.3357C6.39998 11.5345 7.61991 11.3741 8.70686 10.8766C9.79381 10.379 10.6944 9.56875 11.2849 8.55715C11.8753 7.54555 12.1267 6.38227 12.0044 5.2272C11.8698 3.94327 11.2809 2.74332 10.3369 1.82939C9.39291 0.915471 8.15147 0.343404 6.82161 0.209517ZM6.63292 8.77279C5.98947 8.85611 5.33515 8.74273 4.76192 8.44859C4.18868 8.15445 3.72535 7.69434 3.43704 7.13293C3.14873 6.57151 3.04993 5.93701 3.15454 5.31861C3.25915 4.7002 3.5619 4.12898 4.02024 3.68522C4.47859 3.24146 5.06948 2.94747 5.70988 2.84457C6.35028 2.74168 7.00799 2.83504 7.59057 3.11155C8.17315 3.38805 8.65132 3.8338 8.95786 4.38614C9.26441 4.93848 9.38393 5.56965 9.29962 6.19094C9.21115 6.84443 8.90194 7.45154 8.41986 7.91828C7.93778 8.38502 7.30972 8.68536 6.63292 8.77279ZM15.1188 0.431853C14.9169 0.432319 14.7176 0.476236 14.5354 0.560406C14.3532 0.644577 14.1928 0.766885 14.0658 0.918429C13.9388 1.06997 13.8484 1.24694 13.8011 1.43646C13.7539 1.62598 13.751 1.82327 13.7927 2.01399C13.9205 2.63186 14.5185 3.05404 15.1698 3.05404H18.95L13.0672 10.5678C13.0237 10.6233 12.9971 10.6894 12.9903 10.7586C12.9835 10.8279 12.9968 10.8976 13.0288 10.96C13.0608 11.0223 13.1101 11.0749 13.1713 11.1117C13.2324 11.1485 13.303 11.1681 13.3751 11.1684H22.6028C23.2537 11.1684 23.8521 10.7463 23.9799 10.1284C24.0216 9.93766 24.0188 9.7404 23.9716 9.5509C23.9244 9.36141 23.834 9.18444 23.7071 9.03289C23.5801 8.88133 23.4197 8.759 23.2376 8.67477C23.0555 8.59055 22.8563 8.54656 22.6544 8.546H18.0485L23.9268 1.03805C23.9707 0.982041 23.9976 0.915324 24.0045 0.845385C24.0113 0.775446 23.9978 0.705051 23.9655 0.6421C23.9332 0.579148 23.8834 0.526129 23.8216 0.488992C23.7598 0.451855 23.6885 0.432068 23.6157 0.431853H15.1188ZM51.992 0.462099C51.6865 0.532212 51.415 0.700855 51.2223 0.940142C51.0295 1.17943 50.9272 1.47503 50.9322 1.77807V6.14392L43.6025 0.514313C43.545 0.470276 43.4758 0.442794 43.4028 0.43503C43.3299 0.427265 43.2562 0.439533 43.1901 0.470422C43.1241 0.501311 43.0684 0.549567 43.0295 0.609637C42.9906 0.669707 42.9701 0.739152 42.9703 0.809983V9.82451C42.9653 10.1276 43.0677 10.4232 43.2604 10.6625C43.4531 10.9018 43.7247 11.0704 44.0302 11.1405C44.2286 11.1826 44.4342 11.1812 44.632 11.1364C44.8297 11.0916 45.0145 11.0045 45.1728 10.8816C45.331 10.7586 45.4586 10.603 45.5462 10.4261C45.6338 10.2492 45.6791 10.0556 45.6788 9.85954V5.4559L53.0086 11.0856C53.0661 11.1296 53.1352 11.1571 53.2081 11.1649C53.2811 11.1726 53.3548 11.1603 53.4208 11.1295C53.4868 11.0986 53.5424 11.0504 53.5813 10.9903C53.6202 10.9303 53.6407 10.8609 53.6405 10.7901V1.74263C53.6407 1.54662 53.5954 1.35307 53.5078 1.17625C53.4202 0.999418 53.2926 0.843822 53.1344 0.720931C52.9761 0.598039 52.7914 0.510986 52.5937 0.466189C52.396 0.421393 52.1904 0.419995 51.992 0.462099ZM32.9075 2.80305C36.0078 2.80305 38.3243 4.38434 38.3243 5.7988C38.3243 7.21326 36.0078 8.79455 32.9075 8.79455C29.8072 8.79455 27.4908 7.21326 27.4908 5.7988C27.4908 4.38434 29.8072 2.80305 32.9075 2.80305ZM32.9075 0.180968C28.42 0.180968 24.7823 2.69618 24.7823 5.7988C24.7823 8.90142 28.42 11.4166 32.9075 11.4166C37.395 11.4166 41.0326 8.90142 41.0326 5.7988C41.0326 2.69618 37.3949 0.180968 32.9075 0.180968Z" fill="#0069FF"/>
</svg>
