<svg width="40" height="10" viewBox="0 0 40 10" fill="none" xmlns="http://www.w3.org/2000/svg">
<path fill-rule="evenodd" clip-rule="evenodd" d="M4.83209 0.945228C3.93343 0.853865 3.02751 1.03338 2.23885 1.45911C1.45019 1.88483 0.817505 2.53586 0.427759 3.32271C0.038012 4.10956 -0.0896635 4.99361 0.0622814 5.85334C0.214226 6.71306 0.638333 7.50627 1.27631 8.12392C1.91428 8.74158 2.7348 9.15336 3.62509 9.30267C4.51538 9.45197 5.43173 9.33148 6.24819 8.95775C7.06465 8.58402 7.74113 7.97539 8.18466 7.21553C8.62819 6.45567 8.81699 5.58187 8.7251 4.71425C8.62399 3.74983 8.18166 2.84849 7.47259 2.162C6.76351 1.4755 5.831 1.0458 4.83209 0.945228ZM4.69035 7.37751C4.20703 7.44009 3.71554 7.35493 3.28495 7.13399C2.85437 6.91305 2.50633 6.56744 2.28977 6.14573C2.07321 5.72403 1.999 5.24742 2.07758 4.78291C2.15615 4.3184 2.38356 3.88932 2.72785 3.55599C3.07213 3.22267 3.51598 3.00184 3.99701 2.92454C4.47805 2.84725 4.97208 2.91738 5.40969 3.12508C5.84729 3.33278 6.20646 3.6676 6.43673 4.08249C6.66699 4.49738 6.75677 4.97148 6.69344 5.43816C6.62698 5.92902 6.39472 6.38506 6.03261 6.73565C5.67049 7.08624 5.19873 7.31184 4.69035 7.37751ZM11.0645 1.11224C10.9128 1.11259 10.7631 1.14557 10.6263 1.2088C10.4894 1.27202 10.3689 1.36389 10.2735 1.47773C10.1781 1.59156 10.1102 1.72449 10.0747 1.86684C10.0392 2.0092 10.0371 2.1574 10.0684 2.30066C10.1644 2.76477 10.6136 3.08188 11.1028 3.08188H13.9423L9.52347 8.72585C9.49078 8.76751 9.47077 8.81714 9.46568 8.86917C9.46058 8.9212 9.4706 8.97357 9.49461 9.0204C9.51863 9.06724 9.55568 9.1067 9.60162 9.13435C9.64757 9.16201 9.70058 9.17676 9.75473 9.17697H16.6861C17.175 9.17697 17.6245 8.85993 17.7205 8.39574C17.7518 8.2525 17.7497 8.10433 17.7142 7.96199C17.6788 7.81965 17.6109 7.68672 17.5156 7.57288C17.4202 7.45904 17.2997 7.36715 17.163 7.30389C17.0262 7.24062 16.8765 7.20758 16.7248 7.20716H13.2652L17.6806 1.56758C17.7136 1.52551 17.7338 1.47539 17.7389 1.42286C17.7441 1.37032 17.7339 1.31745 17.7097 1.27016C17.6854 1.22288 17.648 1.18305 17.6016 1.15516C17.5552 1.12726 17.5016 1.1124 17.4469 1.11224H11.0645ZM38.7617 1.13495C38.5323 1.18762 38.3283 1.3143 38.1835 1.49404C38.0388 1.67378 37.9619 1.89582 37.9656 2.12345V5.40284L32.4599 1.17418C32.4168 1.1411 32.3648 1.12045 32.31 1.11462C32.2552 1.10879 32.1998 1.118 32.1502 1.14121C32.1006 1.16441 32.0588 1.20066 32.0296 1.24578C32.0004 1.2909 31.9849 1.34306 31.9851 1.39627V8.16751C31.9813 8.39514 32.0582 8.61719 32.203 8.79693C32.3477 8.97668 32.5517 9.10335 32.7812 9.156C32.9302 9.18765 33.0847 9.1866 33.2332 9.15294C33.3818 9.11928 33.5206 9.05386 33.6395 8.96152C33.7583 8.86917 33.8542 8.75225 33.92 8.61938C33.9857 8.48651 34.0198 8.34108 34.0196 8.19382V4.88604L39.5253 9.11479C39.5685 9.14785 39.6204 9.16848 39.6752 9.1743C39.73 9.18013 39.7854 9.17091 39.8349 9.14772C39.8845 9.12453 39.9263 9.0883 39.9555 9.0432C39.9847 8.9981 40.0001 8.94596 40 8.89277V2.09682C40.0002 1.94959 39.9661 1.80421 39.9003 1.67138C39.8345 1.53856 39.7386 1.42169 39.6198 1.32938C39.5009 1.23707 39.3622 1.17168 39.2137 1.13803C39.0652 1.10438 38.9107 1.10333 38.7617 1.13495ZM24.4264 2.89335C26.7552 2.89335 28.4952 4.08114 28.4952 5.1436C28.4952 6.20607 26.7552 7.39386 24.4264 7.39386C22.0977 7.39386 20.3577 6.20607 20.3577 5.1436C20.3577 4.08114 22.0977 2.89335 24.4264 2.89335ZM24.4264 0.923785C21.0557 0.923785 18.3232 2.81308 18.3232 5.1436C18.3232 7.47413 21.0557 9.36342 24.4264 9.36342C27.7972 9.36342 30.5296 7.47413 30.5296 5.1436C30.5296 2.81308 27.7971 0.923785 24.4264 0.923785Z" fill="#0069FF"/>
</svg>
