<svg width="80" height="80" viewBox="0 0 80 80" fill="none" xmlns="http://www.w3.org/2000/svg">
<circle cx="40" cy="40" r="40" fill="white"/>
<path d="M25.7513 41.625V26.5C25.7513 26.1353 25.8962 25.7856 26.1541 25.5277C26.4119 25.2699 26.7617 25.125 27.1263 25.125H43.6277L53.2527 34.75V41.625" stroke="#27AE60" stroke-width="2" stroke-linecap="round" stroke-linejoin="round"/>
<path d="M43.6277 25.125V34.75H53.2541" stroke="#27AE60" stroke-width="2" stroke-linecap="round" stroke-linejoin="round"/>
<path d="M25.7527 52.625H28.5027C29.232 52.625 29.9315 52.3353 30.4472 51.8195C30.963 51.3038 31.2527 50.6043 31.2527 49.875C31.2527 49.1457 30.963 48.4462 30.4472 47.9305C29.9315 47.4147 29.232 47.125 28.5027 47.125H25.7527V55.375" stroke="#333333" stroke-width="2" stroke-linecap="round" stroke-linejoin="round"/>
<path d="M38.8152 55.375C39.9092 55.375 40.9584 54.9404 41.732 54.1668C42.5056 53.3932 42.9402 52.344 42.9402 51.25C42.9402 50.156 42.5056 49.1068 41.732 48.3332C40.9584 47.5596 39.9092 47.125 38.8152 47.125H36.7527V55.375H38.8152Z" stroke="#333333" stroke-width="2" stroke-linecap="round" stroke-linejoin="round"/>
<path d="M53.2527 47.125H48.4402V55.375" stroke="#333333" stroke-width="2" stroke-linecap="round" stroke-linejoin="round"/>
<path d="M52.5652 51.9375H48.4402" stroke="#333333" stroke-width="2" stroke-linecap="round" stroke-linejoin="round"/>
</svg>
