<svg width="24" height="24" viewBox="0 0 24 24" fill="none" xmlns="http://www.w3.org/2000/svg">
<path d="M20.375 9H6.625C6.27982 9 6 9.22386 6 9.5V11.5C6 11.7761 6.27982 12 6.625 12H20.375C20.7202 12 21 11.7761 21 11.5V9.5C21 9.22386 20.7202 9 20.375 9Z" fill="#6FCF97"/>
<path d="M19.5 12V18.75C19.5 18.9489 19.4368 19.1397 19.3243 19.2803C19.2117 19.421 19.0591 19.5 18.9 19.5H8.1C7.94087 19.5 7.78826 19.421 7.67574 19.2803C7.56321 19.1397 7.5 18.9489 7.5 18.75V12" fill="#6FCF97"/>
<path d="M20.25 7.5H3.75C3.33579 7.5 3 7.83579 3 8.25V11.25C3 11.6642 3.33579 12 3.75 12H20.25C20.6642 12 21 11.6642 21 11.25V8.25C21 7.83579 20.6642 7.5 20.25 7.5Z" stroke="#09121F" stroke-width="1.6" stroke-linecap="round" stroke-linejoin="round"/>
<path d="M19.5 12V18.75C19.5 18.9489 19.421 19.1397 19.2803 19.2803C19.1397 19.421 18.9489 19.5 18.75 19.5H5.25C5.05109 19.5 4.86032 19.421 4.71967 19.2803C4.57902 19.1397 4.5 18.9489 4.5 18.75V12" stroke="#09121F" stroke-width="1.6" stroke-linecap="round" stroke-linejoin="round"/>
<path d="M12 7.5V19.5" stroke="#09121F" stroke-width="1.6" stroke-linecap="round" stroke-linejoin="round"/>
<path d="M16.2426 6.43945C15.182 7.50011 12 7.50011 12 7.50011C12 7.50011 12 4.31813 13.0607 3.25747C13.4827 2.83591 14.0549 2.5992 14.6514 2.59937C15.2479 2.59954 15.8199 2.83657 16.2417 3.25837C16.6635 3.68017 16.9006 4.25221 16.9007 4.84873C16.9009 5.44524 16.6642 6.01741 16.2426 6.43945V6.43945Z" stroke="#09121F" stroke-width="1.6" stroke-linecap="round" stroke-linejoin="round"/>
<path d="M7.75723 6.43945C8.81789 7.50011 11.9999 7.50011 11.9999 7.50011C11.9999 7.50011 11.9999 4.31813 10.9392 3.25747C10.5172 2.83591 9.945 2.5992 9.34848 2.59937C8.75197 2.59954 8.17993 2.83657 7.75813 3.25837C7.33633 3.68017 7.09929 4.25221 7.09912 4.84873C7.09895 5.44524 7.33567 6.01741 7.75723 6.43945V6.43945Z" stroke="#09121F" stroke-width="1.6" stroke-linecap="round" stroke-linejoin="round"/>
</svg>
