<svg width="22" height="26" viewBox="0 0 22 26" fill="none" xmlns="http://www.w3.org/2000/svg">
<g filter="url(#filter0_d_378_30112)">
<mask id="path-1-outside-1_378_30112" maskUnits="userSpaceOnUse" x="3" y="2.94434" width="16" height="19" fill="black">
<rect fill="white" x="3" y="2.94434" width="16" height="19"/>
<path fill-rule="evenodd" clip-rule="evenodd" d="M7.83555 13.9443L6.94894 12.5897C6.34355 11.6647 5.05404 11.3272 4.06767 11.8343L4.2975 11.7161C4.05272 11.842 3.93534 12.1557 4.03613 12.4165L5.2634 15.5917C5.45796 16.0951 5.95486 16.807 6.36661 17.1647C6.36661 17.1647 8.83555 19.2082 8.83555 19.9744V20.9443H12.8355L13.8355 18.9443L14.8355 20.9443H15.8355V19.9744C15.8355 19.2082 17.3444 16.795 17.3444 16.795C17.6221 16.3259 17.8536 15.4996 17.8536 14.9509V10.9161C17.8355 10.0228 17.0762 9.29887 16.1393 9.29887C15.6705 9.29887 15.2909 9.66085 15.2909 10.1077V10.4309C15.2909 9.53761 14.5315 8.81365 13.5946 8.81365C13.1258 8.81365 12.7462 9.17563 12.7462 9.62252V9.94568C12.7462 9.05238 11.9868 8.32842 11.0499 8.32842C10.5812 8.32842 10.2015 8.6904 10.2015 9.13729V9.46046C10.2015 9.31689 10.1862 9.20277 10.1565 9.11233L9.89773 4.94555C9.86274 4.3821 9.38783 3.94434 8.83555 3.94434C8.27941 3.94434 7.83555 4.39196 7.83555 4.94414V8.94434V13.9443ZM14.8536 12.9443H15.8536V16.9443H14.8536V12.9443ZM12.8536 12.9443H13.8536V16.9443H12.8536V12.9443ZM10.8536 12.9443H11.8536V16.9443H10.8536V12.9443Z"/>
</mask>
<path fill-rule="evenodd" clip-rule="evenodd" d="M7.83555 13.9443L6.94894 12.5897C6.34355 11.6647 5.05404 11.3272 4.06767 11.8343L4.2975 11.7161C4.05272 11.842 3.93534 12.1557 4.03613 12.4165L5.2634 15.5917C5.45796 16.0951 5.95486 16.807 6.36661 17.1647C6.36661 17.1647 8.83555 19.2082 8.83555 19.9744V20.9443H12.8355L13.8355 18.9443L14.8355 20.9443H15.8355V19.9744C15.8355 19.2082 17.3444 16.795 17.3444 16.795C17.6221 16.3259 17.8536 15.4996 17.8536 14.9509V10.9161C17.8355 10.0228 17.0762 9.29887 16.1393 9.29887C15.6705 9.29887 15.2909 9.66085 15.2909 10.1077V10.4309C15.2909 9.53761 14.5315 8.81365 13.5946 8.81365C13.1258 8.81365 12.7462 9.17563 12.7462 9.62252V9.94568C12.7462 9.05238 11.9868 8.32842 11.0499 8.32842C10.5812 8.32842 10.2015 8.6904 10.2015 9.13729V9.46046C10.2015 9.31689 10.1862 9.20277 10.1565 9.11233L9.89773 4.94555C9.86274 4.3821 9.38783 3.94434 8.83555 3.94434C8.27941 3.94434 7.83555 4.39196 7.83555 4.94414V8.94434V13.9443ZM14.8536 12.9443H15.8536V16.9443H14.8536V12.9443ZM12.8536 12.9443H13.8536V16.9443H12.8536V12.9443ZM10.8536 12.9443H11.8536V16.9443H10.8536V12.9443Z" fill="white"/>
<path d="M7.83555 13.9443L6.99882 14.492L8.83555 17.2983V13.9443H7.83555ZM6.94894 12.5897L7.78566 12.042L6.94894 12.5897ZM4.03613 12.4165L3.10338 12.777L4.03613 12.4165ZM5.2634 15.5917L6.19615 15.2312L5.2634 15.5917ZM6.36661 17.1647L5.71088 17.9196L5.71984 17.9274L5.72899 17.935L6.36661 17.1647ZM8.83555 20.9443H7.83555V21.9443H8.83555V20.9443ZM12.8355 20.9443V21.9443H13.4536L13.73 21.3916L12.8355 20.9443ZM13.8355 18.9443L14.73 18.4971L13.8355 16.7083L12.9411 18.4971L13.8355 18.9443ZM14.8355 20.9443L13.9411 21.3916L14.2175 21.9443H14.8355V20.9443ZM15.8355 20.9443V21.9443H16.8355V20.9443H15.8355ZM17.3444 16.795L18.1923 17.3252L18.1987 17.3149L18.2049 17.3045L17.3444 16.795ZM17.8536 10.9161H18.8536V10.906L18.8534 10.8959L17.8536 10.9161ZM10.1565 9.11233L9.15843 9.17431L9.16637 9.30212L9.20626 9.42381L10.1565 9.11233ZM9.89773 4.94555L8.89965 5.00754V5.00754L9.89773 4.94555ZM7.83555 4.94414H6.83555H7.83555ZM15.8536 12.9443H16.8536V11.9443H15.8536V12.9443ZM15.8536 16.9443V17.9443H16.8536V16.9443H15.8536ZM14.8536 16.9443H13.8536V17.9443H14.8536V16.9443ZM13.8536 12.9443H14.8536V11.9443H13.8536V12.9443ZM13.8536 16.9443V17.9443H14.8536V16.9443H13.8536ZM12.8536 16.9443H11.8536V17.9443H12.8536V16.9443ZM11.8536 12.9443H12.8536V11.9443H11.8536V12.9443ZM11.8536 16.9443V17.9443H12.8536V16.9443H11.8536ZM10.8536 16.9443H9.85364V17.9443H10.8536V16.9443ZM8.67227 13.3967L7.78566 12.042L6.11221 13.1373L6.99882 14.492L8.67227 13.3967ZM7.78566 12.042C6.89807 10.6859 5.04892 10.2054 3.61046 10.9449L4.52489 12.7237C5.05915 12.449 5.78903 12.6435 6.11221 13.1373L7.78566 12.042ZM4.52489 12.7237L4.75472 12.6055L3.84029 10.8268L3.61046 10.9449L4.52489 12.7237ZM3.84029 10.8268C3.13107 11.1914 2.82221 12.0496 3.10338 12.777L4.96888 12.056C5.01446 12.1739 5.00452 12.2839 4.97402 12.3656C4.9436 12.447 4.87647 12.5429 4.75472 12.6055L3.84029 10.8268ZM3.10338 12.777L4.33065 15.9523L6.19615 15.2312L4.96888 12.056L3.10338 12.777ZM4.33065 15.9523C4.58336 16.6061 5.17467 17.4539 5.71088 17.9196L7.02235 16.4097C6.73505 16.1601 6.33256 15.5841 6.19615 15.2312L4.33065 15.9523ZM6.36661 17.1647C5.72899 17.935 5.72893 17.935 5.72888 17.9349C5.72888 17.9349 5.72884 17.9349 5.72883 17.9349C5.72881 17.9349 5.72883 17.9349 5.72888 17.9349C5.729 17.935 5.72925 17.9352 5.72966 17.9356C5.73046 17.9362 5.73185 17.9374 5.7338 17.939C5.73769 17.9422 5.74381 17.9473 5.75203 17.9542C5.76846 17.968 5.79322 17.9888 5.82511 18.0159C5.88894 18.0702 5.98107 18.1493 6.092 18.2469C6.31488 18.4429 6.60889 18.7091 6.90011 18.9954C7.19576 19.286 7.46766 19.5768 7.65871 19.8238C7.75472 19.948 7.81303 20.0391 7.84316 20.0968C7.8837 20.1743 7.83555 20.1184 7.83555 19.9744H9.83555C9.83555 19.6388 9.71025 19.3514 9.61577 19.1706C9.51087 18.9698 9.3763 18.7756 9.24085 18.6004C8.96897 18.2488 8.62364 17.8851 8.30205 17.569C7.97604 17.2486 7.65282 16.9561 7.41277 16.745C7.29223 16.639 7.19147 16.5525 7.12029 16.492C7.08467 16.4617 7.05639 16.4379 7.03665 16.4213C7.02678 16.4131 7.01905 16.4066 7.01359 16.4021C7.01087 16.3998 7.00871 16.398 7.00714 16.3967C7.00636 16.3961 7.00573 16.3955 7.00524 16.3951C7.005 16.3949 7.00479 16.3948 7.00462 16.3946C7.00454 16.3946 7.00444 16.3945 7.0044 16.3944C7.00431 16.3944 7.00423 16.3943 6.36661 17.1647ZM7.83555 19.9744V20.9443H9.83555V19.9744H7.83555ZM8.83555 21.9443H12.8355V19.9443H8.83555V21.9443ZM13.73 21.3916L14.73 19.3915L12.9411 18.4971L11.9411 20.4971L13.73 21.3916ZM12.9411 19.3915L13.9411 21.3916L15.73 20.4971L14.73 18.4971L12.9411 19.3915ZM14.8355 21.9443H15.8355V19.9443H14.8355V21.9443ZM16.8355 20.9443V19.9744H14.8355V20.9443H16.8355ZM16.8355 19.9744C16.8355 20.0102 16.8465 19.8882 16.9921 19.5444C17.1161 19.2517 17.2882 18.9092 17.47 18.5722C17.6502 18.2384 17.8315 17.9253 17.9685 17.6946C18.0367 17.5797 18.0934 17.4861 18.1327 17.4218C18.1524 17.3897 18.1677 17.3649 18.1778 17.3484C18.1829 17.3402 18.1867 17.3341 18.1892 17.3302C18.1904 17.3282 18.1913 17.3268 18.1918 17.326C18.1921 17.3255 18.1922 17.3253 18.1923 17.3251C18.1924 17.3251 18.1924 17.325 18.1924 17.325C18.1924 17.325 18.1924 17.3251 18.1923 17.3251C18.1923 17.3251 18.1923 17.3252 17.3444 16.795C16.4965 16.2649 16.4964 16.2649 16.4964 16.265C16.4964 16.265 16.4963 16.2651 16.4963 16.2652C16.4962 16.2654 16.4961 16.2655 16.4959 16.2658C16.4956 16.2662 16.4953 16.2668 16.4948 16.2676C16.4939 16.2691 16.4926 16.2711 16.4909 16.2738C16.4877 16.279 16.483 16.2865 16.477 16.2962C16.4651 16.3154 16.448 16.3432 16.4264 16.3786C16.3832 16.4492 16.322 16.5502 16.2488 16.6735C16.1029 16.9192 15.907 17.2573 15.7099 17.6225C15.5145 17.9846 15.3094 18.3891 15.1505 18.7644C15.0132 19.0884 14.8355 19.5555 14.8355 19.9744H16.8355ZM18.2049 17.3045C18.4027 16.9705 18.5593 16.5575 18.6668 16.1701C18.7741 15.7833 18.8536 15.3452 18.8536 14.9509H16.8536C16.8536 15.1053 16.8175 15.3547 16.7396 15.6355C16.6618 15.9158 16.5639 16.1505 16.4839 16.2855L18.2049 17.3045ZM18.8536 14.9509V10.9161H16.8536V14.9509H18.8536ZM18.8534 10.8959C18.8237 9.42615 17.5879 8.29887 16.1393 8.29887V10.2989C16.5646 10.2989 16.8474 10.6195 16.8538 10.9364L18.8534 10.8959ZM16.1393 8.29887C15.1637 8.29887 14.2909 9.06415 14.2909 10.1077H16.2909C16.2909 10.176 16.2602 10.2301 16.2293 10.2595C16.1994 10.2881 16.1653 10.2989 16.1393 10.2989V8.29887ZM14.2909 10.1077V10.4309H16.2909V10.1077H14.2909ZM16.2909 10.4309C16.2909 8.9409 15.0383 7.81365 13.5946 7.81365V9.81365C14.0247 9.81365 14.2909 10.1343 14.2909 10.4309H16.2909ZM13.5946 7.81365C12.6191 7.81365 11.7462 8.57892 11.7462 9.62252H13.7462C13.7462 9.69082 13.7155 9.74488 13.6847 9.77426C13.6547 9.80284 13.6206 9.81365 13.5946 9.81365V7.81365ZM11.7462 9.62252V9.94568H13.7462V9.62252H11.7462ZM13.7462 9.94568C13.7462 8.45567 12.4936 7.32842 11.0499 7.32842V9.32842C11.4801 9.32842 11.7462 9.64908 11.7462 9.94568H13.7462ZM11.0499 7.32842C10.0744 7.32842 9.2015 8.09369 9.2015 9.13729H11.2015C11.2015 9.20559 11.1708 9.25965 11.14 9.28904C11.11 9.31761 11.0759 9.32842 11.0499 9.32842V7.32842ZM9.2015 9.13729V9.46046H11.2015V9.13729H9.2015ZM11.2015 9.46046C11.2015 9.25314 11.1803 9.02522 11.1068 8.80084L9.20626 9.42381C9.19841 9.39987 9.19759 9.38869 9.19853 9.39589C9.19947 9.40308 9.2015 9.42344 9.2015 9.46046H11.2015ZM11.1546 9.05034L10.8958 4.88356L8.89965 5.00754L9.15843 9.17431L11.1546 9.05034ZM10.8958 4.88356C10.8279 3.78937 9.91249 2.94434 8.83555 2.94434V4.94434C8.84436 4.94434 8.86024 4.9478 8.8772 4.96367C8.89327 4.97871 8.89882 4.99409 8.89965 5.00754L10.8958 4.88356ZM8.83555 2.94434C7.7248 2.94434 6.83555 3.84201 6.83555 4.94414H8.83555V4.94434V2.94434ZM6.83555 4.94414V8.94434H8.83555V4.94414H6.83555ZM6.83555 8.94434V13.9443H8.83555V8.94434H6.83555ZM14.8536 13.9443H15.8536V11.9443H14.8536V13.9443ZM14.8536 12.9443V16.9443H16.8536V12.9443H14.8536ZM15.8536 15.9443H14.8536V17.9443H15.8536V15.9443ZM15.8536 16.9443V12.9443H13.8536V16.9443H15.8536ZM12.8536 13.9443H13.8536V11.9443H12.8536V13.9443ZM12.8536 12.9443V16.9443H14.8536V12.9443H12.8536ZM13.8536 15.9443H12.8536V17.9443H13.8536V15.9443ZM13.8536 16.9443V12.9443H11.8536V16.9443H13.8536ZM10.8536 13.9443H11.8536V11.9443H10.8536V13.9443ZM10.8536 12.9443V16.9443H12.8536V12.9443H10.8536ZM11.8536 15.9443H10.8536V17.9443H11.8536V15.9443ZM11.8536 16.9443V12.9443H9.85364V16.9443H11.8536Z" fill="black" fill-opacity="0.8" mask="url(#path-1-outside-1_378_30112)"/>
</g>
<defs>
<filter id="filter0_d_378_30112" x="0.000244141" y="0.944336" width="21.8535" height="25" filterUnits="userSpaceOnUse" color-interpolation-filters="sRGB">
<feFlood flood-opacity="0" result="BackgroundImageFix"/>
<feColorMatrix in="SourceAlpha" type="matrix" values="0 0 0 0 0 0 0 0 0 0 0 0 0 0 0 0 0 0 127 0" result="hardAlpha"/>
<feOffset dy="1"/>
<feGaussianBlur stdDeviation="1.5"/>
<feColorMatrix type="matrix" values="0 0 0 0 0 0 0 0 0 0 0 0 0 0 0 0 0 0 0.2 0"/>
<feBlend mode="normal" in2="BackgroundImageFix" result="effect1_dropShadow_378_30112"/>
<feBlend mode="normal" in="SourceGraphic" in2="effect1_dropShadow_378_30112" result="shape"/>
</filter>
</defs>
</svg>
