<svg width="24" height="24" viewBox="0 0 24 24" fill="none" xmlns="http://www.w3.org/2000/svg">
<mask id="mask0_1256_5383" style="mask-type:alpha" maskUnits="userSpaceOnUse" x="2" y="1" width="20" height="21">
<path d="M5.10571 18.7845C4.24283 17.8884 4.81514 16.0071 4.37595 14.9048C3.92066 13.7621 2.25 12.8424 2.25 11.625C2.25 10.4075 3.92067 9.48785 4.37595 8.34516C4.81515 7.24285 4.24283 5.36161 5.10571 4.46554C5.96858 3.56948 7.78016 4.1638 8.84165 3.70771C9.94203 3.23492 10.8277 1.5 12 1.5C13.1724 1.5 14.058 3.23493 15.1584 3.70772C16.2199 4.16381 18.0314 3.56948 18.8943 4.46554C19.7572 5.3616 19.1849 7.24286 19.6241 8.34517C20.0793 9.48788 21.75 10.4076 21.75 11.625C21.75 12.8425 20.0793 13.7622 19.624 14.9048C19.1848 16.0072 19.7572 17.8884 18.8943 18.7845C18.0314 19.6805 16.2198 19.0862 15.1584 19.5423C14.058 20.0151 13.1723 21.75 12 21.75C10.8276 21.75 9.942 20.0151 8.84164 19.5423C7.78015 19.0862 5.96858 19.6805 5.10571 18.7845Z" fill="white"/>
</mask>
<g mask="url(#mask0_1256_5383)">
<ellipse cx="15.6964" cy="15.3482" rx="10.4464" ry="10.8482" fill="#6FCF97"/>
</g>
<path d="M5.10571 18.8943C4.24283 18.0314 4.81514 16.2198 4.37595 15.1584C3.92066 14.058 2.25 13.1723 2.25 12C2.25 10.8276 3.92067 9.942 4.37595 8.84164C4.81515 7.78015 4.24283 5.96858 5.10571 5.10571C5.96858 4.24283 7.78016 4.81514 8.84165 4.37595C9.94203 3.92066 10.8277 2.25 12 2.25C13.1724 2.25 14.058 3.92067 15.1584 4.37595C16.2199 4.81515 18.0314 4.24283 18.8943 5.10571C19.7572 5.96858 19.1849 7.78016 19.6241 8.84165C20.0793 9.94203 21.75 10.8277 21.75 12C21.75 13.1724 20.0793 14.058 19.624 15.1584C19.1848 16.2199 19.7572 18.0314 18.8943 18.8943C18.0314 19.7572 16.2198 19.1849 15.1584 19.6241C14.058 20.0793 13.1723 21.75 12 21.75C10.8276 21.75 9.942 20.0793 8.84164 19.624C7.78015 19.1848 5.96858 19.7572 5.10571 18.8943Z" stroke="#09121F" stroke-width="1.6" stroke-linecap="round" stroke-linejoin="round"/>
<path d="M14.6998 9.30005L9.2998 14.7" stroke="#09121F" stroke-width="1.4" stroke-linecap="round" stroke-linejoin="round"/>
<path d="M10.05 11.1C10.6299 11.1 11.1 10.6299 11.1 10.05C11.1 9.4701 10.6299 9 10.05 9C9.4701 9 9 9.4701 9 10.05C9 10.6299 9.4701 11.1 10.05 11.1Z" stroke="#09121F" stroke-width="1.4" stroke-miterlimit="10"/>
<path d="M13.9499 15.0001C14.5298 15.0001 14.9999 14.53 14.9999 13.9501C14.9999 13.3702 14.5298 12.9001 13.9499 12.9001C13.37 12.9001 12.8999 13.3702 12.8999 13.9501C12.8999 14.53 13.37 15.0001 13.9499 15.0001Z" stroke="#09121F" stroke-width="1.4" stroke-miterlimit="10"/>
</svg>
