<svg width="54" height="37" viewBox="0 0 54 37" fill="none" xmlns="http://www.w3.org/2000/svg">
<rect x="54" y="37" width="54" height="36.6792" rx="4.84496" transform="rotate(-180 54 37)" fill="#188145"/>
<path d="M31.8125 23.8125H22L19.6026 10.627C19.5738 10.4686 19.4904 10.3253 19.3667 10.2222C19.2431 10.119 19.0872 10.0625 18.9262 10.0625H17.375" stroke="white" stroke-width="1.6" stroke-linecap="round" stroke-linejoin="round"/>
<path d="M22.875 27.25C23.8242 27.25 24.5938 26.4805 24.5938 25.5312C24.5938 24.582 23.8242 23.8125 22.875 23.8125C21.9258 23.8125 21.1562 24.582 21.1562 25.5312C21.1562 26.4805 21.9258 27.25 22.875 27.25Z" stroke="white" stroke-width="1.6" stroke-linecap="round" stroke-linejoin="round"/>
<path d="M31.8125 27.25C32.7617 27.25 33.5312 26.4805 33.5312 25.5312C33.5312 24.582 32.7617 23.8125 31.8125 23.8125C30.8633 23.8125 30.0938 24.582 30.0938 25.5312C30.0938 26.4805 30.8633 27.25 31.8125 27.25Z" stroke="white" stroke-width="1.6" stroke-linecap="round" stroke-linejoin="round"/>
<path d="M21.375 20.375H32.165C32.487 20.375 32.7988 20.262 33.046 20.0557C33.2932 19.8493 33.4602 19.5628 33.5178 19.246L34.5625 13.5H20.125" stroke="white" stroke-width="1.6" stroke-linecap="round" stroke-linejoin="round"/>
</svg>
