<svg width="53" height="36" viewBox="0 0 53 36" fill="none" xmlns="http://www.w3.org/2000/svg">
<rect x="53" y="36" width="53" height="36" rx="4.84496" transform="rotate(-180 53 36)" fill="#27AE60"/>
<path d="M31.8125 22.8125H22L19.6026 9.62702C19.5738 9.46861 19.4904 9.32533 19.3667 9.22217C19.2431 9.11901 19.0872 9.0625 18.9262 9.0625H17.375" stroke="white" stroke-width="1.6" stroke-linecap="round" stroke-linejoin="round"/>
<path d="M22.875 26.25C23.8242 26.25 24.5938 25.4805 24.5938 24.5312C24.5938 23.582 23.8242 22.8125 22.875 22.8125C21.9258 22.8125 21.1562 23.582 21.1562 24.5312C21.1562 25.4805 21.9258 26.25 22.875 26.25Z" stroke="white" stroke-width="1.6" stroke-linecap="round" stroke-linejoin="round"/>
<path d="M31.8125 26.25C32.7617 26.25 33.5312 25.4805 33.5312 24.5312C33.5312 23.582 32.7617 22.8125 31.8125 22.8125C30.8633 22.8125 30.0938 23.582 30.0938 24.5312C30.0938 25.4805 30.8633 26.25 31.8125 26.25Z" stroke="white" stroke-width="1.6" stroke-linecap="round" stroke-linejoin="round"/>
<path d="M21.375 19.375H32.165C32.487 19.375 32.7988 19.262 33.046 19.0557C33.2932 18.8493 33.4602 18.5628 33.5178 18.246L34.5625 12.5H20.125" stroke="white" stroke-width="1.6" stroke-linecap="round" stroke-linejoin="round"/>
</svg>
