<svg width="68" height="18" viewBox="0 0 68 18" fill="none" xmlns="http://www.w3.org/2000/svg">
<g clip-path="url(#clip0_1256_17080)">
<path d="M8.84856 1.99707C9.0616 2.2806 9.24203 2.58874 9.3862 2.9153L5.29921 6.01899L3.5918 4.91616V3.5893L5.29921 4.69213L8.84856 1.99707Z" fill="#21A038"/>
<path d="M1.8509 4.82341C1.8509 4.7638 1.85229 4.70466 1.85509 4.64553L0.820307 4.59265C0.788244 5.23794 0.88815 5.88297 1.11352 6.48573C1.33889 7.0885 1.68466 7.63547 2.12833 8.09104L2.86194 7.33531C2.54139 7.00613 2.28704 6.61473 2.11352 6.18364C1.94001 5.75254 1.85075 5.29027 1.8509 4.82341Z" fill="url(#paint0_linear_1256_17080)"/>
<path d="M5.30074 1.26941C5.35846 1.26941 5.41572 1.27133 5.47297 1.27421L5.52464 0.207918C4.89884 0.174589 4.27323 0.277308 3.68828 0.509431C3.10334 0.741555 2.57209 1.09791 2.12891 1.55545L2.86252 2.31166C3.18259 1.98087 3.56271 1.71854 3.9811 1.53969C4.39949 1.36085 4.84793 1.269 5.30074 1.26941Z" fill="url(#paint1_linear_1256_17080)"/>
<path d="M5.30007 8.37662C5.24235 8.37662 5.1851 8.37517 5.12784 8.37181L5.07617 9.4381C5.70198 9.47143 6.32759 9.36871 6.91253 9.13659C7.49748 8.90447 8.02873 8.54811 8.47191 8.09057L7.7383 7.33484C7.41811 7.66544 7.03796 7.92761 6.61959 8.10637C6.20122 8.28512 5.75283 8.37696 5.30007 8.37662Z" fill="url(#paint2_linear_1256_17080)"/>
<path d="M7.24559 1.8897L8.11792 1.22723C7.32036 0.562229 6.32581 0.200385 5.30078 0.202278V1.26953C5.99483 1.26861 6.67286 1.48482 7.24559 1.8897Z" fill="url(#paint3_linear_1256_17080)"/>
<path d="M9.78478 4.82284C9.78478 4.54016 9.76011 4.26373 9.71263 3.995L8.74768 4.72765L8.74907 4.82236C8.74907 5.86558 8.31012 6.80544 7.61328 7.45637L8.30919 8.2496C8.77422 7.81735 9.14595 7.28884 9.40018 6.69844C9.65441 6.10804 9.78545 5.46899 9.78478 4.82284Z" fill="#21A038"/>
<path d="M5.30052 8.37606C4.81884 8.37636 4.34245 8.27233 3.90211 8.0707C3.46177 7.86906 3.06726 7.5743 2.74406 7.20544L1.97461 7.92272C2.39513 8.40241 2.90843 8.78564 3.48132 9.04765C4.05422 9.30966 4.67397 9.44462 5.30052 9.4438V8.37654V8.37606Z" fill="url(#paint4_linear_1256_17080)"/>
<path d="M2.98689 2.18972L2.29052 1.39648C1.82542 1.82871 1.45363 2.35721 1.19932 2.9476C0.945006 3.53799 0.813876 4.17706 0.814455 4.82324H1.85063C1.85063 3.78002 2.28959 2.84016 2.98689 2.18972Z" fill="url(#paint5_linear_1256_17080)"/>
<path d="M26.5863 2.91454L27.7849 2.00449H23.7756V7.46673H27.7849V6.55812H24.9193V5.15915H27.3636V4.2491H24.9193V2.91454H26.5863ZM20.7481 4.13468H19.3558V2.91406H21.579L22.7776 2.00401H18.2107V7.46625H20.6001C21.9402 7.46625 22.7083 6.84128 22.7083 5.74998C22.7083 4.70821 22.0119 4.13372 20.7481 4.13372V4.13468ZM20.5489 6.55812H19.3563V5.04425H20.5493C21.2755 5.04425 21.6134 5.2976 21.6134 5.8019C21.6134 6.31582 21.255 6.55812 20.5493 6.55812H20.5489ZM31.0331 2.00449H28.8504V7.46673H29.9941V5.91921H31.0331C32.4267 5.91921 33.2916 5.16444 33.2916 3.95921C33.2916 2.75398 32.4258 2.00449 31.0331 2.00449ZM31.0084 5.0106H29.9941V2.91454H31.0084C31.7411 2.91454 32.1456 3.28664 32.1456 3.96305C32.1456 4.6385 31.7411 5.01108 31.0084 5.01108V5.0106ZM16.2468 6.28409C15.9536 6.45139 15.6124 6.53889 15.2591 6.53889C14.228 6.53889 13.4781 5.77979 13.4781 4.73513C13.4781 3.69047 14.2266 2.93137 15.2591 2.93137C15.6491 2.93137 15.9997 3.04483 16.2994 3.26741L17.1201 2.64437L17.0661 2.59629C16.5871 2.1617 15.9475 1.93286 15.2148 1.93286C14.4203 1.93286 13.6992 2.20881 13.1853 2.70927C12.6686 3.21309 12.3828 3.92219 12.3828 4.7058C12.3828 5.49278 12.6668 6.2115 13.1825 6.73167C13.6992 7.25232 14.4189 7.53932 15.2069 7.53932C16.0308 7.53932 16.7524 7.2427 17.2402 6.7033C16.8631 6.41774 16.5001 6.14131 16.5001 6.14131L16.2473 6.28409H16.2468Z" fill="#21A038"/>
<path d="M17.5268 11.4022L15.8231 14.303H15.3465L13.6065 11.4426V15.5044H12.6602V10.047H13.8565L15.6123 13.017L17.3527 10.047H18.4727V15.5044H17.5268V11.4022ZM23.156 13.1406H20.7196V14.6059H23.52V15.5025H19.7733V10.0455H23.4362V10.9416H20.7196V12.244H23.156V13.1406ZM28.1646 10.9421H25.516V15.5025H24.5706V10.0455H28.1651V10.9416L28.1646 10.9421ZM33.0304 15.5025H32.024L31.5176 14.2083H29.0886L28.5892 15.5025H27.6284L29.7771 10.0455H30.8514L33.0299 15.502L33.0304 15.5025ZM31.1684 13.3117L30.298 11.0738L29.4275 13.3117H31.1684ZM40.2064 11.4017L38.5027 14.3025H38.0265L36.286 11.4421V15.5034H35.3401V10.047H36.5364L38.2923 13.0165L40.0323 10.047H41.1527V15.5034H40.2064V11.4017ZM47.2213 15.5025H46.2158L45.7075 14.2083H43.279L42.7791 15.5025H41.8188L43.9675 10.0455H45.0419L47.2217 15.502L47.2213 15.5025ZM45.3607 13.3117L44.4907 11.0738L43.6203 13.3117H45.3612H45.3607ZM48.8416 13.8035V15.5044H47.8953V10.047H49.6581C50.4955 10.047 51.1025 10.2018 51.4782 10.5104C51.8538 10.8191 52.0423 11.2815 52.0423 11.8935C52.0423 12.5329 51.8408 13.0113 51.4363 13.3281C51.0332 13.6449 50.4406 13.804 49.6581 13.804H48.8416V13.8035ZM48.8416 10.9416V12.906H49.7275C50.1711 12.906 50.5048 12.8266 50.7259 12.669C50.9484 12.5098 51.0583 12.244 51.0583 11.8695C51.0583 11.5325 50.9549 11.2926 50.7483 11.1522C50.5411 11.0118 50.2064 10.9416 49.7419 10.9416H48.8416ZM53.9555 15.5025H53.0096V10.0455H53.9555V12.3372H54.7496L56.4524 10.0455H57.6026L55.5819 12.6416L57.9284 15.502H56.7177L54.7957 13.1406H53.9555V15.5025ZM61.9852 13.1406H59.5488V14.6059H62.3492V15.5025H58.6025V10.0455H62.2654V10.9416H59.5488V12.244H61.9852V13.1406ZM67.3341 10.9421H65.548V15.5025H64.6017V10.9416H62.8458V10.0455H67.3327V10.9416H67.3341V10.9421Z" fill="#632895"/>
</g>
<defs>
<linearGradient id="paint0_linear_1256_17080" x1="2.01754" y1="7.95739" x2="0.906792" y2="4.83973" gradientUnits="userSpaceOnUse">
<stop offset="0.144" stop-color="#F2E913"/>
<stop offset="0.304" stop-color="#E7E518"/>
<stop offset="0.582" stop-color="#CADB26"/>
<stop offset="0.891" stop-color="#A3CD39"/>
</linearGradient>
<linearGradient id="paint1_linear_1256_17080" x1="2.42496" y1="1.43622" x2="5.13001" y2="0.435794" gradientUnits="userSpaceOnUse">
<stop offset="0.059" stop-color="#0FA8E0"/>
<stop offset="0.538" stop-color="#0099F9"/>
<stop offset="0.923" stop-color="#0291EB"/>
</linearGradient>
<linearGradient id="paint2_linear_1256_17080" x1="5.00775" y1="8.54055" x2="8.2145" y2="7.83709" gradientUnits="userSpaceOnUse">
<stop offset="0.123" stop-color="#A3CD39"/>
<stop offset="0.285" stop-color="#86C339"/>
<stop offset="0.869" stop-color="#21A038"/>
</linearGradient>
<linearGradient id="paint3_linear_1256_17080" x1="5.08433" y1="0.879168" x2="7.75779" y2="1.67995" gradientUnits="userSpaceOnUse">
<stop offset="0.057" stop-color="#0291EB"/>
<stop offset="0.79" stop-color="#0C8ACB"/>
</linearGradient>
<linearGradient id="paint4_linear_1256_17080" x1="2.23435" y1="8.09482" x2="5.1127" y2="9.13859" gradientUnits="userSpaceOnUse">
<stop offset="0.132" stop-color="#F2E913"/>
<stop offset="0.298" stop-color="#EBE716"/>
<stop offset="0.531" stop-color="#D9E01F"/>
<stop offset="0.802" stop-color="#BBD62D"/>
<stop offset="0.983" stop-color="#A3CD39"/>
</linearGradient>
<linearGradient id="paint5_linear_1256_17080" x1="1.60579" y1="4.95256" x2="2.80551" y2="1.92427" gradientUnits="userSpaceOnUse">
<stop offset="0.07" stop-color="#A3CD39"/>
<stop offset="0.26" stop-color="#81C55F"/>
<stop offset="0.922" stop-color="#0FA8E0"/>
</linearGradient>
<clipPath id="clip0_1256_17080">
<rect width="66.5648" height="17.3069" fill="white" transform="translate(0.732422 0.120239)"/>
</clipPath>
</defs>
</svg>
