<svg width="50" height="14" viewBox="0 0 50 14" fill="none" xmlns="http://www.w3.org/2000/svg">
<g clip-path="url(#clip0_1256_2319)">
<path d="M6.09741 2.0553C6.25744 2.26827 6.39296 2.49973 6.50125 2.74502L3.43132 5.07635L2.1488 4.24796V3.2513L3.43132 4.07969L6.09741 2.0553Z" fill="#21A038"/>
<path d="M0.839925 4.17724C0.839925 4.13246 0.840974 4.08804 0.843072 4.04363L0.0657988 4.00391C0.0417145 4.48861 0.116758 4.97313 0.286043 5.42589C0.455328 5.87865 0.715057 6.28951 1.04832 6.63171L1.59937 6.06404C1.35859 5.81678 1.16753 5.52279 1.03719 5.19897C0.906859 4.87516 0.839816 4.52792 0.839925 4.17724Z" fill="url(#paint0_linear_1256_2319)"/>
<path d="M3.43073 1.50726C3.47409 1.50726 3.5171 1.50871 3.56011 1.51088L3.59892 0.709931C3.12884 0.684896 2.65892 0.762053 2.21954 0.936412C1.78016 1.11077 1.38111 1.37845 1.04822 1.72213L1.59927 2.29015C1.83969 2.04168 2.12522 1.84463 2.43949 1.71029C2.75376 1.57595 3.09061 1.50696 3.43073 1.50726Z" fill="url(#paint1_linear_1256_2319)"/>
<path d="M3.43124 6.84539C3.38789 6.84539 3.34488 6.84431 3.30187 6.84178L3.26306 7.64273C3.73313 7.66776 4.20306 7.59061 4.64244 7.41625C5.08182 7.24189 5.48087 6.97421 5.81376 6.63053L5.26271 6.06287C5.0222 6.31119 4.73665 6.50813 4.42239 6.6424C4.10814 6.77667 3.77133 6.84565 3.43124 6.84539Z" fill="url(#paint2_linear_1256_2319)"/>
<path d="M4.89187 1.97283L5.54712 1.47522C4.94803 0.975704 4.20098 0.703906 3.43103 0.705328V1.50699C3.95236 1.5063 4.46167 1.66871 4.89187 1.97283Z" fill="url(#paint3_linear_1256_2319)"/>
<path d="M6.79994 4.17652C6.79994 3.96419 6.78141 3.75655 6.74575 3.55469L6.02092 4.10502L6.02197 4.17616C6.02197 4.95977 5.69225 5.66574 5.16882 6.15469L5.69155 6.75052C6.04086 6.42584 6.32008 6.02885 6.51105 5.58537C6.70201 5.1419 6.80044 4.66187 6.79994 4.17652Z" fill="#21A038"/>
<path d="M3.43123 6.84635C3.06942 6.84657 2.71158 6.76843 2.38082 6.61697C2.05006 6.46552 1.75373 6.24411 1.51096 5.96704L0.932983 6.50582C1.24886 6.86614 1.63442 7.154 2.06475 7.35081C2.49508 7.54762 2.9606 7.64899 3.43123 7.64837V6.84671V6.84635Z" fill="url(#paint4_linear_1256_2319)"/>
<path d="M1.69322 2.19764L1.17014 1.60181C0.820787 1.92647 0.541515 2.32345 0.35049 2.76692C0.159466 3.2104 0.060968 3.69043 0.0614028 4.17581H0.839725C0.839725 3.3922 1.16944 2.68622 1.69322 2.19764Z" fill="url(#paint5_linear_1256_2319)"/>
<path d="M19.4202 2.74325L20.3206 2.05966H17.309V6.16261H20.3206V5.48011H18.1681V4.42928H20.0041V3.74569H18.1681V2.74325H19.4202ZM15.0349 3.65975H13.9891V2.74289H15.659L16.5594 2.0593H13.129V6.16225H14.9237C15.9304 6.16225 16.5073 5.6928 16.5073 4.87308C16.5073 4.09055 15.9842 3.65903 15.0349 3.65903V3.65975ZM14.8853 5.48011H13.9895V4.34297H14.8856C15.4311 4.34297 15.6849 4.53328 15.6849 4.91208C15.6849 5.29811 15.4157 5.48011 14.8856 5.48011H14.8853ZM22.7604 2.05966H21.1209V6.16261H21.98V5.00019H22.7604C23.8073 5.00019 24.4569 4.43325 24.4569 3.52794C24.4569 2.62264 23.8066 2.05966 22.7604 2.05966ZM22.7419 4.31769H21.98V2.74325H22.7419C23.2922 2.74325 23.5961 3.02275 23.5961 3.53083C23.5961 4.03819 23.2922 4.31805 22.7419 4.31805V4.31769ZM11.6538 5.27428C11.4335 5.39994 11.1772 5.46566 10.9118 5.46566C10.1374 5.46566 9.57407 4.89547 9.57407 4.11078C9.57407 3.32608 10.1363 2.75589 10.9118 2.75589C11.2048 2.75589 11.4681 2.84111 11.6933 3.0083L12.3097 2.5403L12.2692 2.50419C11.9094 2.17775 11.429 2.00586 10.8786 2.00586C10.2818 2.00586 9.74015 2.21314 9.35414 2.58905C8.96603 2.9675 8.75134 3.50014 8.75134 4.08875C8.75134 4.67989 8.96463 5.21975 9.35204 5.61047C9.74015 6.00155 10.2807 6.21714 10.8727 6.21714C11.4916 6.21714 12.0335 5.99433 12.3999 5.58916C12.1167 5.37467 11.844 5.16703 11.844 5.16703L11.6541 5.27428H11.6538Z" fill="#21A038"/>
<path d="M12.6149 9.11928L11.3352 11.2982H10.9772L9.67019 9.14961V12.2006H8.95935V8.1013H9.85795L11.1768 10.3322L12.4842 8.1013H13.3254V12.2006H12.6149V9.11928ZM16.8433 10.4251H15.0132V11.5257H17.1167V12.1992H14.3024V8.10022H17.0538V8.77333H15.0132V9.75158H16.8433V10.4251ZM20.6055 8.77369H18.616V12.1992H17.9059V8.10022H20.6059V8.77333L20.6055 8.77369ZM24.2604 12.1992H23.5045L23.124 11.2271H21.2996L20.9244 12.1992H20.2027L21.8167 8.10022H22.6237L24.2601 12.1988L24.2604 12.1992ZM22.8618 10.5536L22.208 8.87264L21.5541 10.5536H22.8618ZM29.6506 9.11891L28.3709 11.2979H28.0132L26.7059 9.14925V12.1999H25.9954V8.1013H26.894L28.2129 10.3319L29.5198 8.1013H30.3615V12.1999H29.6506V9.11891ZM34.9198 12.1992H34.1646L33.7828 11.2271H31.9587L31.5831 12.1992H30.8618L32.4758 8.10022H33.2828L34.9202 12.1988L34.9198 12.1992ZM33.5223 10.5536L32.8688 8.87264L32.2149 10.5536H33.5226H33.5223ZM36.137 10.923V12.2006H35.4261V8.1013H36.7503C37.3793 8.1013 37.8352 8.21758 38.1174 8.44941C38.3996 8.68125 38.5412 9.02864 38.5412 9.48833C38.5412 9.96861 38.3898 10.3279 38.0859 10.5659C37.7831 10.8039 37.338 10.9234 36.7503 10.9234H36.137V10.923ZM36.137 8.77333V10.2488H36.8024C37.1356 10.2488 37.3863 10.1892 37.5524 10.0708C37.7195 9.95128 37.802 9.75158 37.802 9.47028C37.802 9.21714 37.7244 9.03694 37.5691 8.9315C37.4135 8.82605 37.1622 8.77333 36.8132 8.77333H36.137ZM39.9782 12.1992H39.2677V8.10022H39.9782V9.82164H40.5747L41.8538 8.10022H42.7177L41.1999 10.0502L42.9625 12.1988H42.0531L40.6094 10.4251H39.9782V12.1992ZM46.0097 10.4251H44.1796V11.5257H46.2831V12.1992H43.4688V8.10022H46.2202V8.77333H44.1796V9.75158H46.0097V10.4251ZM50.0275 8.77369H48.6859V12.1992H47.9751V8.77333H46.6562V8.10022H50.0265V8.77333H50.0275V8.77369Z" fill="#632895"/>
</g>
<defs>
<linearGradient id="paint0_linear_1256_2319" x1="0.965099" y1="6.53132" x2="0.130762" y2="4.1895" gradientUnits="userSpaceOnUse">
<stop offset="0.144" stop-color="#F2E913"/>
<stop offset="0.304" stop-color="#E7E518"/>
<stop offset="0.582" stop-color="#CADB26"/>
<stop offset="0.891" stop-color="#A3CD39"/>
</linearGradient>
<linearGradient id="paint1_linear_1256_2319" x1="1.2706" y1="1.63257" x2="3.30249" y2="0.881099" gradientUnits="userSpaceOnUse">
<stop offset="0.059" stop-color="#0FA8E0"/>
<stop offset="0.538" stop-color="#0099F9"/>
<stop offset="0.923" stop-color="#0291EB"/>
</linearGradient>
<linearGradient id="paint2_linear_1256_2319" x1="3.21166" y1="6.96853" x2="5.62041" y2="6.44013" gradientUnits="userSpaceOnUse">
<stop offset="0.123" stop-color="#A3CD39"/>
<stop offset="0.285" stop-color="#86C339"/>
<stop offset="0.869" stop-color="#21A038"/>
</linearGradient>
<linearGradient id="paint3_linear_1256_2319" x1="3.26844" y1="1.21377" x2="5.2766" y2="1.81528" gradientUnits="userSpaceOnUse">
<stop offset="0.057" stop-color="#0291EB"/>
<stop offset="0.79" stop-color="#0C8ACB"/>
</linearGradient>
<linearGradient id="paint4_linear_1256_2319" x1="1.12809" y1="6.6351" x2="3.29016" y2="7.41912" gradientUnits="userSpaceOnUse">
<stop offset="0.132" stop-color="#F2E913"/>
<stop offset="0.298" stop-color="#EBE716"/>
<stop offset="0.531" stop-color="#D9E01F"/>
<stop offset="0.802" stop-color="#BBD62D"/>
<stop offset="0.983" stop-color="#A3CD39"/>
</linearGradient>
<linearGradient id="paint5_linear_1256_2319" x1="0.655808" y1="4.27295" x2="1.55698" y2="1.99825" gradientUnits="userSpaceOnUse">
<stop offset="0.07" stop-color="#A3CD39"/>
<stop offset="0.26" stop-color="#81C55F"/>
<stop offset="0.922" stop-color="#0FA8E0"/>
</linearGradient>
<clipPath id="clip0_1256_2319">
<rect width="50" height="13" fill="white" transform="translate(0 0.645752)"/>
</clipPath>
</defs>
</svg>
