<svg width="88" height="14" viewBox="0 0 88 14" fill="none" xmlns="http://www.w3.org/2000/svg">
<path d="M7.2969 11.6713L10.6916 13.9081C11.1255 14.194 11.6643 13.7687 11.5355 13.242L10.5547 9.22938C10.5271 9.11762 10.5304 9.00002 10.5641 8.89011C10.5979 8.7802 10.6609 8.68244 10.7457 8.60807L13.7898 5.97303C14.1898 5.62679 13.9834 4.93641 13.4695 4.90173L9.49403 4.6334C9.38695 4.62544 9.28425 4.58601 9.19788 4.5197C9.11151 4.4534 9.04504 4.36294 9.00619 4.25886L7.52351 0.375744C7.48321 0.265274 7.41155 0.170167 7.31804 0.103055C7.22454 0.0359426 7.11361 0 7 0C6.88639 0 6.77547 0.0359426 6.68197 0.103055C6.58846 0.170167 6.5168 0.265274 6.4765 0.375744L4.99382 4.25886C4.95497 4.36294 4.88849 4.4534 4.80213 4.5197C4.71576 4.58601 4.61306 4.62544 4.50598 4.6334L0.530521 4.90173C0.0166223 4.93641 -0.189828 5.62679 0.21016 5.97303L3.25431 8.60807C3.33914 8.68244 3.40207 8.7802 3.43586 8.89011C3.46964 9.00002 3.47291 9.11762 3.4453 9.22938L2.53571 12.9506C2.3812 13.5827 3.0277 14.093 3.54841 13.7499L6.7031 11.6713C6.79183 11.6125 6.89483 11.5813 7 11.5813C7.10518 11.5813 7.20818 11.6125 7.2969 11.6713Z" fill="#27AE60"/>
<path d="M25.6719 11.6713L29.0666 13.9081C29.5005 14.194 30.0393 13.7687 29.9105 13.242L28.9297 9.22938C28.9021 9.11762 28.9054 9.00002 28.9391 8.89011C28.9729 8.7802 29.0359 8.68244 29.1207 8.60807L32.1648 5.97303C32.5648 5.62679 32.3584 4.93641 31.8445 4.90173L27.869 4.6334C27.762 4.62544 27.6592 4.58601 27.5729 4.5197C27.4865 4.4534 27.42 4.36294 27.3812 4.25886L25.8985 0.375744C25.8582 0.265274 25.7865 0.170167 25.693 0.103055C25.5995 0.0359426 25.4886 0 25.375 0C25.2614 0 25.1505 0.0359426 25.057 0.103055C24.9635 0.170167 24.8918 0.265274 24.8515 0.375744L23.3688 4.25886C23.33 4.36294 23.2635 4.4534 23.1771 4.5197C23.0908 4.58601 22.9881 4.62544 22.881 4.6334L18.9055 4.90173C18.3916 4.93641 18.1852 5.62679 18.5852 5.97303L21.6293 8.60807C21.7141 8.68244 21.7771 8.7802 21.8109 8.89011C21.8446 9.00002 21.8479 9.11762 21.8203 9.22938L20.9107 12.9506C20.7562 13.5827 21.4027 14.093 21.9234 13.7499L25.0781 11.6713C25.1668 11.6125 25.2698 11.5813 25.375 11.5813C25.4802 11.5813 25.5832 11.6125 25.6719 11.6713Z" fill="#27AE60"/>
<path d="M44.0469 11.6713L47.4416 13.9081C47.8755 14.194 48.4143 13.7687 48.2855 13.242L47.3047 9.22938C47.2771 9.11762 47.2804 9.00002 47.3141 8.89011C47.3479 8.7802 47.4109 8.68244 47.4957 8.60807L50.5398 5.97303C50.9398 5.62679 50.7334 4.93641 50.2195 4.90173L46.244 4.6334C46.137 4.62544 46.0342 4.58601 45.9479 4.5197C45.8615 4.4534 45.795 4.36294 45.7562 4.25886L44.2735 0.375744C44.2332 0.265274 44.1615 0.170167 44.068 0.103055C43.9745 0.0359426 43.8636 0 43.75 0C43.6364 0 43.5255 0.0359426 43.432 0.103055C43.3385 0.170167 43.2668 0.265274 43.2265 0.375744L41.7438 4.25886C41.705 4.36294 41.6385 4.4534 41.5521 4.5197C41.4658 4.58601 41.3631 4.62544 41.256 4.6334L37.2805 4.90173C36.7666 4.93641 36.5602 5.62679 36.9602 5.97303L40.0043 8.60807C40.0891 8.68244 40.1521 8.7802 40.1859 8.89011C40.2196 9.00002 40.2229 9.11762 40.1953 9.22938L39.2857 12.9506C39.1312 13.5827 39.7777 14.093 40.2984 13.7499L43.4531 11.6713C43.5418 11.6125 43.6448 11.5813 43.75 11.5813C43.8552 11.5813 43.9582 11.6125 44.0469 11.6713Z" fill="#27AE60"/>
<path d="M62.4219 11.6713L65.8166 13.9081C66.2505 14.194 66.7893 13.7687 66.6605 13.242L65.6797 9.22938C65.6521 9.11762 65.6554 9.00002 65.6891 8.89011C65.7229 8.7802 65.7859 8.68244 65.8707 8.60807L68.9148 5.97303C69.3148 5.62679 69.1084 4.93641 68.5945 4.90173L64.619 4.6334C64.512 4.62544 64.4092 4.58601 64.3229 4.5197C64.2365 4.4534 64.17 4.36294 64.1312 4.25886L62.6485 0.375744C62.6082 0.265274 62.5365 0.170167 62.443 0.103055C62.3495 0.0359426 62.2386 0 62.125 0C62.0114 0 61.9005 0.0359426 61.807 0.103055C61.7135 0.170167 61.6418 0.265274 61.6015 0.375744L60.1188 4.25886C60.08 4.36294 60.0135 4.4534 59.9271 4.5197C59.8408 4.58601 59.7381 4.62544 59.631 4.6334L55.6555 4.90173C55.1416 4.93641 54.9352 5.62679 55.3352 5.97303L58.3793 8.60807C58.4641 8.68244 58.5271 8.7802 58.5609 8.89011C58.5946 9.00002 58.5979 9.11762 58.5703 9.22938L57.6607 12.9506C57.5062 13.5827 58.1527 14.093 58.6734 13.7499L61.8281 11.6713C61.9168 11.6125 62.0198 11.5813 62.125 11.5813C62.2302 11.5813 62.3332 11.6125 62.4219 11.6713Z" fill="#27AE60"/>
<path d="M80.7969 11.6713L84.1916 13.9081C84.6255 14.194 85.1643 13.7687 85.0355 13.242L84.0547 9.22938C84.0271 9.11762 84.0304 9.00002 84.0641 8.89011C84.0979 8.7802 84.1609 8.68244 84.2457 8.60807L87.2898 5.97303C87.6898 5.62679 87.4834 4.93641 86.9695 4.90173L82.994 4.6334C82.887 4.62544 82.7842 4.58601 82.6979 4.5197C82.6115 4.4534 82.545 4.36294 82.5062 4.25886L81.0235 0.375744C80.9832 0.265274 80.9115 0.170167 80.818 0.103055C80.7245 0.0359426 80.6136 0 80.5 0C80.3864 0 80.2755 0.0359426 80.182 0.103055C80.0885 0.170167 80.0168 0.265274 79.9765 0.375744L78.4938 4.25886C78.455 4.36294 78.3885 4.4534 78.3021 4.5197C78.2158 4.58601 78.1131 4.62544 78.006 4.6334L74.0305 4.90173C73.5166 4.93641 73.3102 5.62679 73.7102 5.97303L76.7543 8.60807C76.8391 8.68244 76.9021 8.7802 76.9359 8.89011C76.9696 9.00002 76.9729 9.11762 76.9453 9.22938L76.0357 12.9506C75.8812 13.5827 76.5277 14.093 77.0484 13.7499L80.2031 11.6713C80.2918 11.6125 80.3948 11.5813 80.5 11.5813C80.6052 11.5813 80.7082 11.6125 80.7969 11.6713Z" fill="#E0E0DD"/>
<path d="M80.182 0.103055C80.2755 0.0359426 80.3864 0 80.5 0V11.5813C80.3948 11.5813 80.2918 11.6125 80.2031 11.6713L77.0484 13.7499C76.5277 14.093 75.8812 13.5827 76.0357 12.9506L76.9453 9.22938C76.9729 9.11762 76.9696 9.00002 76.9359 8.89011C76.9021 8.7802 76.8391 8.68244 76.7543 8.60807L73.7102 5.97303C73.3102 5.62679 73.5166 4.93641 74.0305 4.90173L78.006 4.6334C78.1131 4.62544 78.2158 4.58601 78.3021 4.5197C78.3885 4.4534 78.455 4.36294 78.4938 4.25886L79.9765 0.375744C80.0168 0.265274 80.0885 0.170167 80.182 0.103055Z" fill="#27AE60"/>
</svg>
