<svg width="61" height="16" viewBox="0 0 61 16" fill="none" xmlns="http://www.w3.org/2000/svg">
<g clip-path="url(#clip0_1256_17023)">
<rect width="59.9083" height="15.8378" transform="translate(0.726562 0.0749512)" fill="url(#paint0_linear_1256_17023)"/>
<path d="M2.58636 11.332L0.757812 4.64925H1.95729L3.36223 9.78197L4.86795 4.6488L5.98606 4.64925L7.49705 9.80924L8.90832 4.65051L10.1078 4.6488L8.27843 11.3308L6.88811 11.3294L5.42747 6.33883L3.96545 11.3307L2.58636 11.332Z" fill="white"/>
<path d="M10.9355 4.65173H12.0773V11.3267H10.9355V4.65173Z" fill="white"/>
<path d="M14.5186 10.2797H17.2982V11.3267H13.4004V4.65173H14.5186V10.2797Z" fill="white"/>
<path d="M20.8102 4.65943C21.7472 4.65943 22.5268 4.98279 23.141 5.6218C23.7631 6.26081 24.0781 7.05381 24.0781 7.99307C24.0781 8.92466 23.7631 9.71764 23.141 10.3643C22.5268 11.0034 21.7472 11.3267 20.8102 11.3267H18.125V4.65173H20.8102V4.65943ZM20.8102 10.2874C21.4559 10.2874 21.9835 10.0718 22.3772 9.64065C22.7867 9.20952 22.9914 8.65519 22.9914 8.00077C22.9914 7.33098 22.7867 6.79204 22.3772 6.36091C21.9756 5.92975 21.448 5.71418 20.8102 5.71418H19.2511V10.2874H20.8102Z" fill="white"/>
<path d="M30.1016 9.41986C30.1016 9.96676 29.9049 10.4212 29.5033 10.7833C29.1016 11.1453 28.6291 11.3302 28.0465 11.3302H25.125V4.65173H27.8338C28.393 4.65173 28.8652 4.83662 29.2511 5.18324C29.645 5.53756 29.834 5.97664 29.834 6.50043C29.834 7.08586 29.5976 7.53264 29.1411 7.86387C29.7394 8.17199 30.1016 8.72659 30.1016 9.41986ZM26.251 5.68394V7.44021H27.8415C28.3378 7.44021 28.7157 7.05505 28.7157 6.56207C28.7157 6.06907 28.3378 5.68394 27.8415 5.68394H26.251ZM28.0542 10.298C28.5739 10.298 28.9836 9.88973 28.9836 9.36594C28.9836 8.84213 28.5739 8.43388 28.0542 8.43388H26.251V10.3057H28.0542V10.298Z" fill="white"/>
<path d="M32.2841 10.2826H35.3079V11.3302H31.166V4.65173H35.2608V5.69933H32.2841V7.43249H35.0166V8.47239H32.2841V10.2826Z" fill="white"/>
<path d="M40.2065 11.3302L38.7574 8.89605H37.4344V11.3302H36.3164V4.65173H39.0487C39.663 4.65173 40.1827 4.8597 40.6001 5.28337C41.0252 5.69164 41.2459 6.20003 41.2459 6.80085C41.2459 7.64818 40.7025 8.42616 39.8914 8.73428L41.4426 11.3302H40.2065ZM37.4344 5.68391V7.91777H39.041C39.6393 7.91777 40.1119 7.42479 40.1119 6.80085C40.1119 6.18461 39.6316 5.68391 39.041 5.68391H37.4344Z" fill="white"/>
<path d="M46.1828 11.3307L44.7418 8.89533H43.4188V11.3307H42.3008V4.6488H45.0331C45.6474 4.6488 46.1671 4.8569 46.5845 5.28078C47.0096 5.68925 47.2302 6.19789 47.2302 6.79904C47.2302 7.64681 46.6868 8.42521 45.8758 8.73348L47.4269 11.3307H46.1828ZM43.4188 5.68153V7.91655H45.0254C45.6237 7.91655 46.0962 7.4233 46.0962 6.79904C46.0962 6.1825 45.6159 5.68153 45.0254 5.68153H43.4188Z" fill="white"/>
<path d="M48.2441 4.64929H49.3624V11.3305H48.2441V4.64929Z" fill="white"/>
<path d="M51.8038 10.2826H54.8277V11.3302H50.6855V4.65173H54.7803V5.69933H51.8038V7.43249H54.5361V8.47239H51.8038V10.2826Z" fill="white"/>
<path d="M55.6074 9.81053L56.5759 9.2562C56.8515 10.0107 57.4107 10.3802 58.2689 10.3802C59.1193 10.3802 59.5367 10.0261 59.5367 9.50258C59.5367 9.22542 59.4186 9.02524 59.1982 8.88666C58.9775 8.74038 58.5681 8.57869 57.9855 8.40932C57.3318 8.21684 57.009 8.09366 56.5522 7.8011C56.1114 7.49315 55.8907 7.0543 55.8907 6.4538C55.8907 5.86097 56.1034 5.39905 56.5365 5.05259C56.9618 4.69842 57.4816 4.52905 58.0879 4.52905C59.1825 4.52905 60.0249 5.08338 60.466 5.99955L59.5209 6.53078C59.2374 5.91486 58.7571 5.5992 58.0879 5.5992C57.4341 5.5992 57.0168 5.92256 57.0168 6.43068C57.0168 6.92344 57.3475 7.1544 58.3949 7.47004C58.6548 7.55475 58.8437 7.61634 58.9618 7.66252C59.0878 7.70103 59.2531 7.77032 59.4658 7.855C59.6864 7.93968 59.8597 8.03978 59.962 8.12446C60.3242 8.40163 60.7099 8.85585 60.6627 9.49488C60.6627 10.0954 60.4423 10.5804 59.9935 10.9346C59.5524 11.2887 58.9698 11.4581 58.2454 11.4581C56.9224 11.4504 55.9616 10.8345 55.6074 9.81053Z" fill="white"/>
</g>
<defs>
<linearGradient id="paint0_linear_1256_17023" x1="-3.59814e-07" y1="9.80438" x2="59.9083" y2="9.80438" gradientUnits="userSpaceOnUse">
<stop stop-color="#C121A8"/>
<stop offset="1" stop-color="#471872"/>
</linearGradient>
<clipPath id="clip0_1256_17023">
<rect width="59.9083" height="15.8378" fill="white" transform="translate(0.726562 0.0749512)"/>
</clipPath>
</defs>
</svg>
