<svg width="45" height="13" viewBox="0 0 45 13" fill="none" xmlns="http://www.w3.org/2000/svg">
<g clip-path="url(#clip0_1256_2262)">
<rect width="45" height="11.8966" transform="translate(0.000244141 0.57312)" fill="url(#paint0_linear_1256_2262)"/>
<path d="M1.39658 9.029L0.0230713 4.00925H0.924054L1.97937 7.86468L3.11039 4.00891L3.95026 4.00925L5.08523 7.88516L6.1453 4.01019L7.04626 4.00891L5.67216 9.0281L4.62783 9.02705L3.53067 5.27837L2.43248 9.02801L1.39658 9.029Z" fill="white"/>
<path d="M7.66809 4.01099H8.52573V9.02488H7.66809V4.01099Z" fill="white"/>
<path d="M10.3596 8.23839H12.4475V9.02488H9.51965V4.01099H10.3596V8.23839Z" fill="white"/>
<path d="M15.0855 4.01677C15.7893 4.01677 16.3749 4.25966 16.8363 4.73965C17.3035 5.21964 17.5401 5.8153 17.5401 6.52082C17.5401 7.22058 17.3035 7.81623 16.8363 8.302C16.3749 8.78201 15.7893 9.02488 15.0855 9.02488H13.0685V4.01099H15.0855V4.01677ZM15.0855 8.24417C15.5705 8.24417 15.9668 8.08225 16.2625 7.7584C16.5701 7.43455 16.7239 7.01817 16.7239 6.52661C16.7239 6.02349 16.5701 5.61868 16.2625 5.29483C15.9609 4.97096 15.5646 4.80904 15.0855 4.80904H13.9143V8.24417H15.0855Z" fill="white"/>
<path d="M22.0649 7.59256C22.0649 8.00336 21.9172 8.34473 21.6155 8.61668C21.3138 8.88863 20.9589 9.02748 20.5212 9.02748H18.3268V4.01099H20.3615C20.7815 4.01099 21.1362 4.14986 21.4261 4.41023C21.722 4.67638 21.8639 5.00619 21.8639 5.39963C21.8639 5.83938 21.6864 6.17497 21.3434 6.42377C21.7929 6.65522 22.0649 7.0718 22.0649 7.59256ZM19.1726 4.78633V6.10554H20.3673C20.7401 6.10554 21.0239 5.81623 21.0239 5.44593C21.0239 5.07562 20.7401 4.78633 20.3673 4.78633H19.1726ZM20.5271 8.25216C20.9174 8.25216 21.2251 7.94549 21.2251 7.55205C21.2251 7.15859 20.9174 6.85194 20.5271 6.85194H19.1726V8.25794H20.5271V8.25216Z" fill="white"/>
<path d="M23.7031 8.24058H25.9745V9.02748H22.8633V4.01099H25.939V4.79789H23.7031V6.09974H25.7557V6.88086H23.7031V8.24058Z" fill="white"/>
<path d="M29.6536 9.02748L28.5651 7.1991H27.5714V9.02748H26.7316V4.01099H28.7839C29.2454 4.01099 29.6358 4.1672 29.9493 4.48544C30.2686 4.79211 30.4343 5.17399 30.4343 5.62529C30.4343 6.26176 30.0261 6.84614 29.4169 7.07758L30.5821 9.02748H29.6536ZM27.5714 4.78631V6.46426H28.7781C29.2276 6.46426 29.5825 6.09396 29.5825 5.62529C29.5825 5.16241 29.2218 4.78631 28.7781 4.78631H27.5714Z" fill="white"/>
<path d="M34.1432 9.02801L33.0607 7.19868H32.067V9.02801H31.2272V4.00891H33.2795C33.741 4.00891 34.1314 4.16522 34.4449 4.48362C34.7642 4.79044 34.9299 5.17251 34.9299 5.62405C34.9299 6.26085 34.5217 6.84555 33.9125 7.07711L35.0777 9.02801H34.1432ZM32.067 4.78464V6.46347H33.2737C33.7232 6.46347 34.0781 6.09296 34.0781 5.62405C34.0781 5.16094 33.7174 4.78464 33.2737 4.78464H32.067Z" fill="white"/>
<path d="M35.693 4.00891H36.533V9.02745H35.693V4.00891Z" fill="white"/>
<path d="M38.3665 8.24058H40.6379V9.02746H37.5265V4.01099H40.6022V4.79789H38.3665V6.09974H40.4189V6.88086H38.3665V8.24058Z" fill="white"/>
<path d="M41.2233 7.88648L41.9508 7.4701C42.1578 8.03684 42.5778 8.31442 43.2224 8.31442C43.8612 8.31442 44.1747 8.0484 44.1747 7.65516C44.1747 7.44697 44.086 7.29661 43.9205 7.19252C43.7547 7.08264 43.4472 6.96119 43.0096 6.83397C42.5185 6.68939 42.2761 6.59685 41.933 6.3771C41.6018 6.14579 41.4361 5.81614 41.4361 5.36508C41.4361 4.91977 41.5958 4.5728 41.9211 4.31257C42.2406 4.04653 42.631 3.91931 43.0865 3.91931C43.9086 3.91931 44.5415 4.33569 44.8728 5.02387L44.1629 5.42291C43.9499 4.96026 43.5891 4.72315 43.0865 4.72315C42.5954 4.72315 42.2819 4.96604 42.2819 5.34772C42.2819 5.71785 42.5303 5.89133 43.3171 6.12843C43.5123 6.19205 43.6542 6.23832 43.7429 6.27301C43.8376 6.30193 43.9617 6.35398 44.1215 6.41759C44.2872 6.4812 44.4173 6.55639 44.4942 6.62C44.7663 6.82819 45.056 7.16938 45.0205 7.64938C45.0205 8.10045 44.855 8.46478 44.5178 8.7308C44.1865 8.99683 43.7489 9.12405 43.2048 9.12405C42.211 9.11827 41.4893 8.65563 41.2233 7.88648Z" fill="white"/>
</g>
<defs>
<linearGradient id="paint0_linear_1256_2262" x1="-2.70274e-07" y1="7.36453" x2="45" y2="7.36453" gradientUnits="userSpaceOnUse">
<stop stop-color="#C121A8"/>
<stop offset="1" stop-color="#471872"/>
</linearGradient>
<clipPath id="clip0_1256_2262">
<rect width="45" height="11.8966" fill="white" transform="translate(0.000244141 0.57312)"/>
</clipPath>
</defs>
</svg>
