<svg width="52" height="22" viewBox="0 0 52 22" fill="none" xmlns="http://www.w3.org/2000/svg">
<path d="M34.5108 21.1672C40.4658 21.1672 45.2728 16.5841 45.2728 10.9065C45.2728 5.22888 40.4658 0.645752 34.5108 0.645752C28.5558 0.645752 23.7488 5.22888 23.7488 10.9065C23.6771 16.5841 28.5558 21.1672 34.5108 21.1672Z" fill="#FED42B"/>
<path d="M11.4807 21.1677C17.4244 21.1677 22.2427 16.5738 22.2427 10.907C22.2427 5.24013 17.4244 0.64624 11.4807 0.64624C5.53705 0.64624 0.71875 5.24013 0.71875 10.907C0.71875 16.5738 5.53705 21.1677 11.4807 21.1677Z" fill="#FC3F1D"/>
<path d="M13.0573 6.39172H11.9811C10.1157 6.39172 9.183 7.28098 9.183 8.64908C9.183 10.154 9.82872 10.9064 11.1919 11.7957L12.2681 12.5482L9.183 17.1313H6.67188L9.61348 12.9586C7.89157 11.7957 6.95886 10.7012 6.95886 8.78589C6.95886 6.39172 8.68078 4.75 11.9811 4.75H15.2815V17.0629H13.1291V6.39172H13.0573Z" fill="white"/>
<path d="M29.201 6.25492L19.7305 18.089L22.2416 20.8252L29.2728 11.9325L28.5553 16.7893L32.5013 18.089L37.3084 10.7696C37.0931 12.1377 36.7344 15.2844 39.8912 16.242C44.8417 17.6785 49.1465 9.19633 51.1554 4.88682L48.2856 3.45032C46.0614 7.89664 42.6176 12.8218 41.2544 12.4798C39.8912 12.1377 41.1109 7.96504 41.9001 5.29725V5.22885L37.5236 3.79234L32.2861 11.9325L33.0036 7.48621L29.201 6.25492Z" fill="black"/>
</svg>
