<svg width="38" height="16" viewBox="0 0 38 16" fill="none" xmlns="http://www.w3.org/2000/svg">
<path d="M25.3832 15.5281C29.8563 15.5281 33.4671 12.0855 33.4671 7.82074C33.4671 3.55601 29.8563 0.113403 25.3832 0.113403C20.9102 0.113403 17.2994 3.55601 17.2994 7.82074C17.2455 12.0855 20.9102 15.5281 25.3832 15.5281Z" fill="#FED42B"/>
<path d="M8.08383 15.5281C12.5484 15.5281 16.1677 12.0774 16.1677 7.82074C16.1677 3.56409 12.5484 0.113403 8.08383 0.113403C3.61925 0.113403 0 3.56409 0 7.82074C0 12.0774 3.61925 15.5281 8.08383 15.5281Z" fill="#FC3F1D"/>
<path d="M9.26955 4.42885H8.46117C7.05997 4.42885 6.35937 5.09682 6.35937 6.12446C6.35937 7.25487 6.8444 7.82008 7.86835 8.48805L8.67674 9.05325L6.35937 12.4959H4.47314L6.68272 9.36154C5.38931 8.48805 4.68871 7.66593 4.68871 6.22723C4.68871 4.42885 5.98213 3.19568 8.46117 3.19568H10.9402V12.4445H9.32344V4.42885H9.26955Z" fill="white"/>
<path d="M21.395 4.32542L14.2812 13.2145L16.1675 15.2698L21.4489 8.59014L20.91 12.2383L23.8741 13.2145L27.4848 7.71665C27.3232 8.74429 27.0537 11.1079 29.425 11.8272C33.1435 12.9062 36.3771 6.53486 37.886 3.29778L35.7304 2.21875C34.0597 5.55859 31.4729 9.25811 30.4489 9.0012C29.425 8.74429 30.3411 5.60998 30.9339 3.60607V3.55469L27.6465 2.47566L23.7124 8.59014L24.2513 5.2503L21.395 4.32542Z" fill="black"/>
</svg>
