<svg width="48" height="48" viewBox="0 0 48 48" fill="none" xmlns="http://www.w3.org/2000/svg">
<path fill-rule="evenodd" clip-rule="evenodd" d="M32.6078 16.4712C33.5502 16.7249 34.2932 17.4679 34.5469 18.4102C35.018 20.1318 34.9999 23.7199 34.9999 23.7199C34.9999 23.7199 34.9999 27.2899 34.5469 29.0115C34.2932 29.9538 33.5502 30.6968 32.6078 30.9505C30.8862 31.4036 24 31.4036 24 31.4036C24 31.4036 17.1318 31.4036 15.3921 30.9324C14.4497 30.6787 13.7068 29.9357 13.453 28.9934C13 27.2899 13 23.7018 13 23.7018C13 23.7018 13 20.1318 13.453 18.4102C13.7068 17.4679 14.4679 16.7068 15.3921 16.453C17.1137 16 24 16 24 16C24 16 30.8862 16 32.6078 16.4712ZM27.5338 23.702L21.8073 27.0002V20.4038L27.5338 23.702Z" fill="#9C9C9C"/>
<circle cx="24" cy="24" r="23.5" stroke="#9C9C9C"/>
</svg>
